SplineFontDB: 1.0
FontName: Loma
FullName: Loma
FamilyName: Loma
Weight: Book
Copyright: Copyright (c) NECTEC, 2003. All rights reserved.
Version: 0.9.1; 2003
ItalicAngle: 0
UnderlinePosition: -217
UnderlineWidth: 150
Ascent: 1638
Descent: 410
NeedsXUIDChange: 1
FSType: 0
PfmFamily: 17
TTFWeight: 400
TTFWidth: 5
Panose: 2 11 5 4 2 2 2 2 2 4
LineGap: 0
VLineGap: 0
OS2TypoAscent: 2089
OS2TypoDescent: -430
OS2WinAscent: 2089
OS2WinDescent: 430
ScriptLang: 2
 1 latn 1 dflt 
 1 thai 1 dflt 
TableOrder: GPOS 1
	'kern'
LangName: 1024 "Copyright (c) NECTEC, 2003. All rights reserved." "Loma" "Regular" "Nectec UI" "Loma Regular" "Version 0.1; 2003 " "Loma-Regular" "SLThaiUI is a trademark of the NECTEC." "" "Mr.Sirichai Lerdvorawut" "" "http://www.opentle.org" "http://www.opentle.org" "GPL" 
LangName: 1033 "" "" "Regular" "Nectec UI - Loma" "" "" "" "SLThaiUI is a trademark of the NECTEC." "" "Mr.Sirichai Lerdvorawut" "" "http://www.opentle.org" "http://www.opentle.org" "GPL" 
Encoding: unicode
UnicodeInterp: none
DisplaySize: -36
AntiAlias: 1
FitToEm: 1
WinInfo: 3560 20 9
BeginChars: 65539 271
StartChar: .notdef
Encoding: 0 -1 0
Width: 1536
Flags: W
Fore
256 0 m 1
 256 1280 l 1
 1280 1280 l 1
 1280 0 l 1
 256 0 l 1
288 32 m 1
 1248 32 l 1
 1248 1248 l 1
 288 1248 l 1
 288 32 l 1
EndSplineSet
EndChar
StartChar: exclam
Encoding: 33 33 5
Width: 569
Flags: W
Fore
198 999 m 1
 198 1450 l 1
 378 1450 l 1
 378 999 l 1
 335 365 l 1
 242 365 l 1
 198 999 l 1
206 194 m 1
 370 194 l 1
 370 0 l 1
 206 0 l 1
 206 194 l 1
EndSplineSet
EndChar
StartChar: quotedbl
Encoding: 34 34 6
Width: 727
Flags: W
Fore
156 947 m 1
 106 1217 l 1
 106 1450 l 1
 286 1450 l 1
 286 1217 l 1
 241 947 l 1
 156 947 l 1
487 947 m 1
 439 1217 l 1
 439 1450 l 1
 619 1450 l 1
 619 1217 l 1
 572 947 l 1
 487 947 l 1
EndSplineSet
EndChar
StartChar: numbersign
Encoding: 35 35 7
Width: 1139
Flags: W
Fore
87 -10 m 1
 174 385 l 1
 21 385 l 1
 21 565 l 1
 204 565 l 1
 278 895 l 1
 21 895 l 1
 21 1075 l 1
 308 1075 l 1
 395 1470 l 1
 575 1470 l 1
 488 1075 l 1
 767 1075 l 1
 854 1470 l 1
 1034 1470 l 1
 947 1075 l 1
 1113 1075 l 1
 1113 895 l 1
 917 895 l 1
 842 565 l 1
 1113 565 l 1
 1113 385 l 1
 812 385 l 1
 725 -10 l 1
 546 -10 l 1
 632 385 l 1
 354 385 l 1
 267 -10 l 1
 87 -10 l 1
384 565 m 1
 662 565 l 1
 737 895 l 1
 458 895 l 1
 384 565 l 1
EndSplineSet
EndChar
StartChar: dollar
Encoding: 36 36 8
Width: 1139
Flags: W
Fore
491 -17 m 1
 418.333 -8.33333 352 10.6667 292 40 c 0
 236 66.6667 187.333 109.667 146 169 c 0
 144 171.667 142 174.667 140 178 c 0
 104 233.333 82.6667 296.333 76 367 c 1
 76 417 l 1
 255 417 l 1
 268.333 330.333 293 265 329 221 c 1
 341.667 207 353 195 363 185 c 0
 401 147 443.667 126.333 491 123 c 1
 491 651 l 1
 484.333 652.333 478 653.667 472 655 c 0
 424.667 665 362 690.333 284 731 c 1
 226.667 759.667 182.667 799.667 152 851 c 0
 121.333 903 106 963 106 1031 c 0
 106 1147.67 151 1243.33 241 1318 c 0
 245 1320.67 248.667 1323.33 252 1326 c 0
 312 1371.33 391.667 1399 491 1409 c 1
 491 1488 l 1
 634 1488 l 1
 634 1409 l 1
 648 1408 l 2
 732 1398.67 804 1370.33 864 1323 c 0
 877.333 1313 890 1302 902 1290 c 0
 959.333 1232 993.667 1166.67 1005 1094 c 1
 1008 1050 l 1
 833 1050 l 1
 826.333 1103.33 800.333 1153.33 755 1200 c 2
 745 1211 l 1
 713.667 1241.67 676.667 1261 634 1269 c 1
 634 790 l 1
 635 789 l 1
 730 762 l 2
 759.333 754 781.667 747 797 741 c 0
 879 707.667 940.333 662 981 604 c 0
 1021.67 545.333 1042 476.333 1042 397 c 0
 1042 281 1002.67 184.667 924 108 c 0
 916 100 907.667 92.6667 899 86 c 0
 826.333 24.6667 738 -9 634 -15 c 1
 634 -118 l 1
 491 -118 l 1
 491 -17 l 1
491 1271 m 1
 477 1269 464 1266.33 452 1263 c 0
 416 1252.33 381 1228.67 347 1192 c 1
 306.333 1150 286 1100.67 286 1044 c 0
 286 987.333 303 940 337 902 c 0
 339.667 898.667 342.333 895.667 345 893 c 0
 381 855 429.667 827.333 491 810 c 1
 491 1271 l 1
641 124 m 2
 657.667 126.667 682 135.667 714 151 c 0
 743.333 165 768.667 183.667 790 207 c 0
 810.667 230.333 827.333 257 840 287 c 0
 852 317.667 858 350.667 858 386 c 0
 858 446 841.667 494.333 809 531 c 1
 774.333 572.333 716 605 634 629 c 1
 634 123 l 1
 641 124 l 2
EndSplineSet
EndChar
StartChar: percent
Encoding: 37 37 9
Width: 1821
Flags: W
Fore
119 1114 m 0
 119 1219.33 145 1308 197 1380 c 0
 249.667 1454 326 1491 426 1491 c 0
 521.333 1491 597.667 1458 655 1392 c 0
 715 1323.33 745 1227.33 745 1104 c 1
 743.667 986 713.333 890.333 654 817 c 1
 596.667 750.333 521.333 717 428 717 c 0
 337.333 717 264 749.667 208 815 c 0
 148.667 884.333 119 984 119 1114 c 0
432 1366 m 0
 384.667 1366 347.333 1346.67 320 1308 c 0
 290.667 1266 276 1195.33 276 1096 c 0
 276 1001.33 291.333 935 322 897 c 0
 352 859 388.667 840 432 840 c 0
 477.333 840 515 859.333 545 898 c 128
 575 936.667 590 1007.33 590 1110 c 0
 590 1204 575 1270 545 1308 c 0
 515 1346.67 477.333 1366 432 1366 c 0
1217 1491 m 1
 1397 1491 l 1
 638 -10 l 1
 458 -10 l 1
 1217 1491 l 1
1067 344 m 0
 1067 449.333 1093 538 1145 610 c 0
 1198.33 684 1275.33 721 1376 721 c 0
 1470.67 721 1546.67 688 1604 622 c 0
 1665.33 552 1696 456 1696 334 c 0
 1696 212.667 1665.33 117 1604 47 c 0
 1545.33 -19.6667 1469.33 -53 1376 -53 c 0
 1282.67 -53 1209 -20 1155 46 c 0
 1096.33 117.333 1067 216.667 1067 344 c 0
1380 598 m 0
 1332 598 1294.67 578.667 1268 540 c 0
 1239.33 497.333 1225 426 1225 326 c 0
 1225 232.667 1240 166.667 1270 128 c 0
 1300 89.3333 1336.67 70 1380 70 c 0
 1426.67 70 1464.67 89.3333 1494 128 c 0
 1523.33 166.667 1538 237.333 1538 340 c 0
 1538 434 1523 500.5 1493 539.5 c 128
 1463 578.5 1425.33 598 1380 598 c 0
EndSplineSet
EndChar
StartChar: ampersand
Encoding: 38 38 10
Width: 1366
Flags: W
Fore
973 172 m 1
 855.667 40.6667 715.667 -25 553 -25 c 0
 403 -25 283.667 25.6667 195 127 c 1
 123.667 210.333 88 302.333 88 403 c 0
 88 586.333 204 732.667 436 842 c 1
 403.333 880 376.667 914 356 944 c 0
 334.667 974 318 1001.67 306 1027 c 0
 293.333 1052.33 284.5 1075.83 279.5 1097.5 c 128
 274.5 1119.17 272 1141 272 1163 c 0
 272 1251.67 306.333 1328.33 375 1393 c 0
 444.333 1458.33 531.667 1491 637 1491 c 0
 735 1491 816 1460.33 880 1399 c 0
 944.667 1337.67 977 1264 977 1178 c 0
 977 1038.67 884.667 919.667 700 821 c 1
 963 485 l 1
 993 542.333 1016 610.667 1032 690 c 1
 1221 649 l 1
 1187.67 522.333 1144 417.333 1090 334 c 1
 1156.67 246.667 1233 171.667 1319 109 c 1
 1198 -35 l 1
 1126 13 1051 82 973 172 c 1
606 938 m 1
 684 982 734.667 1021.67 758 1057 c 0
 781.333 1092.33 793 1131.33 793 1174 c 0
 793 1222.67 777.333 1263 746 1295 c 0
 714 1327 674.333 1343 627 1343 c 0
 579 1343 538.667 1327.33 506 1296 c 0
 473.333 1264.67 457 1226.67 457 1182 c 0
 457 1135.33 480 1084.67 526 1030 c 1
 606 938 l 1
530 725 m 1
 433.333 666.333 368 612 334 562 c 0
 300 512 283 463.333 283 416 c 0
 283 354.667 306 292.333 352 229 c 1
 400 165 467.667 133 555 133 c 0
 581 133 608.667 137.333 638 146 c 0
 667.333 155.333 695.667 168 723 184 c 0
 750.333 200.667 776 220 800 242 c 0
 824 263.333 844 287.667 860 315 c 1
 530 725 l 1
EndSplineSet
EndChar
StartChar: quotesingle
Encoding: 39 39 11
Width: 391
Flags: W
Fore
136 947 m 1
 90 1221 l 1
 90 1466 l 1
 295 1466 l 1
 295 1221 l 1
 247 947 l 1
 136 947 l 1
EndSplineSet
EndChar
StartChar: parenleft
Encoding: 40 40 12
Width: 682
Flags: W
Fore
479 -431 m 1
 343.667 -259.667 245.333 -71 184 135 c 0
 144 268.333 124 400.333 124 531 c 0
 124 773 181 999 295 1209 c 0
 341 1294.33 402.333 1388.33 479 1491 c 1
 608 1491 l 1
 515.333 1331.67 452 1211.33 418 1130 c 0
 354 978 318.333 808.667 311 622 c 0
 309.667 592 309 561.333 309 530 c 0
 309 209.333 408.667 -111 608 -431 c 1
 479 -431 l 1
EndSplineSet
EndChar
StartChar: parenright
Encoding: 41 41 13
Width: 682
Flags: W
Fore
253 -431 m 1
 124 -431 l 1
 323.333 -111 423 209.333 423 530 c 0
 423 742 390.667 931 326 1097 c 0
 290 1189.67 225.667 1315.67 133 1475 c 0
 129 1482 129 1482 124 1491 c 1
 253 1491 l 1
 380.333 1321 470.333 1164.67 523 1022 c 0
 579.667 870.667 608 707 608 531 c 0
 608 283 539 36.3333 401 -209 c 0
 356.333 -288.333 307 -362.333 253 -431 c 1
EndSplineSet
EndChar
StartChar: asterisk
Encoding: 42 42 14
Width: 797
Flags: W
Fore
64 1197 m 1
 110 1339 l 1
 216 1301.67 293 1269.33 341 1242 c 1
 328.333 1362.67 321.667 1445.67 321 1491 c 1
 466 1491 l 1
 464 1425 456.333 1342.33 443 1243 c 1
 511.667 1277.67 590.333 1309.67 679 1339 c 1
 725 1197 l 1
 640.333 1169 557.333 1150.33 476 1141 c 1
 516.667 1105.67 574 1042.67 648 952 c 1
 528 867 l 1
 489.333 919.667 443.667 991.333 391 1082 c 1
 341.667 988 298.333 916.333 261 867 c 1
 143 952 l 1
 220.333 1047.33 275.667 1110.33 309 1141 c 1
 223 1157.67 141.333 1176.33 64 1197 c 1
EndSplineSet
EndChar
StartChar: plus
Encoding: 43 43 15
Width: 1196
Flags: W
Fore
513 237 m 1
 513 639 l 1
 114 639 l 1
 114 807 l 1
 513 807 l 1
 513 1206 l 1
 683 1206 l 1
 683 807 l 1
 1082 807 l 1
 1082 639 l 1
 683 639 l 1
 683 237 l 1
 513 237 l 1
EndSplineSet
EndChar
StartChar: comma
Encoding: 44 44 16
Width: 569
Flags: W
Fore
182 0 m 1
 182 205 l 1
 387 205 l 1
 387 0 l 2
 387 -75.3333 373.667 -136 347 -182 c 0
 320.333 -228.667 278 -264.667 220 -290 c 1
 170 -213 l 1
 208 -196.333 236 -172 254 -140 c 0
 272 -107.333 282 -60.6667 284 0 c 1
 182 0 l 1
EndSplineSet
EndChar
StartChar: hyphen
Encoding: 45 45 17
Width: 682
Flags: W
Fore
65 440 m 1
 65 621 l 1
 618 621 l 1
 618 440 l 1
 65 440 l 1
EndSplineSet
EndChar
StartChar: period
Encoding: 46 46 18
Width: 569
Flags: W
Fore
186 0 m 1
 186 205 l 1
 391 205 l 1
 391 0 l 1
 186 0 l 1
EndSplineSet
EndChar
StartChar: slash
Encoding: 47 47 19
Width: 595
Flags: W
Fore
-81 -10 m 1
 506 1470 l 1
 688 1470 l 1
 102 -10 l 1
 -81 -10 l 1
EndSplineSet
EndChar
StartChar: zero
Encoding: 48 48 20
Width: 1139
Flags: W
Fore
86 723 m 0
 86 889.667 102.333 1026.33 135 1133 c 0
 202.333 1350.33 345 1459 563 1459 c 0
 881 1459 1040 1213.67 1040 723 c 0
 1040 540.333 1019.67 394.333 979 285 c 0
 908.333 96.3333 769.667 -2 563 -10 c 1
 499 -10 441.667 -0.333333 391 19 c 0
 187.667 95 86 329.667 86 723 c 0
270 723 m 0
 270 662.333 272.333 607 277 557 c 0
 301 279 396.333 140 563 140 c 0
 758.333 140.667 856 335 856 723 c 0
 856 1113.67 757.667 1309 561 1309 c 0
 485.667 1309 425.333 1283 380 1231 c 0
 306.667 1145 270 975.667 270 723 c 0
EndSplineSet
EndChar
StartChar: one
Encoding: 49 49 21
Width: 1139
Flags: W
Fore
763 0 m 1
 583 0 l 1
 583 1135 l 1
 540.333 1069 474.333 1012.67 385 966 c 0
 331 937.333 277 917.667 223 907 c 1
 223 1104 l 1
 328.333 1153.33 417.333 1220.67 490 1306 c 0
 538 1363.33 569 1418.67 583 1472 c 1
 763 1472 l 1
 763 0 l 1
EndSplineSet
KernsSLIF: 49 -152 0 0
EndChar
StartChar: two
Encoding: 50 50 22
Width: 1139
Flags: W
Fore
1031 173 m 1
 1031 0 l 1
 62 0 l 1
 74 145.333 163.333 295.333 330 450 c 0
 360.667 478 396.333 508.667 437 542 c 0
 557.667 641.333 640.333 713.667 685 759 c 0
 781.667 858.333 834.333 955 843 1049 c 0
 843.667 1059 844 1069 844 1079 c 0
 844 1161 813.333 1226 752 1274 c 0
 702 1313.33 640.667 1333 568 1333 c 0
 458.667 1333 379 1294.33 329 1217 c 0
 297.667 1169 281.667 1109.67 281 1039 c 1
 96 1039 l 1
 96 1168.33 138.667 1274 224 1356 c 0
 312 1440 428 1482 572 1482 c 0
 712.667 1482 825.333 1442.33 910 1363 c 0
 989.333 1289 1029 1193 1029 1075 c 0
 1029 945 977 821.667 873 705 c 0
 829 655.667 754.667 587.667 650 501 c 2
 596 455 l 1
 430 317 l 1
 386 277.667 346.667 229.667 312 173 c 1
 1031 173 l 1
EndSplineSet
EndChar
StartChar: three
Encoding: 51 51 23
Width: 1139
Flags: W
Fore
86 427 m 1
 266 427 l 1
 269 383 l 1
 281 312.333 317 255 377 211 c 0
 427.667 174.333 486.333 156 553 156 c 0
 648.333 156 724.667 186.667 782 248 c 0
 830.667 300.667 855 366.333 855 445 c 0
 855 547 818 621.667 744 669 c 0
 698 698.333 642 713 576 713 c 0
 533.333 713 488.333 706.667 441 694 c 1
 441 852 l 1
 495 850 l 1
 581.667 852.667 653.667 880 711 932 c 0
 763 979.333 789 1037 789 1105 c 0
 789 1187.67 755.333 1247.67 688 1285 c 0
 649.333 1306.33 603 1317 549 1317 c 0
 407 1317 320.333 1244.33 289 1099 c 1
 284 1070 l 1
 104 1070 l 1
 104 1170 139.333 1259 210 1337 c 0
 282.667 1417 374.333 1464 485 1478 c 0
 505 1480.67 525 1482 545 1482 c 0
 661.667 1482 760.667 1448 842 1380 c 0
 923.333 1312 967 1226.33 973 1123 c 0
 973.667 1115.67 974 1108.33 974 1101 c 0
 974 1001.67 936.333 918.667 861 852 c 0
 834.333 828.667 804.667 809.333 772 794 c 1
 919.333 760 1007.33 677.333 1036 546 c 0
 1042.67 516 1046 483.667 1046 449 c 0
 1046 325 1004 220.333 920 135 c 1
 881 100 l 1
 790.333 26.6667 680.667 -10 552 -10 c 0
 429.333 -10 324 28.6667 236 106 c 0
 153.333 178 104.667 266.667 90 372 c 0
 87.3333 390.667 86 409 86 427 c 1
EndSplineSet
EndChar
StartChar: four
Encoding: 52 52 24
Width: 1139
Flags: W
Fore
662 0 m 1
 662 347 l 1
 26 347 l 1
 26 522 l 1
 662 1472 l 1
 842 1472 l 1
 842 522 l 1
 1040 522 l 1
 1040 347 l 1
 842 347 l 1
 842 0 l 1
 662 0 l 1
662 522 m 1
 662 1117 l 1
 251 522 l 1
 662 522 l 1
EndSplineSet
EndChar
StartChar: five
Encoding: 53 53 25
Width: 1139
Flags: W
Fore
85 415 m 1
 274 415 l 1
 294 284.333 354 202.333 454 169 c 0
 484.667 159 518.667 154 556 154 c 0
 658 154 737.667 191 795 265 c 0
 842.333 325.667 866 402.667 866 496 c 0
 866 618.667 825.333 708 744 764 c 0
 692.667 799.333 629 817 553 817 c 0
 454.333 817 372 773.333 306 686 c 1
 117 708 l 1
 259 1472 l 1
 988 1472 l 1
 988 1292 l 1
 423 1292 l 1
 344 920 l 1
 397.333 964 479.667 986.333 591 987 c 0
 601 987 l 0
 727 987 832.333 946 917 864 c 0
 1003 780.667 1049.33 673.333 1056 542 c 0
 1056.67 532 1057 522 1057 512 c 0
 1057 370 1015.33 251 932 155 c 0
 848 57 738.333 2.66667 603 -8 c 0
 587.667 -9.33333 572 -10 556 -10 c 0
 395.333 -10 272.333 42.6667 187 148 c 0
 129.667 218.667 95.6667 307.667 85 415 c 1
EndSplineSet
EndChar
StartChar: six
Encoding: 54 54 26
Width: 1139
Flags: W
Fore
1019 1103 m 1
 840 1103 l 1
 814 1219.67 747.667 1286 641 1302 c 0
 625.667 1304 609.333 1305 592 1305 c 0
 383.333 1305 276.333 1150.67 271 842 c 1
 331.667 918 415.333 961.667 522 973 c 0
 544.667 975.667 568.667 977 594 977 c 0
 708.667 977 808.333 937.333 893 858 c 0
 976.333 778.667 1025.67 679 1041 559 c 0
 1043.67 536.333 1045 513.667 1045 491 c 0
 1045 354.333 1006.33 239.667 929 147 c 0
 849.667 51 746 -1 618 -9 c 0
 607.333 -9.66667 596.667 -10 586 -10 c 0
 363.333 -10 213 97.3333 135 312 c 0
 96.3333 418 77 547.667 77 701 c 0
 77 1078.33 171.333 1319.67 360 1425 c 0
 429.333 1463 510.333 1482 603 1482 c 0
 719 1482 817 1446 897 1374 c 0
 971.667 1307.33 1012 1225.33 1018 1128 c 0
 1018.67 1120 1019 1111.67 1019 1103 c 1
306 490 m 0
 306 381.333 335.667 295.667 395 233 c 0
 443.667 181 506.333 155 583 155 c 0
 676.333 155 748.667 191 800 263 c 0
 840.667 321 861 393.333 861 480 c 0
 861 592.667 828 679 762 739 c 0
 712.667 784.333 650.667 807 576 807 c 0
 480 807 407.333 768.667 358 692 c 0
 323.333 637.333 306 570 306 490 c 0
EndSplineSet
EndChar
StartChar: seven
Encoding: 55 55 27
Width: 1139
Flags: W
Fore
97 1292 m 1
 97 1472 l 1
 1046 1472 l 1
 1046 1292 l 1
 895.333 1111.33 771.667 911.333 675 692 c 0
 565.667 446 511 215.333 511 0 c 1
 293 0 l 1
 294.333 235.333 358.667 494 486 776 c 0
 576.667 978.667 679.667 1150.67 795 1292 c 1
 97 1292 l 1
EndSplineSet
EndChar
StartChar: eight
Encoding: 56 56 28
Width: 1139
Flags: W
Fore
362 805 m 1
 215.333 859 142 958.667 142 1104 c 0
 142 1218 182.667 1310.33 264 1381 c 0
 342 1448.33 441.667 1482 563 1482 c 0
 689 1482 792 1445.33 872 1372 c 0
 950 1301.33 989 1210.33 989 1099 c 0
 989 967 925.667 872.667 799 816 c 2
 773 805 l 1
 911 760.333 997.333 677.333 1032 556 c 0
 1043.33 518.667 1049 478 1049 434 c 1
 1045 368 l 1
 1029.67 232.667 967.667 131.667 859 65 c 0
 778.333 15 680.667 -10 566 -10 c 0
 424.667 -10 309.333 31 220 113 c 0
 130 195 84.3333 302 83 434 c 0
 83 437 83 437 83 439 c 0
 83 588.333 140.333 696 255 762 c 0
 287 780.667 322.667 795 362 805 c 1
326 1110 m 1
 326 1026 357 963 419 921 c 0
 459.667 893.667 509 880 567 880 c 0
 647.667 880 710.333 906.667 755 960 c 0
 787.667 998.667 804 1045.33 804 1100 c 0
 804 1176 775.333 1235.67 718 1279 c 0
 675.333 1310.33 624.333 1326 565 1326 c 0
 486.333 1326 424 1300.67 378 1250 c 1
 357 1222 l 1
 340 1189 l 1
 330 1151 l 1
 326 1110 l 1
268 438 m 0
 268 346.667 300.333 273.333 365 218 c 0
 420.333 170.667 488 147 568 147 c 0
 666 147 743 178.667 799 242 c 0
 843 292.667 865 356 865 432 c 0
 865 535.333 824 610.333 742 657 c 0
 692.667 685 632.667 699 562 699 c 0
 453.333 699 372.667 666.333 320 601 c 0
 285.333 557.667 268 503.333 268 438 c 0
EndSplineSet
EndChar
StartChar: nine
Encoding: 57 57 29
Width: 1139
Flags: W
Fore
139 369 m 1
 318 369 l 1
 344 252.333 410.333 186 517 170 c 0
 532.333 168 548.667 167 566 167 c 0
 774.667 167 881.667 321.333 887 630 c 1
 826.333 554 742.667 510.333 636 499 c 0
 613.333 496.333 589.333 495 564 495 c 0
 449.333 495 349.667 534.667 265 614 c 0
 181.667 693.333 132.333 793 117 913 c 0
 114.333 935.667 113 958.333 113 981 c 0
 113 1117.67 151.667 1232.33 229 1325 c 0
 308.333 1421 412 1473 540 1481 c 0
 550.667 1481.67 561.333 1482 572 1482 c 0
 794.667 1482 945 1374.67 1023 1160 c 0
 1061.67 1054 1081 924.333 1081 771 c 0
 1081 393.667 986.667 152.333 798 47 c 0
 728.667 9 647.667 -10 555 -10 c 0
 439 -10 341 26 261 98 c 0
 186.333 164.667 146 246.667 140 344 c 0
 139.333 352 139 360.333 139 369 c 1
852 982 m 0
 852 1090.67 822.333 1176.33 763 1239 c 0
 714.333 1291 651.667 1317 575 1317 c 0
 481.667 1317 409.333 1281 358 1209 c 1
 335 1170 l 1
 309.667 1119.33 297 1060 297 992 c 0
 297 879.333 330 793 396 733 c 0
 445.333 687.667 507.333 665 582 665 c 0
 678 665 750.667 703.333 800 780 c 0
 834.667 834.667 852 902 852 982 c 0
EndSplineSet
EndChar
StartChar: colon
Encoding: 58 58 30
Width: 569
Flags: W
Fore
185 857 m 1
 185 1062 l 1
 390 1062 l 1
 390 857 l 1
 185 857 l 1
185 0 m 1
 185 205 l 1
 390 205 l 1
 390 0 l 1
 185 0 l 1
EndSplineSet
EndChar
StartChar: semicolon
Encoding: 59 59 31
Width: 569
Flags: W
Fore
182 857 m 1
 182 1062 l 1
 387 1062 l 1
 387 857 l 1
 182 857 l 1
182 0 m 1
 182 205 l 1
 387 205 l 1
 387 0 l 2
 387 -120 350.667 -205.667 278 -257 c 1
 261.333 -269.667 242 -280.667 220 -290 c 1
 170 -213 l 1
 224.667 -189 259 -147 273 -87 c 0
 279 -63 282.667 -34 284 0 c 1
 182 0 l 1
EndSplineSet
EndChar
StartChar: less
Encoding: 60 60 32
Width: 1196
Flags: W
Fore
112 641 m 1
 112 809 l 1
 1083 1219 l 1
 1083 1040 l 1
 313 724 l 1
 1083 405 l 1
 1083 226 l 1
 112 641 l 1
EndSplineSet
EndChar
StartChar: equal
Encoding: 61 61 33
Width: 1196
Flags: W
Fore
1082 862 m 1
 114 862 l 1
 114 1030 l 1
 1082 1030 l 1
 1082 862 l 1
1082 417 m 1
 114 417 l 1
 114 585 l 1
 1082 585 l 1
 1082 417 l 1
EndSplineSet
EndChar
StartChar: greater
Encoding: 62 62 34
Width: 1196
Flags: W
Fore
1083 641 m 1
 112 226 l 1
 112 405 l 1
 881 724 l 1
 112 1040 l 1
 112 1219 l 1
 1083 809 l 1
 1083 641 l 1
EndSplineSet
EndChar
StartChar: question
Encoding: 63 63 35
Width: 1139
Flags: W
Fore
472 361 m 1
 474 436 l 1
 482 546.667 520.333 641 589 719 c 0
 605.667 737.667 642.667 773.333 700 826 c 0
 758.667 879.333 799.667 928 823 972 c 0
 842.333 1009.33 852.333 1048 853 1088 c 0
 853 1127.33 843.667 1164.33 825 1199 c 0
 791.667 1263 738.333 1306 665 1328 c 0
 634.333 1336.67 602 1341 568 1341 c 0
 428 1340.33 336 1267.67 292 1123 c 0
 284.667 1099 279 1073.33 275 1046 c 1
 90 1046 l 1
 97.3333 1175.33 141.667 1282.33 223 1367 c 0
 311 1458.33 425 1504 565 1504 c 0
 695.667 1504 806 1466.67 896 1392 c 0
 978.667 1323.33 1025 1238.67 1035 1138 c 1
 1036 1084 l 1
 1033.33 1027.33 1018.33 970.667 991 914 c 0
 971.667 874.667 934 830 878 780 c 0
 819.333 728.667 782 694 766 676 c 0
 693.333 597.333 653.333 501.667 646 389 c 0
 645.333 379.667 645 370.333 645 361 c 1
 472 361 l 1
461 0 m 1
 461 205 l 1
 666 205 l 1
 666 0 l 1
 461 0 l 1
EndSplineSet
EndChar
StartChar: at
Encoding: 64 64 36
Width: 2079
Flags: W
Fore
1161 121 m 1
 1089.67 38.3333 987.333 -3 854 -3 c 0
 747.333 -3 661 44 595 138 c 0
 533 225.333 502 333 502 461 c 0
 502 570.333 526 671.333 574 764 c 0
 629.333 873.333 702 957 792 1015 c 0
 862 1061 935 1084 1011 1084 c 0
 1153 1084 1253.67 1035.33 1313 938 c 1
 1347 1079 l 1
 1526 1079 l 1
 1380 379 l 1
 1367.33 315 1358 265 1352 229 c 1
 1353 212 l 1
 1355.67 202 1362 192 1372 182 c 0
 1386 169.333 1402.67 163 1422 163 c 0
 1492 163 1562.67 205.667 1634 291 c 0
 1703.33 374.333 1752 470.667 1780 580 c 0
 1792.67 628 1799 673.333 1799 716 c 0
 1799 884.667 1741.67 1025.33 1627 1138 c 0
 1521.67 1242 1386 1305.67 1220 1329 c 0
 1178.67 1335 1136.33 1338 1093 1338 c 0
 882.333 1338 703.667 1276 557 1152 c 0
 525 1124.67 495.333 1095 468 1063 c 0
 350 923.667 284.333 753.667 271 553 c 0
 269.667 531 269 508.333 269 485 c 0
 269 220.333 357.667 22 535 -110 c 0
 681.667 -219.333 876.667 -274 1120 -274 c 0
 1346 -274 1531.67 -224.333 1677 -125 c 0
 1737 -83.6667 1786 -35.6667 1824 19 c 1
 2005 19 l 1
 1941 -113 1834.67 -219.333 1686 -300 c 0
 1524.67 -387.333 1337 -431 1123 -431 c 0
 831 -431 596 -361.333 418 -222 c 0
 240 -82.6667 139.333 111.667 116 361 c 0
 112.667 396.333 111 432.333 111 469 c 0
 111 705 171 911 291 1087 c 0
 406.333 1255.67 562 1373 758 1439 c 0
 864.667 1475 979.333 1493 1102 1493 c 0
 1310.67 1493 1490.67 1439.33 1642 1332 c 0
 1784.67 1230.67 1879.33 1097.67 1926 933 c 0
 1946 863 1956 789.667 1956 713 c 0
 1956 575 1918.33 439.667 1843 307 c 0
 1771.67 181 1683 88 1577 28 c 0
 1504.33 -12.6667 1430 -33 1354 -33 c 0
 1308 -33 1270.67 -26 1242 -12 c 0
 1214 2 1193.33 22 1180 48 c 0
 1170 66.6667 1163.67 91 1161 121 c 1
891 161 m 0
 985 161 1065.67 207 1133 299 c 0
 1193.67 382.333 1229.33 480.333 1240 593 c 0
 1242 611.667 1243 630.333 1243 649 c 0
 1243 768.333 1208.67 850 1140 894 c 0
 1107.33 914.667 1068.67 925 1024 925 c 0
 912 925 822.667 862.333 756 737 c 0
 743.333 713 732 687.333 722 660 c 0
 717.333 648 713 635.667 709 623 c 0
 691.667 567 683 510.333 683 453 c 0
 683 350.333 708 272 758 218 c 0
 794 180 838.333 161 891 161 c 0
EndSplineSet
EndChar
StartChar: A
Encoding: 65 65 37
Width: 1366
Flags: W
Fore
559 1450 m 1
 768 1450 l 1
 1368 0 l 1
 1149 0 l 1
 948 471 l 1
 392 471 l 1
 203 0 l 1
 -2 0 l 1
 559 1450 l 1
903 653 m 1
 659 1237 l 1
 435 653 l 1
 903 653 l 1
EndSplineSet
KernsSLIF: 121 -37 0 0 119 -37 0 0 118 -37 0 0 89 -152 0 0 87 -76 0 0 86 -152 0 0 84 -152 0 0
EndChar
StartChar: B
Encoding: 66 66 38
Width: 1366
Flags: W
Fore
164 0 m 1
 164 1450 l 1
 700 1450 l 2
 812 1450 902 1435.33 970 1406 c 0
 1044.67 1372.67 1102 1320.33 1142 1249 c 0
 1171.33 1196.33 1186 1139.67 1186 1079 c 0
 1186 1019 1169 961.333 1135 906 c 0
 1101 850.667 1049.67 806 981 772 c 1
 1069.67 746 1138 701.667 1186 639 c 0
 1233.33 576.333 1257 503.667 1257 421 c 0
 1257 325.667 1228.67 240 1172 164 c 0
 1152 137.333 1130 115 1106 97 c 0
 1063.33 65 1010 40.6667 946 24 c 0
 881.333 8 802.333 0 709 0 c 2
 164 0 l 1
344 842 m 1
 661 842 l 2
 747 842 808.667 847.667 846 859 c 0
 945.333 888.333 995 954 995 1056 c 0
 995 1136 966.667 1195 910 1233 c 0
 894.667 1243 878 1250.67 860 1256 c 0
 816.667 1270 742.333 1277 637 1277 c 2
 344 1277 l 1
 344 842 l 1
344 173 m 1
 709 173 l 2
 797.667 173 860.667 179.667 898 193 c 0
 916 199 934.333 208 953 220 c 0
 1011.67 256.667 1045.33 312 1054 386 c 0
 1055.33 397.333 1056 409 1056 421 c 0
 1056 509.667 1021.67 575.667 953 619 c 0
 936.333 629.667 918 638 898 644 c 0
 848 660.667 776.333 669 683 669 c 2
 344 669 l 1
 344 173 l 1
EndSplineSet
EndChar
StartChar: C
Encoding: 67 67 39
Width: 1479
Flags: W
Fore
1210 480 m 1
 1398 480 l 1
 1348.67 287.333 1252.67 150 1110 68 c 0
 1018.67 16 912.333 -10 791 -10 c 0
 633 -10 504.667 22 406 86 c 0
 306.667 150.667 231.333 244 180 366 c 0
 128 488 102 614.333 102 745 c 0
 102 887.667 131.333 1016 190 1130 c 0
 248 1243.33 330.667 1329.33 438 1388 c 0
 546 1447.33 664.667 1477 794 1477 c 0
 940.667 1477 1064 1439.67 1164 1365 c 0
 1264 1290.33 1333.67 1185.33 1373 1050 c 1
 1185 1050 l 1
 1148.33 1170.67 1064.67 1247.33 934 1280 c 0
 890 1291.33 842 1297 790 1297 c 0
 677.333 1297 583.333 1270 508 1216 c 0
 368.667 1116.67 299 960 299 746 c 0
 299 634.667 320.667 530.667 364 434 c 0
 420.667 309.333 511.667 228.333 637 191 c 0
 684.333 177 734.667 170 788 170 c 0
 914 170 1017.33 204 1098 272 c 0
 1164.67 328 1202 397.333 1210 480 c 1
EndSplineSet
EndChar
StartChar: D
Encoding: 68 68 40
Width: 1479
Flags: W
Fore
168 0 m 1
 168 1450 l 1
 673 1450 l 2
 972.333 1450 1175 1362 1281 1186 c 0
 1347 1076.67 1380 925.667 1380 733 c 0
 1380 318.333 1217 79.6667 891 17 c 0
 831.667 5.66667 767 4.33681e-19 697 0 c 2
 168 0 l 1
350 173 m 1
 675 173 l 2
 998.333 173 1167.33 344 1182 686 c 0
 1182.67 702 1183 718.667 1183 736 c 0
 1183 1068.67 1037.33 1248 746 1274 c 0
 721.333 1276 696 1277 670 1277 c 2
 350 1277 l 1
 350 173 l 1
EndSplineSet
EndChar
StartChar: E
Encoding: 69 69 41
Width: 1366
Flags: W
Fore
162 0 m 1
 162 1450 l 1
 1222 1450 l 1
 1222 1268 l 1
 341 1268 l 1
 341 826 l 1
 1021 826 l 1
 1021 646 l 1
 341 646 l 1
 341 179 l 1
 1222 179 l 1
 1222 0 l 1
 162 0 l 1
EndSplineSet
EndChar
StartChar: F
Encoding: 70 70 42
Width: 1251
Flags: W
Fore
168 0 m 1
 168 1450 l 1
 1157 1450 l 1
 1157 1271 l 1
 347 1271 l 1
 347 820 l 1
 1009 820 l 1
 1009 641 l 1
 347 641 l 1
 347 0 l 1
 168 0 l 1
EndSplineSet
KernsSLIF: 65 -113 0 0 46 -227 0 0 44 -227 0 0
EndChar
StartChar: G
Encoding: 71 71 43
Width: 1479
Flags: W
Fore
1404 684 m 1
 1404 666 1404 666 1404 650 c 0
 1402.67 497.333 1388.67 387.333 1362 320 c 0
 1344.67 276 1310.67 224 1260 164 c 0
 1257.33 161.333 1255 158.667 1253 156 c 0
 1154.33 45.3333 1000.33 -10 791 -10 c 0
 633 -10 504.667 22 406 86 c 0
 306.667 150.667 231.333 244 180 366 c 0
 128 488 102 614.333 102 745 c 0
 102 887.667 131.333 1016 190 1130 c 0
 248 1243.33 330.667 1329.33 438 1388 c 0
 546 1447.33 664.667 1477 794 1477 c 0
 940.667 1477 1064 1439.67 1164 1365 c 0
 1264 1290.33 1333.67 1185.33 1373 1050 c 1
 1185 1050 l 1
 1173.67 1086.67 1158 1119.33 1138 1148 c 0
 1068 1247.33 952 1297 790 1297 c 0
 677.333 1297 583.333 1270 508 1216 c 0
 368.667 1116.67 299 960 299 746 c 0
 299 634.667 320.667 530.667 364 434 c 0
 382 394 404 358.333 430 327 c 0
 516 222.333 635.333 170 788 170 c 0
 797.333 170 806.667 170.333 816 171 c 0
 938.667 176.333 1037.33 214 1112 284 c 1
 1126 299 l 2
 1173.33 349.667 1201.33 405 1210 465 c 1
 1212 504 l 1
 905 504 l 1
 905 684 l 1
 1404 684 l 1
EndSplineSet
EndChar
StartChar: H
Encoding: 72 72 44
Width: 1479
Flags: W
Fore
164 0 m 1
 164 1450 l 1
 344 1450 l 1
 344 848 l 1
 1134 848 l 1
 1134 1450 l 1
 1314 1450 l 1
 1314 0 l 1
 1134 0 l 1
 1134 668 l 1
 344 668 l 1
 344 0 l 1
 164 0 l 1
EndSplineSet
EndChar
StartChar: I
Encoding: 73 73 45
Width: 650
Flags: W
Fore
625 160 m 1
 625 0 l 1
 25 0 l 1
 25 160 l 1
 235 160 l 1
 235 1290 l 1
 25 1290 l 1
 25 1450 l 1
 625 1450 l 1
 625 1290 l 1
 415 1290 l 1
 415 160 l 1
 625 160 l 1
EndSplineSet
EndChar
StartChar: J
Encoding: 74 74 46
Width: 1024
Flags: W
Fore
865 1450 m 1
 865 456 l 2
 865 331.333 847 236.667 811 172 c 0
 803 157.333 793.667 143 783 129 c 0
 719.667 47 629.667 1.33333 513 -8 c 1
 463 -10 l 1
 338.333 -10 241.667 24 173 92 c 0
 164.333 100 156 108.667 148 118 c 0
 98.6667 176 71.3333 263.667 66 381 c 0
 64.6667 402.333 64 427 64 455 c 1
 244 455 l 1
 247 378 l 1
 251.667 322.667 266.333 278.667 291 246 c 0
 329 195.333 386 170 462 170 c 0
 520 170 566 183 600 209 c 0
 614.667 220.333 629.667 234.667 645 252 c 0
 670.333 281.333 683.667 333.333 685 408 c 0
 685 421 685 421 685 471 c 2
 685 1280 l 1
 408 1280 l 1
 408 1450 l 1
 865 1450 l 1
EndSplineSet
EndChar
StartChar: K
Encoding: 75 75 47
Width: 1366
Flags: W
Fore
150 0 m 1
 150 1450 l 1
 330 1450 l 1
 330 785 l 1
 1072 1450 l 1
 1316 1450 l 1
 610 806 l 1
 1346 0 l 1
 1113 0 l 1
 479 670 l 1
 330 539 l 1
 330 0 l 1
 150 0 l 1
EndSplineSet
EndChar
StartChar: L
Encoding: 76 76 48
Width: 1139
Flags: W
Fore
150 0 m 1
 150 1450 l 1
 330 1450 l 1
 330 170 l 1
 1060 170 l 1
 1060 0 l 1
 150 0 l 1
EndSplineSet
KernsSLIF: 121 -76 0 0 89 -152 0 0 87 -152 0 0 86 -152 0 0 84 -152 0 0
EndChar
StartChar: M
Encoding: 77 77 49
Width: 1706
Flags: W
Fore
152 0 m 1
 152 1450 l 1
 332 1450 l 1
 851 133 l 1
 1370 1450 l 1
 1550 1450 l 1
 1550 0 l 1
 1370 0 l 1
 1370 964 l 1
 996 0 l 1
 706 0 l 1
 332 964 l 1
 332 0 l 1
 152 0 l 1
EndSplineSet
EndChar
StartChar: N
Encoding: 78 78 50
Width: 1479
Flags: W
Fore
156 0 m 1
 156 1450 l 1
 336 1450 l 1
 1131 315 l 1
 1131 1450 l 1
 1311 1450 l 1
 1311 0 l 1
 1131 0 l 1
 336 1136 l 1
 336 0 l 1
 156 0 l 1
EndSplineSet
EndChar
StartChar: O
Encoding: 79 79 51
Width: 1593
Flags: W
Fore
104 714 m 0
 104 949.333 165.333 1135 288 1271 c 1
 415.333 1407 586.333 1476 801 1478 c 1
 1000.33 1478 1162.33 1416.33 1287 1293 c 0
 1405.67 1175.67 1474 1019.67 1492 825 c 0
 1494.67 794.333 1496 763 1496 731 c 0
 1496 524.333 1440.33 354.333 1329 221 c 0
 1222.33 93 1079.67 18 901 -4 c 0
 868.333 -8 834.667 -10 800 -10 c 0
 610 -10 452 48.3333 326 165 c 0
 210.667 271.667 140 410 114 580 c 0
 107.333 624 104 668.667 104 714 c 0
304 711 m 0
 304 527.667 356 387.667 460 291 c 0
 546 210.333 659 170 799 170 c 0
 977.667 170 1110.33 232.667 1197 358 c 0
 1263 453.333 1296 578 1296 732 c 0
 1296 926.667 1243.67 1074.33 1139 1175 c 0
 1053.67 1257 941.333 1298 802 1298 c 0
 578.667 1298 429.667 1205.67 355 1021 c 0
 321 935.667 304 832.333 304 711 c 0
EndSplineSet
EndChar
StartChar: P
Encoding: 80 80 52
Width: 1366
Flags: W
Fore
158 0 m 1
 158 1450 l 1
 711 1450 l 2
 845.667 1450 943.667 1440.33 1005 1421 c 0
 1043.67 1409 1080.33 1391.33 1115 1368 c 0
 1181 1322 1227.67 1255.33 1255 1168 c 0
 1269.67 1122.67 1277 1075.33 1277 1026 c 0
 1277 901.333 1237.33 796 1158 710 c 0
 1078.67 623.333 935.333 580 728 580 c 2
 338 580 l 1
 338 0 l 1
 158 0 l 1
338 753 m 1
 731 753 l 2
 856.333 753 945.333 776.333 998 823 c 0
 1050.67 869.667 1077 935.333 1077 1020 c 0
 1077 1106.67 1048 1174 990 1222 c 1
 959 1243 l 1
 943 1251.67 926 1258.67 908 1264 c 0
 875.333 1272.67 815 1277 727 1277 c 2
 338 1277 l 1
 338 753 l 1
EndSplineSet
KernsSLIF: 65 -152 0 0 46 -264 0 0 44 -264 0 0
EndChar
StartChar: Q
Encoding: 81 81 53
Width: 1659
Flags: W
Fore
1194 354 m 1
 1252 426 1285.33 532.333 1294 673 c 0
 1295.33 692.333 1296 712 1296 732 c 0
 1296 926.667 1243.67 1074.33 1139 1175 c 0
 1053.67 1257 941.333 1298 802 1298 c 0
 578.667 1298 429.667 1205.67 355 1021 c 0
 321 935.667 304 832.333 304 711 c 0
 304 527 356 386.667 460 290 c 0
 485.333 266.667 513 246.667 543 230 c 1
 565 314 617 378.667 699 424 c 0
 736.333 445.333 777.333 460 822 468 c 0
 846 472.667 870.333 475 895 475 c 0
 986.333 474.333 1068.33 449 1141 399 c 0
 1161.67 385 1179.33 370 1194 354 c 1
1317 204 m 1
 1333.67 185.333 1358 175.667 1390 175 c 0
 1404 175 1419 177 1435 181 c 0
 1473.67 190.333 1506.33 206 1533 228 c 1
 1659 90 l 1
 1585 20.6667 1498.33 -14 1399 -14 c 0
 1343.67 -14 1292 -2.66667 1244 20 c 0
 1207.33 38 1178 60.6667 1156 88 c 1
 1077.33 36 993.333 5 904 -5 c 1
 820 -10 l 2
 800 -10 l 0
 610 -10 452 48.3333 326 165 c 0
 210.667 271.667 140 410 114 580 c 0
 107.333 624 104 668.667 104 714 c 0
 104 949.333 165.333 1135 288 1271 c 1
 415.333 1407 586.333 1476 801 1478 c 1
 1000.33 1478 1162.33 1416.33 1287 1293 c 0
 1405.67 1175.67 1474 1019.67 1492 825 c 0
 1494.67 794.333 1496 763 1496 731 c 0
 1496 525.667 1456.67 370.667 1378 266 c 0
 1359.33 242 1339 221.333 1317 204 c 1
1050 226 m 1
 1010 273.333 962.667 297 908 297 c 0
 897.333 297 886.667 296 876 294 c 0
 806.667 280.667 761.333 243 740 181 c 0
 739.333 178.333 738.667 176 738 174 c 1
 754.667 169.333 776.333 167 803 167 c 0
 879.667 167.667 947.333 179.333 1006 202 c 0
 1024 209.333 1038.67 217.333 1050 226 c 1
EndSplineSet
EndChar
StartChar: R
Encoding: 82 82 54
Width: 1400
Flags: W
Fore
698 580 m 1
 338 580 l 1
 338 0 l 1
 158 0 l 1
 158 1450 l 1
 711 1450 l 2
 845.667 1450 943.667 1440.33 1005 1421 c 0
 1043.67 1409 1080.33 1391.33 1115 1368 c 0
 1181 1322 1227.67 1255.33 1255 1168 c 0
 1269.67 1122.67 1277 1075.33 1277 1026 c 0
 1277 901.333 1237.33 796 1158 710 c 0
 1106.67 654 1028.67 616 924 596 c 1
 1387 0 l 1
 1107 0 l 1
 698 580 l 1
338 753 m 1
 731 753 l 2
 856.333 753 945.333 776.333 998 823 c 0
 1050.67 869.667 1077 935.333 1077 1020 c 0
 1077 1106.67 1048 1174 990 1222 c 1
 959 1243 l 1
 943 1251.67 926 1258.67 908 1264 c 0
 875.333 1272.67 815 1277 727 1277 c 2
 338 1277 l 1
 338 753 l 1
EndSplineSet
KernsSLIF: 89 -37 0 0 87 -37 0 0 86 -37 0 0 84 -37 0 0
EndChar
StartChar: S
Encoding: 83 83 55
Width: 1366
Flags: W
Fore
92 502 m 1
 275 502 l 1
 293.667 346 372.667 243.333 512 194 c 0
 568.667 174 634 164 708 164 c 0
 828.667 164 923 191 991 245 c 0
 1045 289 1072 345 1072 413 c 0
 1072 495.667 1030 555.333 946 592 c 0
 921.333 602.667 891 612.667 855 622 c 1
 639 666 l 1
 486.333 703.333 376.667 741.667 310 781 c 0
 208.667 841 155 927.667 149 1041 c 0
 148.333 1049.67 148 1058.33 148 1067 c 0
 148 1193 199.667 1293 303 1367 c 0
 398.333 1436.33 518.667 1471 664 1471 c 0
 825.333 1471 957.333 1428 1060 1342 c 0
 1080 1325.33 1098.33 1307 1115 1287 c 1
 1146 1245 l 1
 1178.67 1195 1199.67 1139.33 1209 1078 c 1
 1215 1019 l 1
 1029 1019 l 1
 1017.67 1115 974 1188.67 898 1240 c 0
 837.333 1280 762 1300 672 1300 c 0
 531.333 1300 433.333 1267.33 378 1202 c 0
 349.333 1168 335 1127.33 335 1080 c 0
 335 1008.67 369.667 956.333 439 923 c 0
 473.667 906.333 541 887 641 865 c 0
 659 861 673.333 858 684 856 c 0
 842.667 820 951 790.667 1009 768 c 0
 1115.67 727.333 1187.33 670.667 1224 598 c 0
 1247.33 551.333 1259 495 1259 429 c 0
 1259 302.333 1209 198.333 1109 117 c 0
 1015.67 40.3333 897.667 -1.66667 755 -9 c 0
 742.333 -9.66667 729.667 -10 717 -10 c 0
 477 -10 304 55.3333 198 186 c 0
 130.667 268.667 95.3333 374 92 502 c 1
EndSplineSet
EndChar
StartChar: T
Encoding: 84 84 56
Width: 1251
Flags: W
Fore
538 0 m 1
 538 1280 l 1
 48 1280 l 1
 48 1450 l 1
 1210 1450 l 1
 1210 1280 l 1
 718 1280 l 1
 718 0 l 1
 538 0 l 1
EndSplineSet
KernsSLIF: 121 -113 0 0 119 -113 0 0 117 -76 0 0 115 -227 0 0 114 -76 0 0 111 -227 0 0 105 -76 0 0 101 -227 0 0 99 -227 0 0 97 -227 0 0 79 -37 0 0 65 -152 0 0 59 -227 0 0 58 -227 0 0 46 -227 0 0 45 -113 0 0 44 -227 0 0
EndChar
StartChar: U
Encoding: 85 85 57
Width: 1479
Flags: W
Fore
1134 1450 m 1
 1314 1450 l 1
 1314 567 l 2
 1314 182.333 1123 -10 741 -10 c 0
 391 -10 199.333 146.667 166 460 c 0
 162.667 494 161 529.667 161 567 c 2
 161 1450 l 1
 341 1450 l 1
 341 568 l 2
 341 349.333 432 220.667 614 182 c 0
 651.333 174 692.333 170 737 170 c 0
 917.667 170 1035.67 226 1091 338 c 0
 1119.67 395.333 1134 472 1134 568 c 2
 1134 1450 l 1
EndSplineSet
EndChar
StartChar: V
Encoding: 86 86 58
Width: 1366
Flags: W
Fore
577 0 m 1
 9 1450 l 1
 219 1450 l 1
 677 279 l 1
 1152 1450 l 1
 1350 1450 l 1
 776 0 l 1
 577 0 l 1
EndSplineSet
KernsSLIF: 121 -76 0 0 117 -76 0 0 114 -76 0 0 111 -113 0 0 105 -37 0 0 101 -113 0 0 97 -152 0 0 65 -152 0 0 59 -76 0 0 58 -76 0 0 46 -188 0 0 45 -113 0 0 44 -188 0 0
EndChar
StartChar: W
Encoding: 87 87 59
Width: 1933
Flags: W
Fore
414 0 m 1
 25 1450 l 1
 224 1450 l 1
 513 390 l 1
 834 1450 l 1
 1088 1450 l 1
 1409 390 l 1
 1698 1450 l 1
 1897 1450 l 1
 1508 0 l 1
 1310 0 l 1
 961 1170 l 1
 612 0 l 1
 414 0 l 1
EndSplineSet
KernsSLIF: 121 -18 0 0 117 -37 0 0 114 -37 0 0 111 -37 0 0 101 -37 0 0 97 -76 0 0 65 -76 0 0 59 -37 0 0 58 -37 0 0 46 -113 0 0 45 -37 0 0 44 -113 0 0
EndChar
StartChar: X
Encoding: 88 88 60
Width: 1366
Flags: W
Fore
9 0 m 1
 564 756 l 1
 76 1450 l 1
 306 1450 l 1
 681 902 l 1
 1083 1450 l 1
 1313 1450 l 1
 798 756 l 1
 1353 0 l 1
 1123 0 l 1
 681 613 l 1
 239 0 l 1
 9 0 l 1
EndSplineSet
EndChar
StartChar: Y
Encoding: 89 89 61
Width: 1366
Flags: W
Fore
571 0 m 1
 571 621 l 1
 6 1451 l 1
 236 1451 l 1
 680 855 l 1
 1120 1451 l 1
 1350 1451 l 1
 765 621 l 1
 765 0 l 1
 571 0 l 1
EndSplineSet
KernsSLIF: 118 -113 0 0 117 -113 0 0 113 -188 0 0 112 -152 0 0 111 -188 0 0 105 -76 0 0 101 -188 0 0 97 -152 0 0 65 -152 0 0 59 -133 0 0 58 -113 0 0 46 -264 0 0 45 -188 0 0 44 -264 0 0
EndChar
StartChar: Z
Encoding: 90 90 62
Width: 1251
Flags: W
Fore
41 0 m 1
 41 187 l 1
 945 1270 l 1
 45 1270 l 1
 45 1450 l 1
 1213 1450 l 1
 1213 1270 l 1
 325 180 l 1
 1200 180 l 1
 1200 0 l 1
 41 0 l 1
EndSplineSet
EndChar
StartChar: bracketleft
Encoding: 91 91 63
Width: 569
Flags: W
Fore
139 -407 m 1
 139 1466 l 1
 536 1466 l 1
 536 1317 l 1
 319 1317 l 1
 319 -258 l 1
 536 -258 l 1
 536 -407 l 1
 139 -407 l 1
EndSplineSet
EndChar
StartChar: backslash
Encoding: 92 92 64
Width: 569
Flags: W
Fore
425 -25 m 1
 0 1491 l 1
 145 1491 l 1
 569 -25 l 1
 425 -25 l 1
EndSplineSet
EndChar
StartChar: bracketright
Encoding: 93 93 65
Width: 569
Flags: W
Fore
436 -407 m 1
 39 -407 l 1
 39 -258 l 1
 256 -258 l 1
 256 1317 l 1
 39 1317 l 1
 39 1466 l 1
 436 1466 l 1
 436 -407 l 1
EndSplineSet
EndChar
StartChar: asciicircum
Encoding: 94 94 66
Width: 961
Flags: W
Fore
239 690 m 1
 54 690 l 1
 407 1491 l 1
 552 1491 l 1
 907 690 l 1
 726 690 l 1
 479 1287 l 1
 239 690 l 1
EndSplineSet
EndChar
StartChar: underscore
Encoding: 95 95 67
Width: 1139
Flags: W
Fore
-31 -407 m 1
 -31 -277 l 1
 1162 -277 l 1
 1162 -407 l 1
 -31 -407 l 1
EndSplineSet
EndChar
StartChar: grave
Encoding: 96 96 68
Width: 682
Flags: W
Fore
465 1194 m 1
 320 1194 l 1
 89 1474 l 1
 330 1474 l 1
 465 1194 l 1
EndSplineSet
EndChar
StartChar: a
Encoding: 97 97 69
Width: 1139
Flags: W
Fore
828 131 m 1
 761.333 74.3333 697.333 34.3333 636 11 c 0
 574 -12.3333 507.667 -24 437 -24 c 0
 320.333 -24 230.667 4.66667 168 62 c 0
 105.333 118.667 74 191.333 74 280 c 0
 74 332 86 379.333 110 422 c 0
 133.333 465.333 164 500 202 526 c 0
 240.667 552 284 571.667 332 585 c 0
 367.333 594.333 420.667 603.333 492 612 c 0
 637.333 629.333 744.333 650 813 674 c 1
 813.667 698.667 814 714.333 814 721 c 0
 814 794.333 797 846 763 876 c 0
 717 916.667 648.667 937 558 937 c 0
 473.333 937 410.667 922 370 892 c 0
 330 862.667 300.333 810.333 281 735 c 1
 105 759 l 1
 121 834.333 147.333 895.333 184 942 c 0
 220.667 988 273.667 1023.33 343 1048 c 0
 412.333 1073.33 492.667 1086 584 1086 c 0
 674.667 1086 748.333 1075.33 805 1054 c 0
 861.667 1032.67 903.333 1006 930 974 c 0
 956.667 941.333 975.333 900.333 986 851 c 0
 992 820.333 995 765 995 685 c 2
 995 445 l 2
 995 277.667 998.667 172 1006 128 c 0
 1014 83.3333 1029.33 40.6667 1052 0 c 1
 864 0 l 1
 845.333 37.3333 833.333 81 828 131 c 1
813 533 m 1
 747.667 506.333 649.667 483.667 519 465 c 0
 445 454.333 392.667 442.333 362 429 c 0
 331.333 415.667 307.667 396 291 370 c 0
 274.333 344.667 266 316.333 266 285 c 0
 266 237 284 197 320 165 c 0
 356.667 133 410 117 480 117 c 0
 549.333 117 611 132 665 162 c 0
 719 192.667 758.667 234.333 784 287 c 0
 803.333 327.667 813 387.667 813 467 c 2
 813 533 l 1
EndSplineSet
EndChar
StartChar: b
Encoding: 98 98 70
Width: 1139
Flags: W
Fore
301 0 m 1
 134 0 l 1
 134 1466 l 1
 314 1466 l 1
 314 943 l 1
 390 1038.33 487 1086 605 1086 c 0
 747 1086 859.333 1032 942 924 c 0
 1017.33 824.667 1055 699 1055 547 c 0
 1055 371.667 1010.33 233 921 131 c 0
 839 37 730.667 -10 596 -10 c 0
 490 -10 402.667 21.3333 334 84 c 0
 322 94.6667 311 106.333 301 119 c 1
 301 0 l 1
312 539 m 0
 312 385 350.333 274 427 206 c 0
 470.333 168 521.667 149 581 149 c 0
 685.667 149.667 765.333 192.667 820 278 c 0
 862 344.667 883 429.333 883 532 c 0
 883 681.333 844.667 789.667 768 857 c 0
 720 899.667 660.333 921 589 921 c 0
 517 921 454.667 888.667 402 824 c 0
 342 750 312 655 312 539 c 0
EndSplineSet
EndChar
StartChar: c
Encoding: 99 99 71
Width: 1024
Flags: W
Fore
828 403 m 1
 1005 403 l 1
 999.667 243.667 941 128.667 829 58 c 0
 757 12.6667 668.333 -10 563 -10 c 0
 437 -10 329.667 31 241 113 c 0
 143 205 89.6667 329 81 485 c 0
 80.3333 499 80 513 80 527 c 0
 80 714.333 129.333 858 228 958 c 0
 312.667 1043.33 424.667 1086 564 1086 c 0
 729.333 1086 849.667 1036 925 936 c 0
 969 878 994.667 805.667 1002 719 c 0
 1002.67 711.667 1003 704 1003 696 c 1
 828 696 l 1
 821.333 764.667 789.333 820.667 732 864 c 0
 685.333 898.667 631.667 916 571 916 c 0
 381 916 279.333 805 266 583 c 1
 265 532 l 1
 265 385.333 306 280 388 216 c 0
 435.333 178.667 493 160 561 160 c 0
 690.333 160.667 773.333 207.333 810 300 c 0
 821.333 330 827.333 364.333 828 403 c 1
EndSplineSet
EndChar
StartChar: d
Encoding: 100 100 72
Width: 1139
Flags: W
Fore
824 0 m 1
 824 122 l 1
 764 34 665 -10 527 -10 c 0
 390.333 -10 280 40.6667 196 142 c 0
 116 238 74 361 70 511 c 0
 70 521 70 521 70 530 c 0
 70 696.667 110.333 831 191 933 c 0
 271.667 1035 381 1086 519 1086 c 0
 648.333 1086 744.333 1045.67 807 965 c 2
 812 958 l 1
 812 1466 l 1
 991 1466 l 1
 991 0 l 1
 824 0 l 1
255 530 m 0
 255 378 294 269 372 203 c 0
 418.667 163.667 476 144 544 144 c 0
 603.333 144 658.667 170.667 710 224 c 0
 776.667 293.333 812.333 384 817 496 c 0
 817 505 817 505 817 515 c 0
 817 656.333 783.333 764 716 838 c 0
 668.667 890.667 611.333 917 544 917 c 0
 423.333 917 339.667 861.333 293 750 c 0
 267.667 690 255 616.667 255 530 c 0
EndSplineSet
EndChar
StartChar: e
Encoding: 101 101 73
Width: 1139
Flags: W
Fore
862 333 m 1
 1048 333 l 1
 1024.67 213.667 963 123.333 863 62 c 0
 797 21.3333 719.667 -2 631 -8 c 0
 614.333 -9.33333 597.667 -10 581 -10 c 0
 393.667 -10 256.333 52.3333 169 177 c 0
 106.333 265.667 75 380.667 75 522 c 0
 75 705.333 124 847.667 222 949 c 0
 309.333 1040.33 425.667 1086 571 1086 c 0
 737.667 1086 863.667 1026 949 906 c 0
 1018.33 808 1053.33 679.333 1054 520 c 0
 1054 508 1053.67 496.333 1053 485 c 1
 267 485 l 1
 271 311.667 337.667 205.667 467 167 c 0
 501.667 157 540 152 582 152 c 0
 722 152 812.667 205 854 311 c 0
 862 333 l 1
271 649 m 1
 862 649 l 1
 849.333 789.667 783.667 874.667 665 904 c 0
 637 910.667 606.333 914 573 914 c 0
 490.333 914 420 889 362 839 c 0
 306.667 790.333 276.333 727 271 649 c 1
EndSplineSet
EndChar
StartChar: f
Encoding: 102 102 74
Width: 569
Flags: W
Fore
178 0 m 1
 178 785 l 1
 19 785 l 1
 19 925 l 1
 178 925 l 1
 178 1175 l 2
 178 1318.33 226 1418 322 1474 c 0
 369.333 1501.33 424.333 1515 487 1515 c 0
 537.667 1515 588.667 1506 640 1488 c 1
 640 1316 l 1
 585.333 1334 539 1343 501 1343 c 0
 478.333 1343.67 458.333 1340.67 441 1334 c 0
 385 1312 357 1254 357 1160 c 2
 357 925 l 1
 536 925 l 1
 536 785 l 1
 357 785 l 1
 357 0 l 1
 178 0 l 1
EndSplineSet
KernsSLIF: 102 -37 0 0
EndChar
StartChar: g
Encoding: 103 103 75
Width: 1139
Flags: W
Fore
102 -74 m 1
 277 -74 l 1
 280 -115 l 1
 293.333 -186.333 341 -233.333 423 -256 c 0
 453 -264 485.667 -268 521 -268 c 0
 641.667 -268 724 -227.333 768 -146 c 0
 802 -84 819 9.33333 819 134 c 0
 819 136 819 136 819 139 c 1
 740.333 46.3333 642.333 3.46945e-18 525 0 c 0
 379 0 264 54.3333 180 163 c 0
 104 261 66 385.667 66 537 c 0
 66 695 105.333 824.333 184 925 c 0
 267.333 1032.33 381.333 1086 526 1086 c 0
 666.667 1086 770 1048.67 836 974 c 1
 836 1062 l 1
 1002 1062 l 1
 1002 144 l 2
 1002 -65.3333 967.333 -213.667 898 -301 c 0
 855.333 -355 795 -392.333 717 -413 c 0
 663.667 -427.667 598.667 -435 522 -435 c 1
 454 -431 l 1
 328.667 -417.667 234.333 -369.667 171 -287 c 0
 126.333 -227.667 103.333 -156.667 102 -74 c 1
251 550 m 0
 251 332.667 325 209.667 473 181 c 0
 494.333 177 517.333 175 542 175 c 0
 728.667 175 822 298 822 544 c 0
 822 711.333 775.667 823.333 683 880 c 0
 643 904.667 595 917 539 917 c 0
 427.667 917 347.333 869.333 298 774 c 0
 266.667 714 251 639.333 251 550 c 0
EndSplineSet
EndChar
StartChar: h
Encoding: 104 104 76
Width: 1139
Flags: W
Fore
135 0 m 1
 135 1466 l 1
 315 1466 l 1
 315 970 l 1
 357.667 1026 419.667 1063.67 501 1083 c 0
 533 1091 566 1095 600 1095 c 0
 751.333 1095 861.667 1041.67 931 935 c 0
 977 864.333 1000 777 1000 673 c 2
 1000 0 l 1
 820 0 l 1
 820 624 l 2
 820 796 745.333 882 596 882 c 0
 458.667 882 371.333 817 334 687 c 0
 321.333 642.333 315 590.667 315 532 c 2
 315 0 l 1
 135 0 l 1
EndSplineSet
EndChar
StartChar: i
Encoding: 105 105 77
Width: 455
Flags: W
Fore
136 1259 m 1
 136 1466 l 1
 316 1466 l 1
 316 1259 l 1
 136 1259 l 1
136 0 m 1
 136 1062 l 1
 316 1062 l 1
 316 0 l 1
 136 0 l 1
EndSplineSet
EndChar
StartChar: j
Encoding: 106 106 78
Width: 455
Flags: W
Fore
134 1257 m 1
 134 1466 l 1
 314 1466 l 1
 314 1257 l 1
 134 1257 l 1
-94 -412 m 1
 -94 -259 l 1
 -59.3333 -264.333 -30.3333 -267 -7 -267 c 0
 52.3333 -267 91.6667 -246.667 111 -206 c 0
 126.333 -174 134 -123.333 134 -54 c 2
 134 1062 l 1
 314 1062 l 1
 314 -58 l 2
 314 -246 262.667 -362 160 -406 c 0
 125.333 -420.667 85 -428 39 -428 c 0
 -1 -428 -45.3333 -422.667 -94 -412 c 1
EndSplineSet
EndChar
StartChar: k
Encoding: 107 107 79
Width: 1024
Flags: W
Fore
136 0 m 1
 136 1466 l 1
 316 1466 l 1
 316 630 l 1
 742 1062 l 1
 975 1062 l 1
 569 668 l 1
 1016 0 l 1
 794 0 l 1
 443 543 l 1
 316 421 l 1
 316 0 l 1
 136 0 l 1
EndSplineSet
EndChar
StartChar: l
Encoding: 108 108 80
Width: 455
Flags: W
Fore
131 0 m 1
 131 1466 l 1
 311 1466 l 1
 311 0 l 1
 131 0 l 1
EndSplineSet
EndChar
StartChar: m
Encoding: 109 109 81
Width: 1706
Flags: W
Fore
135 0 m 1
 135 1062 l 1
 296 1062 l 1
 296 913 l 1
 329.333 965 373.667 1006.67 429 1038 c 0
 484.333 1070 547.333 1086 618 1086 c 0
 696.667 1086 761.333 1069.67 812 1037 c 0
 862 1004.33 897.333 958.667 918 900 c 1
 1002 1024 1111.33 1086 1246 1086 c 0
 1351.33 1086 1432.33 1056.67 1489 998 c 0
 1545.67 940 1574 850.333 1574 729 c 2
 1574 0 l 1
 1395 0 l 1
 1395 669 l 2
 1395 741 1389.33 792.667 1378 824 c 0
 1366 856 1344.67 881.667 1314 901 c 0
 1283.33 920.333 1247.33 930 1206 930 c 0
 1131.33 930 1069.33 905.333 1020 856 c 0
 970.667 806 946 726.333 946 617 c 2
 946 0 l 1
 766 0 l 1
 766 690 l 2
 766 770 751.333 830 722 870 c 0
 692.667 910 644.667 930 578 930 c 0
 527.333 930 480.667 916.667 438 890 c 0
 394.667 863.333 363.333 824.333 344 773 c 0
 324.667 721.667 315 647.667 315 551 c 2
 315 0 l 1
 135 0 l 1
EndSplineSet
EndChar
StartChar: n
Encoding: 110 110 82
Width: 1139
Flags: W
Fore
135 0 m 1
 135 1064 l 1
 315 1064 l 1
 315 970 l 1
 357.667 1026 419.667 1063.67 501 1083 c 0
 533 1091 566 1095 600 1095 c 0
 751.333 1095 861.667 1041.67 931 935 c 0
 977 864.333 1000 777 1000 673 c 2
 1000 0 l 1
 820 0 l 1
 820 624 l 2
 820 796 745.333 882 596 882 c 0
 458.667 882 371.333 817 334 687 c 0
 321.333 642.333 315 590.667 315 532 c 2
 315 0 l 1
 135 0 l 1
EndSplineSet
EndChar
StartChar: o
Encoding: 111 111 83
Width: 1139
Flags: W
Fore
68 531 m 0
 68 721 120.667 865.333 226 964 c 0
 312.667 1045.33 426 1086 566 1086 c 0
 722 1086 845 1034.67 935 932 c 0
 1020.33 834.667 1063 706 1063 546 c 0
 1063 305.333 988.333 141.333 839 54 c 0
 764.333 10.6667 673.333 -11 566 -11 c 0
 386.667 -11 253.333 49.6667 166 171 c 0
 100.667 263 68 383 68 531 c 0
253 531 m 0
 253 357 304.667 241.333 408 184 c 0
 452.667 159.333 505.333 147 566 147 c 0
 702.667 147 795.333 207.667 844 329 c 0
 866.667 386.333 878 455.667 878 537 c 0
 878 685.667 838 794 758 862 c 0
 706.667 906 642.667 928 566 928 c 0
 442.667 928 354.333 875.333 301 770 c 0
 269 706 253 626.333 253 531 c 0
EndSplineSet
EndChar
StartChar: p
Encoding: 112 112 84
Width: 1139
Flags: W
Fore
289 957 m 1
 299 969.667 310 981.333 322 992 c 0
 390.667 1054.67 478 1086 584 1086 c 0
 718.667 1086 827 1039 909 945 c 0
 998.333 843 1043 704.333 1043 529 c 0
 1043 377 1005.33 251.333 930 152 c 0
 847.333 44 735 -10 593 -10 c 0
 475 -10 378 37.6667 302 133 c 1
 302 -390 l 1
 122 -390 l 1
 122 1076 l 1
 289 1076 l 1
 289 957 l 1
300 537 m 0
 300 421 330 326 390 252 c 0
 442.667 187.333 505 155 577 155 c 0
 648.333 155 708 176.333 756 219 c 0
 832.667 286.333 871 394.667 871 544 c 0
 871 561.333 870.333 578.333 869 595 c 0
 864.333 655 851.667 708.333 831 755 c 1
 808 798 l 1
 753.333 883.333 673.667 926.333 569 927 c 0
 509.667 927 458.333 908 415 870 c 0
 338.333 802 300 691 300 537 c 0
EndSplineSet
EndChar
StartChar: q
Encoding: 113 113 85
Width: 1139
Flags: W
Fore
841 1076 m 1
 1008 1076 l 1
 1008 -390 l 1
 828 -390 l 1
 828 133 l 1
 752 37.6667 655 -10 537 -10 c 0
 395 -10 282.667 44 200 152 c 0
 124.667 251.333 87 377 87 529 c 0
 87 704.333 131.667 843 221 945 c 0
 303 1039 411.333 1086 546 1086 c 0
 652 1086 739.333 1054.67 808 992 c 0
 820 981.333 831 969.667 841 957 c 1
 841 1076 l 1
830 537 m 0
 830 691 791.667 802 715 870 c 0
 671.667 908 620.333 927 561 927 c 0
 456.333 926.333 376.667 883.333 322 798 c 1
 299 755 l 1
 278.333 708.333 265.667 655 261 595 c 0
 259.667 578.333 259 561.333 259 544 c 0
 259 394.667 297.333 286.333 374 219 c 0
 422 176.333 481.667 155 553 155 c 0
 625 155 687.333 187.333 740 252 c 0
 800 326 830 421 830 537 c 0
EndSplineSet
EndChar
StartChar: r
Encoding: 114 114 86
Width: 682
Flags: W
Fore
133 0 m 1
 133 1062 l 1
 295 1062 l 1
 295 947 l 1
 318.333 991.667 358.667 1026.67 416 1052 c 0
 423.333 1054.67 431.667 1058 441 1062 c 0
 467 1072 497.667 1077 533 1077 c 0
 597.667 1077 656.667 1060.67 710 1028 c 1
 648 861 l 1
 604 887 560.667 900 518 900 c 0
 495.333 900 474 896.333 454 889 c 0
 438.667 883 424 874.667 410 864 c 0
 345.333 815.333 313 712.667 313 556 c 2
 313 0 l 1
 133 0 l 1
EndSplineSet
KernsSLIF: 46 -113 0 0 44 -113 0 0
EndChar
StartChar: s
Encoding: 115 115 87
Width: 1024
Flags: W
Fore
63 358 m 1
 241 358 l 1
 257 242.667 322.667 175.667 438 157 c 0
 462 153 488 151 516 151 c 0
 600.667 151 667 172 715 214 c 0
 745 240.667 760 271.333 760 306 c 0
 758.667 364 723.667 405.667 655 431 c 0
 627 441.667 583 452.333 523 463 c 0
 400.333 485.667 319 504.667 279 520 c 0
 214.333 544 165.333 583.333 132 638 c 0
 106 680.667 93 728 93 780 c 0
 93 884 138.333 964.333 229 1021 c 0
 299.667 1064.33 384.667 1086 484 1086 c 0
 650 1086 768.333 1040.33 839 949 c 0
 875.667 902.333 897.333 845.667 904 779 c 0
 904.667 773.667 905 768.667 905 764 c 1
 729 764 l 1
 714.333 862.667 649 916 533 924 c 1
 497 925 l 2
 405.667 925 341.333 902 304 856 c 1
 289 833 l 1
 281 807 l 1
 279 778 l 1
 280.333 764.667 283.667 751.333 289 738 c 0
 301 708.667 331.667 687 381 673 c 0
 402.333 667 447.667 657.333 517 644 c 0
 643.667 620 732 597 782 575 c 0
 868 537.667 919.667 479.333 937 400 c 0
 942.333 377.333 945 352.333 945 325 c 0
 945 219.667 900.333 135.667 811 73 c 0
 731.667 17 633.667 -11 517 -11 c 0
 346.333 -11 221.333 38.6667 142 138 c 0
 95.3333 197.333 69 270.667 63 358 c 1
EndSplineSet
EndChar
StartChar: t
Encoding: 116 116 88
Width: 569
Flags: W
Fore
528 161 m 1
 554 2 l 1
 506 -8 458.333 -13 411 -13 c 0
 345 -13 296.667 -3 266 17 c 0
 224.667 44.3333 197.333 82 184 130 c 0
 173.333 170 168 230.333 168 311 c 2
 168 922 l 1
 18 922 l 1
 18 1062 l 1
 168 1062 l 1
 168 1433 l 1
 347 1433 l 1
 347 1062 l 1
 497 1062 l 1
 497 922 l 1
 347 922 l 1
 347 301 l 2
 347 245 351 209.333 359 194 c 0
 365 184 374.667 175 388 167 c 0
 402.667 157.667 423 153 449 153 c 0
 465.667 153 492 155.667 528 161 c 1
EndSplineSet
EndChar
StartChar: u
Encoding: 117 117 89
Width: 1139
Flags: W
Fore
969 1085 m 1
 969 0 l 1
 789 0 l 1
 789 64 l 1
 746.333 17.3333 666 -7.33333 548 -10 c 0
 542 -10 542 -10 537 -10 c 2
 467 -7 l 1
 323 8.33333 220.333 71 159 181 c 0
 122.333 246.333 104 323.333 104 412 c 2
 104 1085 l 1
 284 1085 l 1
 284 461 l 2
 284 349.667 323 273 401 231 c 0
 438.333 211 482.667 201 534 201 c 0
 704 201 789 286 789 456 c 2
 789 1085 l 1
 969 1085 l 1
EndSplineSet
EndChar
StartChar: v
Encoding: 118 118 90
Width: 1024
Flags: W
Fore
429 0 m 1
 26 1062 l 1
 216 1062 l 1
 520 269 l 1
 810 1062 l 1
 1000 1062 l 1
 599 0 l 1
 429 0 l 1
EndSplineSet
KernsSLIF: 46 -152 0 0 44 -152 0 0
EndChar
StartChar: w
Encoding: 119 119 91
Width: 1479
Flags: W
Fore
331 0 m 1
 6 1062 l 1
 192 1062 l 1
 424 246 l 1
 648 1062 l 1
 832 1062 l 1
 1069 246 l 1
 1288 1062 l 1
 1463 1062 l 1
 1163 0 l 1
 975 0 l 1
 901 265 l 1
 797.667 623 744 807 740 817 c 1
 519 0 l 1
 331 0 l 1
EndSplineSet
KernsSLIF: 46 -113 0 0 44 -113 0 0
EndChar
StartChar: x
Encoding: 120 120 92
Width: 1024
Flags: W
Fore
15 0 m 1
 396 552 l 1
 44 1062 l 1
 269 1062 l 1
 499 694 l 1
 766 1062 l 1
 981 1062 l 1
 607 562 l 1
 1009 0 l 1
 788 0 l 1
 505 419 l 1
 233 0 l 1
 15 0 l 1
EndSplineSet
EndChar
StartChar: y
Encoding: 121 121 93
Width: 1024
Flags: W
Fore
127 -409 m 1
 107 -240 l 1
 141 -249.333 176.667 -254 214 -254 c 0
 261.333 -254 299 -246.333 327 -231 c 0
 367 -209 394.667 -180.667 410 -146 c 0
 424.667 -112 433.333 -64 436 -2 c 1
 33 1062 l 1
 227 1062 l 1
 525 201 l 1
 826 1062 l 1
 1006 1062 l 1
 602 -1 l 1
 586.667 -145 556.333 -245.333 511 -302 c 0
 488.333 -330.667 458 -355 420 -375 c 0
 367.333 -402.333 307 -418 239 -422 c 1
 185 -421 l 1
 163.667 -419 144.333 -415 127 -409 c 1
EndSplineSet
KernsSLIF: 46 -152 0 0 44 -152 0 0
EndChar
StartChar: z
Encoding: 122 122 94
Width: 1024
Flags: W
Fore
40 0 m 1
 40 155 l 1
 716 916 l 1
 60 916 l 1
 60 1062 l 1
 948 1062 l 1
 948 916 l 1
 262 155 l 1
 980 155 l 1
 980 0 l 1
 40 0 l 1
EndSplineSet
EndChar
StartChar: braceleft
Encoding: 123 123 95
Width: 684
Flags: W
Fore
57 612 m 1
 108.333 613.333 150 627.333 182 654 c 0
 214.667 680 236.333 716 247 762 c 0
 257.667 808 263.333 886.667 264 998 c 0
 264.667 1109.33 266.667 1182.67 270 1218 c 0
 276 1274 287.333 1319 304 1353 c 0
 320 1387 340 1414 364 1434 c 0
 388 1454.67 418.667 1470.33 456 1481 c 0
 481.333 1487.67 522.667 1491 580 1491 c 2
 636 1491 l 1
 636 1334 l 1
 605 1334 l 2
 535.667 1334 489.667 1321.33 467 1296 c 0
 444.333 1271.33 433 1215.67 433 1129 c 0
 433 954.333 429.333 844 422 798 c 0
 410 726.667 389.5 671.667 360.5 633 c 128
 331.5 594.333 286 560 224 530 c 1
 297.333 499.333 350.667 452.667 384 390 c 0
 416.667 326.667 433 223.333 433 80 c 0
 433 -50 434.333 -127.333 437 -152 c 0
 442.333 -197.333 456 -229 478 -247 c 0
 499.333 -265 541.667 -274 605 -274 c 2
 636 -274 l 1
 636 -431 l 1
 580 -431 l 2
 514.667 -431 467.333 -425.667 438 -415 c 0
 395.333 -399.667 360 -374.667 332 -340 c 0
 304 -306 286 -262.667 278 -210 c 0
 269.333 -157.333 264.667 -71 264 49 c 0
 263.333 169 257.667 252 247 298 c 0
 236.333 344 214.667 380.333 182 407 c 0
 150 433.667 108.333 447.667 57 449 c 1
 57 612 l 1
EndSplineSet
EndChar
StartChar: bar
Encoding: 124 124 96
Width: 532
Flags: W
Fore
188 -431 m 1
 188 1491 l 1
 345 1491 l 1
 345 -431 l 1
 188 -431 l 1
EndSplineSet
EndChar
StartChar: braceright
Encoding: 125 125 97
Width: 684
Flags: W
Fore
626 612 m 1
 626 449 l 1
 574.667 447.667 532.667 433.667 500 407 c 0
 468 380.333 446.667 344 436 298 c 0
 425.333 252.667 419.667 174.333 419 63 c 0
 418.333 -48.3333 416.333 -121.667 413 -157 c 0
 407 -213.667 396 -258.667 380 -292 c 0
 363.333 -326 343 -353.333 319 -374 c 0
 295 -394 264.333 -409.333 227 -420 c 0
 201.667 -427.333 160.333 -431 103 -431 c 2
 47 -431 l 1
 47 -274 l 1
 78 -274 l 2
 147.333 -274 193.333 -261.333 216 -236 c 0
 238.667 -211.333 250 -155.333 250 -68 c 0
 250 98.6667 253 204.333 259 249 c 0
 269.667 323 291 382 323 426 c 0
 355 470.667 400.333 505.333 459 530 c 1
 382.333 566.667 328.333 615.333 297 676 c 0
 265.667 736 250 837.667 250 981 c 0
 250 1111 248.333 1188.67 245 1214 c 0
 240.333 1258.67 227.333 1290 206 1308 c 0
 184 1325.33 141.333 1334 78 1334 c 2
 47 1334 l 1
 47 1491 l 1
 103 1491 l 2
 168.333 1491 215.667 1485.67 245 1475 c 0
 287.667 1460.33 323 1435.67 351 1401 c 0
 379 1366.33 397.333 1322.67 406 1270 c 0
 414 1217.33 418.333 1131 419 1011 c 0
 419.667 891 425.333 808 436 762 c 0
 446.667 716.667 468 680.667 500 654 c 0
 532.667 627.333 574.667 613.333 626 612 c 1
EndSplineSet
EndChar
StartChar: asciitilde
Encoding: 126 126 98
Width: 1196
Flags: W
Fore
87 557 m 1
 87 762 l 1
 157.667 842 250.333 882 365 882 c 0
 405 882 447 876 491 864 c 0
 535 852.667 597.667 829.667 679 795 c 0
 725 775.667 759.333 763 782 757 c 0
 805.333 751 828.667 748 852 748 c 0
 895.333 748 940 761 986 787 c 0
 1032.67 813 1074 845.667 1110 885 c 1
 1110 673 l 1
 1067.33 633 1024 604 980 586 c 0
 936.667 568 887.667 559 833 559 c 0
 793 559 754.667 563.667 718 573 c 0
 682 582.333 624.667 604.667 546 640 c 0
 466.667 675.333 400.667 693 348 693 c 0
 305.333 693 265.333 684 228 666 c 0
 190 647.333 143 611 87 557 c 1
EndSplineSet
EndChar
StartChar: uni007F
Encoding: 127 127 99
Width: 1247
Flags: W
Fore
143 928 m 0
 143 945.333 148.667 959.833 160 971.5 c 128
 171.333 983.167 185.667 989 203 989 c 0
 220.333 989 234.833 983.167 246.5 971.5 c 128
 258.167 959.833 264 945.333 264 928 c 0
 264 910.667 258.167 896.333 246.5 885 c 128
 234.833 873.667 220.333 868 203 868 c 0
 185.667 868 171.333 873.667 160 885 c 128
 148.667 896.333 143 910.667 143 928 c 0
332 1071 m 0
 332 1088.33 337.667 1102.83 349 1114.5 c 128
 360.333 1126.17 374.667 1132 392 1132 c 0
 409.333 1132 423.833 1126.17 435.5 1114.5 c 128
 447.167 1102.83 453 1088.33 453 1071 c 0
 453 1053.67 447.167 1039.33 435.5 1028 c 128
 423.833 1016.67 409.333 1011 392 1011 c 0
 374.667 1011 360.333 1016.67 349 1028 c 128
 337.667 1039.33 332 1053.67 332 1071 c 0
558 1139 m 0
 558 1156.33 563.667 1170.83 575 1182.5 c 128
 586.333 1194.17 600.667 1200 618 1200 c 0
 635.333 1200 649.833 1194.17 661.5 1182.5 c 128
 673.167 1170.83 679 1156.33 679 1139 c 0
 679 1121.67 673.167 1107.33 661.5 1096 c 128
 649.833 1084.67 635.333 1079 618 1079 c 0
 600.667 1079 586.333 1084.67 575 1096 c 128
 563.667 1107.33 558 1121.67 558 1139 c 0
22 505 m 0
 22 522.333 27.6667 536.833 39 548.5 c 128
 50.3333 560.167 64.6667 566 82 566 c 0
 99.3333 566 113.833 560.167 125.5 548.5 c 128
 137.167 536.833 143 522.333 143 505 c 0
 143 487.667 137.167 473.333 125.5 462 c 128
 113.833 450.667 99.3333 445 82 445 c 0
 64.6667 445 50.3333 450.667 39 462 c 128
 27.6667 473.333 22 487.667 22 505 c 0
143 309 m 0
 143 326.333 148.667 340.833 160 352.5 c 128
 171.333 364.167 185.667 370 203 370 c 0
 220.333 370 234.833 364.167 246.5 352.5 c 128
 258.167 340.833 264 326.333 264 309 c 0
 264 291.667 258.167 277.333 246.5 266 c 128
 234.833 254.667 220.333 249 203 249 c 0
 185.667 249 171.333 254.667 160 266 c 128
 148.667 277.333 143 291.667 143 309 c 0
286 158 m 0
 286 175.333 291.667 189.833 303 201.5 c 128
 314.333 213.167 328.667 219 346 219 c 0
 363.333 219 377.833 213.167 389.5 201.5 c 128
 401.167 189.833 407 175.333 407 158 c 0
 407 140.667 401.167 126.333 389.5 115 c 128
 377.833 103.667 363.333 98 346 98 c 0
 328.667 98 314.333 103.667 303 115 c 128
 291.667 126.333 286 140.667 286 158 c 0
551 67 m 0
 551 84.3333 556.667 98.8333 568 110.5 c 128
 579.333 122.167 593.667 128 611 128 c 0
 628.333 128 642.833 122.167 654.5 110.5 c 128
 666.167 98.8333 672 84.3333 672 67 c 0
 672 49.6667 666.167 35.3333 654.5 24 c 128
 642.833 12.6667 628.333 7 611 7 c 0
 593.667 7 579.333 12.6667 568 24 c 128
 556.667 35.3333 551 49.6667 551 67 c 0
845 128 m 0
 845 145.333 850.667 159.833 862 171.5 c 128
 873.333 183.167 887.667 189 905 189 c 0
 922.333 189 936.833 183.167 948.5 171.5 c 128
 960.167 159.833 966 145.333 966 128 c 0
 966 110.667 960.167 96.3333 948.5 85 c 128
 936.833 73.6667 922.333 68 905 68 c 0
 887.667 68 873.333 73.6667 862 85 c 128
 850.667 96.3333 845 110.667 845 128 c 0
1011 294 m 0
 1011 311.333 1016.67 325.833 1028 337.5 c 128
 1039.33 349.167 1053.67 355 1071 355 c 0
 1088.33 355 1102.83 349.167 1114.5 337.5 c 128
 1126.17 325.833 1132 311.333 1132 294 c 0
 1132 276.667 1126.17 262.333 1114.5 251 c 128
 1102.83 239.667 1088.33 234 1071 234 c 0
 1053.67 234 1039.33 239.667 1028 251 c 128
 1016.67 262.333 1011 276.667 1011 294 c 0
1086 498 m 0
 1086 515.333 1091.67 529.833 1103 541.5 c 128
 1114.33 553.167 1128.67 559 1146 559 c 0
 1163.33 559 1177.83 553.167 1189.5 541.5 c 128
 1201.17 529.833 1207 515.333 1207 498 c 0
 1207 480.667 1201.17 466.333 1189.5 455 c 128
 1177.83 443.667 1163.33 438 1146 438 c 0
 1128.67 438 1114.33 443.667 1103 455 c 128
 1091.67 466.333 1086 480.667 1086 498 c 0
1072 739 m 0
 1072 756.333 1077.67 770.833 1089 782.5 c 128
 1100.33 794.167 1114.67 800 1132 800 c 0
 1149.33 800 1163.83 794.167 1175.5 782.5 c 128
 1187.17 770.833 1193 756.333 1193 739 c 0
 1193 721.667 1187.17 707.333 1175.5 696 c 128
 1163.83 684.667 1149.33 679 1132 679 c 0
 1114.67 679 1100.33 684.667 1089 696 c 128
 1077.67 707.333 1072 721.667 1072 739 c 0
965 951 m 0
 965 968.333 970.667 982.833 982 994.5 c 128
 993.333 1006.17 1007.67 1012 1025 1012 c 0
 1042.33 1012 1056.83 1006.17 1068.5 994.5 c 128
 1080.17 982.833 1086 968.333 1086 951 c 0
 1086 933.667 1080.17 919.333 1068.5 908 c 128
 1056.83 896.667 1042.33 891 1025 891 c 0
 1007.67 891 993.333 896.667 982 908 c 128
 970.667 919.333 965 933.667 965 951 c 0
777 1094 m 0
 777 1111.33 782.667 1125.83 794 1137.5 c 128
 805.333 1149.17 819.667 1155 837 1155 c 0
 854.333 1155 868.833 1149.17 880.5 1137.5 c 128
 892.167 1125.83 898 1111.33 898 1094 c 0
 898 1076.67 892.167 1062.33 880.5 1051 c 128
 868.833 1039.67 854.333 1034 837 1034 c 0
 819.667 1034 805.333 1039.67 794 1051 c 128
 782.667 1062.33 777 1076.67 777 1094 c 0
37 739 m 0
 37 756.333 42.6667 770.833 54 782.5 c 128
 65.3333 794.167 79.6667 800 97 800 c 0
 114.333 800 128.833 794.167 140.5 782.5 c 128
 152.167 770.833 158 756.333 158 739 c 0
 158 721.667 152.167 707.333 140.5 696 c 128
 128.833 684.667 114.333 679 97 679 c 0
 79.6667 679 65.3333 684.667 54 696 c 128
 42.6667 707.333 37 721.667 37 739 c 0
EndSplineSet
EndChar
StartChar: exclamdown
Encoding: 161 161 101
Width: 680
Flags: W
Fore
442 1278 m 1
 238 1278 l 1
 238 1489 l 1
 442 1489 l 1
 442 1278 l 1
452 0 m 1
 228 0 l 1
 256 1079 l 1
 422 1079 l 1
 452 0 l 1
EndSplineSet
EndChar
StartChar: cent
Encoding: 162 162 102
Width: 1118
Flags: W
Fore
557 2 m 1
 413.667 18.6667 304 75 228 171 c 128
 152 267 114 395.667 114 557 c 0
 114 715.667 153.333 844.333 232 943 c 128
 310.667 1041.67 419 1099 557 1115 c 1
 557 1475 l 1
 671 1475 l 1
 671 1116 l 1
 729 1114 784.833 1105.17 838.5 1089.5 c 128
 892.167 1073.83 937.667 1056.33 975 1037 c 1
 975 837 l 1
 965 837 l 1
 923.667 871 879.667 900.667 833 926 c 128
 786.333 951.333 732.333 968.333 671 977 c 1
 671 141 l 1
 703.667 144.333 736.5 152 769.5 164 c 128
 802.5 176 830.333 188.667 853 202 c 0
 877 216 898.333 229.833 917 243.5 c 128
 935.667 257.167 951.667 269.667 965 281 c 1
 975 281 l 1
 975 83 l 1
 931.667 63 886.5 45.1667 839.5 29.5 c 128
 792.5 13.8333 736.333 4.33333 671 1 c 1
 671 -361 l 1
 557 -361 l 1
 557 2 l 1
557 146 m 1
 557 971 l 1
 479.667 957 418.667 915.167 374 845.5 c 128
 329.333 775.833 307 679.667 307 557 c 0
 307 431.667 329.833 335.167 375.5 267.5 c 128
 421.167 199.833 481.667 159.333 557 146 c 1
EndSplineSet
EndChar
StartChar: sterling
Encoding: 163 163 103
Width: 1118
Flags: W
Fore
1031 0 m 1
 89 0 l 1
 89 207 l 1
 163 229 215.167 271.667 245.5 335 c 128
 275.833 398.333 291 491 291 613 c 1
 130 613 l 1
 130 751 l 1
 291 751 l 1
 291 1071 l 2
 291 1205 329.667 1313 407 1395 c 128
 484.333 1477 584.667 1518 708 1518 c 0
 772.667 1518 828 1512.83 874 1502.5 c 128
 920 1492.17 962.333 1481.33 1001 1470 c 1
 1001 1264 l 1
 991 1264 l 1
 952.333 1291.33 909.333 1312.67 862 1328 c 128
 814.667 1343.33 769.667 1351 727 1351 c 0
 645 1351 583.833 1325.33 543.5 1274 c 128
 503.167 1222.67 483 1148.67 483 1052 c 2
 483 751 l 1
 847 751 l 1
 847 613 l 1
 483 613 l 1
 483 552 l 2
 483 474 463.5 403.167 424.5 339.5 c 128
 385.5 275.833 331 223.333 261 182 c 1
 261 171 l 1
 1031 171 l 1
 1031 0 l 1
EndSplineSet
EndChar
StartChar: currency
Encoding: 164 164 104
Width: 1118
Flags: W
Fore
1057 272 m 1
 951 166 l 1
 737 378 l 1
 707 360 679 346.833 653 338.5 c 128
 627 330.167 596 326 560 326 c 0
 529.333 326 498.5 331 467.5 341 c 128
 436.5 351 409 363.667 385 379 c 1
 170 164 l 1
 65 273 l 1
 277 486 l 1
 260.333 512.667 247.5 541.5 238.5 572.5 c 128
 229.5 603.5 225 633 225 661 c 0
 225 690.333 229.5 719.833 238.5 749.5 c 128
 247.5 779.167 260.667 807.667 278 835 c 1
 65 1051 l 1
 172 1157 l 1
 386 944 l 1
 410.667 960 438.333 972.667 469 982 c 128
 499.667 991.333 530 996 560 996 c 0
 594.667 996 627.167 990.833 657.5 980.5 c 128
 687.833 970.167 714 958.333 736 945 c 1
 948 1157 l 1
 1057 1052 l 1
 843 836 l 1
 861 807.333 874.333 779.667 883 753 c 128
 891.667 726.333 896 695.667 896 661 c 0
 896 631 891.167 600.5 881.5 569.5 c 128
 871.833 538.5 859 510.667 843 486 c 1
 1057 272 l 1
752 661 m 0
 752 714.333 733.167 760.5 695.5 799.5 c 128
 657.833 838.5 612.667 858 560 858 c 0
 508.667 858 463.833 838.833 425.5 800.5 c 128
 387.167 762.167 368 715.667 368 661 c 0
 368 607.667 386.833 561.5 424.5 522.5 c 128
 462.167 483.5 507.333 464 560 464 c 0
 611.333 464 656.167 483.167 694.5 521.5 c 128
 732.833 559.833 752 606.333 752 661 c 0
EndSplineSet
EndChar
StartChar: yen
Encoding: 165 165 105
Width: 1118
Flags: W
Fore
1059 1489 m 1
 651 678 l 1
 651 578 l 1
 993 578 l 1
 993 440 l 1
 653 440 l 1
 653 0 l 1
 465 0 l 1
 465 440 l 1
 125 440 l 1
 125 578 l 1
 467 578 l 1
 467 657 l 1
 56 1489 l 1
 266 1489 l 1
 560 850 l 1
 858 1489 l 1
 1059 1489 l 1
EndSplineSet
EndChar
StartChar: brokenbar
Encoding: 166 166 106
Width: 783
Flags: W
Fore
475 758 m 1
 308 758 l 1
 308 1556 l 1
 475 1556 l 1
 475 758 l 1
475 -392 m 1
 308 -392 l 1
 308 406 l 1
 475 406 l 1
 475 -392 l 1
EndSplineSet
EndChar
StartChar: section
Encoding: 167 167 107
Width: 1118
Flags: W
Fore
759 401 m 0
 775 424.333 787.5 446.833 796.5 468.5 c 128
 805.5 490.167 810 519 810 555 c 0
 810 587.667 805.167 616 795.5 640 c 128
 785.833 664 772.667 683.667 756 699 c 0
 740 714.333 721.333 727.167 700 737.5 c 128
 678.667 747.833 654 757.333 626 766 c 0
 593 776 593 776 549 788.5 c 128
 519.667 796.833 486.667 807 450 819 c 1
 436.667 811 422.833 801 408.5 789 c 128
 394.167 777 378.333 760 361 738 c 0
 347.667 720.667 335.5 697.333 324.5 668 c 128
 313.5 638.667 308 609 308 579 c 0
 308 525 320.667 482 346 450 c 128
 371.333 418 420 391 492 369 c 0
 526 359 526 359 569.5 345.5 c 128
 613 332 613 332 667 315 c 1
 679.667 323 694.333 334 711 348 c 128
 727.667 362 743.667 379.667 759 401 c 0
182 -133 m 1
 199.333 -141.667 220.833 -151.333 246.5 -162 c 128
 272.167 -172.667 297 -182 321 -190 c 0
 352.333 -200 381.333 -207.5 408 -212.5 c 128
 434.667 -217.5 468.333 -220 509 -220 c 0
 585 -220 648.5 -204.5 699.5 -173.5 c 128
 750.5 -142.5 776 -96.6667 776 -36 c 0
 776 0 769.833 29.1667 757.5 51.5 c 128
 745.167 73.8333 725.333 93.6667 698 111 c 0
 670 127.667 635.5 141.833 594.5 153.5 c 128
 533 171 533 171 460 192 c 0
 401.333 208.667 352.5 225.667 313.5 243 c 128
 274.5 260.333 239.333 283.333 208 312 c 0
 178 339.333 155.667 371 141 407 c 128
 126.333 443 119 485 119 533 c 0
 119 595.667 135.333 655.167 168 711.5 c 128
 200.667 767.833 250.667 816.667 318 858 c 1
 318 865 l 1
 257.333 898.333 213.833 938.667 187.5 986 c 128
 161.167 1033.33 148 1087 148 1147 c 0
 148 1259 190.667 1349 276 1417 c 128
 361.333 1485 478.667 1519 628 1519 c 0
 684.667 1519 737 1514.67 785 1506 c 128
 833 1497.33 886.667 1482.67 946 1462 c 1
 946 1268 l 1
 936 1268 l 1
 876 1298 820.167 1320 768.5 1334 c 128
 716.833 1348 663 1355 607 1355 c 0
 532.333 1355 469.167 1339.83 417.5 1309.5 c 128
 365.833 1279.17 340 1234.67 340 1176 c 0
 340 1138 346.833 1107 360.5 1083 c 128
 374.167 1059 394 1039.33 420 1024 c 0
 446 1008 479.167 993.667 519.5 981 c 128
 559.833 968.333 605.667 955.333 657 942 c 0
 779.667 908.667 867.167 865.833 919.5 813.5 c 128
 971.833 761.167 998 690.333 998 601 c 0
 998 529 979.833 466 943.5 412 c 128
 907.167 358 859 313 799 277 c 1
 799 270 l 1
 857 239.333 899.833 200.667 927.5 154 c 128
 955.167 107.333 969 52.6667 969 -10 c 0
 969 -59.3333 958.5 -107.667 937.5 -155 c 128
 916.5 -202.333 886.667 -242 848 -274 c 0
 806.667 -309.333 757.167 -336.667 699.5 -356 c 128
 641.833 -375.333 572 -385 490 -385 c 0
 437.333 -385 385 -380.333 333 -371 c 128
 281 -361.667 227.333 -347 172 -327 c 1
 172 -133 l 1
 182 -133 l 1
EndSplineSet
EndChar
StartChar: dieresis
Encoding: 168 168 108
Width: 1118
Flags: W
Fore
867 1304 m 1
 666 1304 l 1
 666 1499 l 1
 867 1499 l 1
 867 1304 l 1
454 1304 m 1
 253 1304 l 1
 253 1499 l 1
 454 1499 l 1
 454 1304 l 1
EndSplineSet
EndChar
StartChar: copyright
Encoding: 169 169 109
Width: 1902
Flags: W
Fore
1816 655 m 0
 1816 416.333 1731.5 212.5 1562.5 43.5 c 128
 1393.5 -125.5 1189.67 -210 951 -210 c 128
 712.333 -210 508.5 -125.5 339.5 43.5 c 128
 170.5 212.5 86 416.333 86 655 c 128
 86 893.667 170.5 1097.33 339.5 1266 c 128
 508.5 1434.67 712.333 1519 951 1519 c 128
 1189.67 1519 1393.5 1434.67 1562.5 1266 c 128
 1731.5 1097.33 1816 893.667 1816 655 c 0
1701 655 m 0
 1701 863.667 1627.83 1041.5 1481.5 1188.5 c 128
 1335.17 1335.5 1158.67 1409 952 1409 c 128
 745.333 1409 568.833 1335.5 422.5 1188.5 c 128
 276.167 1041.5 203 863.667 203 655 c 128
 203 446.333 276.167 268.333 422.5 121 c 128
 568.833 -26.3333 745.333 -100 952 -100 c 128
 1158.67 -100 1335.17 -26.3333 1481.5 121 c 128
 1627.83 268.333 1701 446.333 1701 655 c 0
1274 255 m 1
 1229.33 235 1184.67 217.5 1140 202.5 c 128
 1095.33 187.5 1042.67 180 982 180 c 0
 842.667 180 732.667 221.167 652 303.5 c 128
 571.333 385.833 531 504.667 531 660 c 0
 531 813.333 572.667 932.167 656 1016.5 c 128
 739.333 1100.83 848 1143 982 1143 c 0
 1037.33 1143 1090.33 1135.67 1141 1121 c 128
 1191.67 1106.33 1236 1089.33 1274 1070 c 1
 1274 889 l 1
 1258 889 l 1
 1229.33 914.333 1189.67 938.5 1139 961.5 c 128
 1088.33 984.5 1037.33 996 986 996 c 0
 904 996 838.5 968.667 789.5 914 c 128
 740.5 859.333 716 774.667 716 660 c 0
 716 552 739.333 469.5 786 412.5 c 128
 832.667 355.5 899.333 327 986 327 c 0
 1042 327 1095 339.167 1145 363.5 c 128
 1195 387.833 1232.67 411.333 1258 434 c 1
 1274 434 l 1
 1274 255 l 1
EndSplineSet
EndChar
StartChar: ordfeminine
Encoding: 170 170 110
Width: 1010
Flags: W
Fore
874 566 m 1
 708 566 l 1
 708 657 l 1
 689 642 689 642 657 618.5 c 128
 635.667 602.833 614.667 590.333 594 581 c 0
 566.667 568.333 539.833 558.5 513.5 551.5 c 128
 487.167 544.5 450.667 541 404 541 c 0
 321.333 541 252.333 568.833 197 624.5 c 128
 141.667 680.167 114 751.667 114 839 c 0
 114 908.333 128.333 964.833 157 1008.5 c 128
 185.667 1052.17 226.667 1086.67 280 1112 c 0
 330 1136 393 1153 469 1163 c 128
 545 1173 624.667 1180 708 1184 c 1
 708 1203 l 2
 708 1237.67 702.5 1265.67 691.5 1287 c 128
 680.5 1308.33 664.333 1325 643 1337 c 0
 623.667 1348.33 599.667 1355.83 571 1359.5 c 128
 542.333 1363.17 512.667 1365 482 1365 c 0
 430 1365 377.167 1357.17 323.5 1341.5 c 128
 269.833 1325.83 230 1313.33 204 1304 c 1
 189 1304 l 1
 189 1474 l 1
 218.333 1482.67 262.167 1492.33 320.5 1503 c 128
 378.833 1513.67 433 1519 483 1519 c 0
 611 1519 708.167 1493.5 774.5 1442.5 c 128
 840.833 1391.5 874 1308.67 874 1194 c 2
 874 566 l 1
708 802 m 1
 708 1045 l 1
 664.667 1042.33 614.333 1038.33 557 1033 c 128
 499.667 1027.67 454 1020 420 1010 c 0
 380 998.667 347.667 980.167 323 954.5 c 128
 298.333 928.833 286 893.667 286 849 c 0
 286 799 300.667 761 330 735 c 128
 359.333 709 403 696 461 696 c 0
 511.667 696 557.167 707 597.5 729 c 128
 637.833 751 674.667 775.333 708 802 c 1
EndSplineSet
EndChar
StartChar: guillemotleft
Encoding: 171 171 111
Width: 1174
Flags: W
Fore
1043 191 m 1
 555 610 l 1
 555 695 l 1
 1043 1113 l 1
 1043 925 l 1
 726 652 l 1
 1043 379 l 1
 1043 191 l 1
613 162 m 1
 103 608 l 1
 103 697 l 1
 613 1142 l 1
 613 946 l 1
 282 652 l 1
 613 358 l 1
 613 162 l 1
EndSplineSet
EndChar
StartChar: logicalnot
Encoding: 172 172 112
Width: 1490
Flags: W
Fore
1323 57 m 1
 1152 57 l 1
 1152 602 l 1
 157 602 l 1
 157 762 l 1
 1323 762 l 1
 1323 57 l 1
EndSplineSet
EndChar
StartChar: registered
Encoding: 174 174 114
Width: 1902
Flags: W
Fore
1816 655 m 0
 1816 416.333 1731.5 212.5 1562.5 43.5 c 128
 1393.5 -125.5 1189.67 -210 951 -210 c 128
 712.333 -210 508.5 -125.5 339.5 43.5 c 128
 170.5 212.5 86 416.333 86 655 c 128
 86 893.667 170.5 1097.33 339.5 1266 c 128
 508.5 1434.67 712.333 1519 951 1519 c 128
 1189.67 1519 1393.5 1434.67 1562.5 1266 c 128
 1731.5 1097.33 1816 893.667 1816 655 c 0
1701 655 m 0
 1701 863.667 1627.83 1041.5 1481.5 1188.5 c 128
 1335.17 1335.5 1158.67 1409 952 1409 c 128
 745.333 1409 568.833 1335.5 422.5 1188.5 c 128
 276.167 1041.5 203 863.667 203 655 c 128
 203 446.333 276.167 268.333 422.5 121 c 128
 568.833 -26.3333 745.333 -100 952 -100 c 128
 1158.67 -100 1335.17 -26.3333 1481.5 121 c 128
 1627.83 268.333 1701 446.333 1701 655 c 0
1448 215 m 1
 1221 215 l 1
 938 570 l 1
 815 570 l 1
 815 215 l 1
 650 215 l 1
 650 1130 l 1
 929 1130 l 2
 991.667 1130 1041.17 1127.67 1077.5 1123 c 128
 1113.83 1118.33 1150.67 1105.33 1188 1084 c 0
 1228 1061.33 1257 1034 1275 1002 c 128
 1293 970 1302 929 1302 879 c 0
 1302 812.333 1283.5 757.667 1246.5 715 c 128
 1209.5 672.333 1161.33 639 1102 615 c 1
 1448 215 l 1
1120 868 m 0
 1120 892.667 1116 914 1108 932 c 128
 1100 950 1086 965.333 1066 978 c 0
 1049.33 988.667 1030.67 995.833 1010 999.5 c 128
 989.333 1003.17 962.667 1005 930 1005 c 2
 815 1005 l 1
 815 696 l 1
 913 696 l 2
 945 696 975 699.167 1003 705.5 c 128
 1031 711.833 1053.67 722.667 1071 738 c 128
 1088.33 753.333 1100.83 771 1108.5 791 c 128
 1116.17 811 1120 836.667 1120 868 c 0
EndSplineSet
EndChar
StartChar: macron
Encoding: 175 175 115
Width: 1118
Flags: W
Fore
1134 1659 m 1
 -16 1659 l 1
 -16 1789 l 1
 1134 1789 l 1
 1134 1659 l 1
EndSplineSet
EndChar
StartChar: degree
Encoding: 176 176 116
Width: 964
Flags: W
Fore
863 1135 m 0
 863 1028.33 826.333 938.333 753 865 c 128
 679.667 791.667 589.333 755 482 755 c 0
 376 755 286 791.333 212 864 c 128
 138 936.667 101 1027 101 1135 c 0
 101 1241.67 137.667 1331.67 211 1405 c 128
 284.333 1478.33 374.667 1515 482 1515 c 128
 589.333 1515 679.667 1478.33 753 1405 c 128
 826.333 1331.67 863 1241.67 863 1135 c 0
706 1135 m 0
 706 1199 684.667 1253 642 1297 c 128
 599.333 1341 546 1363 482 1363 c 128
 418 1363 364.667 1341 322 1297 c 128
 279.333 1253 258 1199 258 1135 c 0
 258 1069.67 279.833 1015.33 323.5 972 c 128
 367.167 928.667 420 907 482 907 c 0
 546 907 599.333 929.167 642 973.5 c 128
 684.667 1017.83 706 1071.67 706 1135 c 0
EndSplineSet
EndChar
StartChar: plusminus
Encoding: 177 177 117
Width: 1490
Flags: W
Fore
1328 159 m 1
 162 159 l 1
 162 317 l 1
 662 317 l 1
 662 739 l 1
 162 739 l 1
 162 897 l 1
 662 897 l 1
 662 1402 l 1
 828 1402 l 1
 828 897 l 1
 1328 897 l 1
 1328 739 l 1
 828 739 l 1
 828 317 l 1
 1328 317 l 1
 1328 159 l 1
EndSplineSet
EndChar
StartChar: uni00B2
Encoding: 178 178 118
Width: 1010
Flags: W
Fore
866 566 m 1
 185 566 l 1
 185 718 l 1
 262 777 262 777 332.5 831.5 c 128
 379.5 867.833 417.667 900.333 447 929 c 0
 517.667 997 564 1050.17 586 1088.5 c 128
 608 1126.83 619 1173 619 1227 c 0
 619 1273 604.667 1308.5 576 1333.5 c 128
 547.333 1358.5 507.667 1371 457 1371 c 0
 411 1371 364.5 1361 317.5 1341 c 128
 270.5 1321 233.333 1300.33 206 1279 c 1
 191 1279 l 1
 191 1458 l 1
 233 1476 279.5 1490.67 330.5 1502 c 128
 381.5 1513.33 431.667 1519 481 1519 c 0
 585 1519 664.833 1492.83 720.5 1440.5 c 128
 776.167 1388.17 804 1321 804 1239 c 0
 804 1182.33 790.833 1127.83 764.5 1075.5 c 128
 738.167 1023.17 689 964.667 617 900 c 0
 582.333 869.333 542 836.833 496 802.5 c 128
 427 751 427 751 373 710 c 1
 866 710 l 1
 866 566 l 1
EndSplineSet
EndChar
StartChar: uni00B3
Encoding: 179 179 119
Width: 1010
Flags: W
Fore
837 828 m 0
 837 780.667 827 738.167 807 700.5 c 128
 787 662.833 761 633 729 611 c 0
 693.667 586.333 655.5 568.667 614.5 558 c 128
 573.5 547.333 526.667 542 474 542 c 0
 419.333 542 368.167 547 320.5 557 c 128
 272.833 567 227.333 581.333 184 600 c 1
 184 775 l 1
 201 775 l 1
 225.667 751.667 263.667 730.167 315 710.5 c 128
 366.333 690.833 418.333 681 471 681 c 0
 527 681 573.333 693.167 610 717.5 c 128
 646.667 741.833 665 778 665 826 c 0
 665 874 650.5 909.667 621.5 933 c 128
 592.5 956.333 543.333 968 474 968 c 2
 334 968 l 1
 334 1107 l 1
 459 1107 l 2
 517 1107 561.833 1119.67 593.5 1145 c 128
 625.167 1170.33 641 1205 641 1249 c 0
 641 1289 627.333 1320.83 600 1344.5 c 128
 572.667 1368.17 530 1380 472 1380 c 0
 428 1380 380.5 1369.67 329.5 1349 c 128
 278.5 1328.33 240.667 1306.33 216 1283 c 1
 199 1283 l 1
 199 1458 l 1
 241.667 1476 288 1490.67 338 1502 c 128
 388 1513.33 439.333 1519 492 1519 c 0
 593.333 1519 672.333 1495.67 729 1449 c 128
 785.667 1402.33 814 1346.33 814 1281 c 0
 814 1223 797.833 1175.17 765.5 1137.5 c 128
 733.167 1099.83 691.333 1072.33 640 1055 c 1
 640 1047 l 1
 693.333 1036.33 739.5 1012.83 778.5 976.5 c 128
 817.5 940.167 837 890.667 837 828 c 0
EndSplineSet
EndChar
StartChar: acute
Encoding: 180 180 120
Width: 1118
Flags: W
Fore
871 1676 m 1
 598 1302 l 1
 449 1302 l 1
 628 1676 l 1
 871 1676 l 1
EndSplineSet
EndChar
StartChar: mu
Encoding: 181 181 121
Width: 1163
Flags: W
Fore
1027 0 m 1
 855 0 l 1
 855 116 l 1
 849 116 l 1
 809 74 768.833 41.3333 728.5 18 c 128
 688.167 -5.33333 638 -17 578 -17 c 0
 516.667 -17 468.333 -5.33333 433 18 c 128
 397.667 41.3333 361.333 73.6667 324 115 c 1
 324 -412 l 1
 136 -412 l 1
 136 1117 l 1
 324 1117 l 1
 324 275 l 1
 352 241.667 387 214.833 429 194.5 c 128
 471 174.167 520.667 164 578 164 c 0
 638 164 688.5 173.667 729.5 193 c 128
 770.5 212.333 807 239.667 839 275 c 1
 839 1117 l 1
 1027 1117 l 1
 1027 0 l 1
EndSplineSet
EndChar
StartChar: paragraph
Encoding: 182 182 122
Width: 1118
Flags: W
Fore
982 -363 m 1
 842 -363 l 1
 842 1359 l 1
 655 1359 l 1
 655 -363 l 1
 515 -363 l 1
 515 593 l 1
 377.667 596.333 267 639.333 183 722 c 128
 99 804.667 57 914 57 1050 c 0
 57 1188 100.333 1295.67 187 1373 c 128
 273.667 1450.33 398 1489 560 1489 c 2
 982 1489 l 1
 982 -363 l 1
EndSplineSet
EndChar
StartChar: periodcentered
Encoding: 183 183 123
Width: 724
Flags: W
Fore
482 832 m 1
 243 832 l 1
 243 1117 l 1
 482 1117 l 1
 482 832 l 1
EndSplineSet
EndChar
StartChar: cedilla
Encoding: 184 184 124
Width: 1118
Flags: W
Fore
767 20 m 1
 767.667 8 768.833 -7.16667 770.5 -25.5 c 128
 772.167 -43.8333 773 -65 773 -89 c 0
 773 -197 744 -279.667 686 -337 c 128
 628 -394.333 554.667 -423 466 -423 c 0
 441.333 -423 412.333 -421 379 -417 c 128
 345.667 -413 315.667 -407 289 -399 c 1
 289 -239 l 1
 298 -239 l 1
 314 -246.333 335 -253.833 361 -261.5 c 128
 387 -269.167 413.333 -273 440 -273 c 0
 502.667 -273 547.333 -259.833 574 -233.5 c 128
 600.667 -207.167 614 -165 614 -107 c 0
 614 -89.6667 613.667 -70.6667 613 -50 c 128
 612.333 -29.3333 611.333 -6 610 20 c 1
 767 20 l 1
EndSplineSet
EndChar
StartChar: uni0E01
Encoding: 3585 3585 125
Width: 1240
Flags: W
Fore
1082 673 m 2
 1082 0 l 1
 922 0 l 1
 922 657 l 2
 922 761.667 902.333 838.667 863 888 c 0
 852.333 900.667 840.333 912.667 827 924 c 2
 819 930 l 2
 783.667 956 735.333 974.333 674 985 c 0
 656 987.667 639.333 989 624 989 c 0
 526.667 989 439 956.667 361 892 c 0
 336.333 872 314.667 849.667 296 825 c 1
 325.333 817.667 363.333 794.333 410 755 c 0
 452.667 719.667 478 689 486 663 c 1
 438.667 614.333 408.667 581 396 563 c 0
 374 530.333 360.333 499.333 355 470 c 0
 350.333 444.667 348 409 348 363 c 2
 348 0 l 1
 188 0 l 1
 188 363 l 2
 188 446.333 197.333 507.333 216 546 c 0
 231.333 576 264.667 617.667 316 671 c 1
 290.667 701 248.667 731.333 190 762 c 0
 162.667 776 138.667 786 118 792 c 1
 131.333 854.667 167.333 917 226 979 c 1
 331.333 1092.33 464 1149 624 1149 c 0
 769.333 1149 886 1102 974 1008 c 1
 1046 922 1082 810.333 1082 673 c 2
EndSplineSet
EndChar
StartChar: uni0E02
Encoding: 3586 3586 126
Width: 1400
Flags: W
Fore
286 642 m 1
 312 641 l 1
 340.667 645 363.667 660.333 381 687 c 0
 385 695 l 0
 393.667 713 398 731.667 398 751 c 0
 398 766.333 395.333 780.333 390 793 c 0
 380.667 817 364 832.333 340 839 c 1
 312 841 l 1
 277.333 839 251.667 822.333 235 791 c 0
 232.333 785.667 230 779.667 228 773 c 0
 224 760.333 222 747.667 222 735 c 0
 222 723.667 223.667 713 227 703 c 1
 237 679 l 1
 249.667 657.667 266 645.333 286 642 c 1
834 771 m 1
 793 731 l 1
 735.667 670.333 707 618.333 707 575 c 2
 707 278 l 2
 707 247.333 728.667 217.667 772 189 c 0
 809.333 163.667 846.333 150.667 883 150 c 0
 930.333 150 973.333 166 1012 198 c 0
 1042 223.333 1057 250 1057 278 c 2
 1057 1139 l 1
 1217 1139 l 1
 1217 278 l 2
 1217 118.667 1139.33 25.3333 984 -2 c 0
 953.333 -7.33333 919.667 -10 883 -10 c 0
 774.333 -10 688.333 20.6667 625 82 c 0
 573 133.333 547 198.667 547 278 c 2
 547 575 l 2
 547 625 583.667 685 657 755 c 0
 668.333 765.667 673.667 790.667 673 830 c 1
 669 867.333 657.667 899.667 639 927 c 0
 615 962.333 576.667 986 524 998 c 0
 509.333 1001.33 494.667 1003 480 1003 c 2
 433 1000 l 1
 383.667 992.667 337.667 967.667 295 925 c 1
 307 931 321.333 934 338 934 c 0
 345.333 934 353.667 933.667 363 933 c 0
 408.333 927.667 446 900 476 850 c 0
 489.333 826.667 496 798.333 496 765 c 0
 496 718.333 485 674.667 463 634 c 0
 441.667 594.667 406 567.667 356 553 c 0
 337.333 547.667 318 545 298 545 c 0
 288.667 545 279.667 545.667 271 547 c 0
 217 553 171.667 582.333 135 635 c 0
 131.667 639.667 128.667 644.333 126 649 c 0
 106 683.667 96 735.333 96 804 c 0
 96 818 96.6667 831 98 843 c 0
 106 911 133.667 971.667 181 1025 c 0
 187 1031.67 193 1037.67 199 1043 c 0
 272.333 1109.67 359.333 1145 460 1149 c 0
 476 1149 l 0
 544 1149 610.667 1130 676 1092 c 0
 699.333 1078.67 718.667 1064.33 734 1049 c 0
 777.333 1006.33 808 939 826 847 c 0
 831.333 818.333 834 793 834 771 c 1
EndSplineSet
EndChar
StartChar: uni0E03
Encoding: 3587 3587 127
Width: 1450
Flags: W
Fore
292 603 m 1
 318 603 l 1
 346.667 607 369.333 622.333 386 649 c 0
 388 651.667 389.667 654 391 656 c 0
 399.667 674 404 693 404 713 c 0
 404 728.333 401.333 742 396 754 c 0
 387.333 775.333 373 790 353 798 c 0
 351 798.667 348.667 799.333 346 800 c 2
 318 803 l 1
 282.667 800.333 257 783.667 241 753 c 0
 238.333 747 236 740.667 234 734 c 0
 230 721.333 228 708.667 228 696 c 0
 228 674.667 233 655.667 243 639 c 0
 255.667 619 272 607 292 603 c 1
186 1011 m 0
 218 1059.67 263 1100 321 1132 c 0
 337 1140.67 350 1146.33 360 1149 c 1
 360 1148.33 413 1112.33 519 1041 c 1
 663 1149 l 1
 702.333 1138.33 745.333 1110.33 792 1065 c 0
 801.333 1055.67 810.333 1046 819 1036 c 0
 854.333 995.333 881.667 936.333 901 859 c 0
 906.333 835.667 909.667 815 911 797 c 0
 911 789 911 789 911 783 c 1
 870 743 l 1
 812.667 682.333 784 630.333 784 587 c 2
 784 278 l 2
 784 247.333 805.667 217.667 849 189 c 0
 886.333 163.667 923.333 150.667 960 150 c 0
 1007.33 150 1050.33 166 1089 198 c 0
 1119 223.333 1134 250 1134 278 c 2
 1134 1139 l 1
 1294 1139 l 1
 1294 278 l 2
 1294 118.667 1216.33 25.3333 1061 -2 c 1
 996 -9 l 2
 984.667 -9.66667 972.667 -10 960 -10 c 0
 851.333 -10 765.333 20.6667 702 82 c 0
 650 133.333 624 198.667 624 278 c 2
 624 587 l 2
 624 637 660.667 697 734 767 c 0
 745.333 777.667 750.5 793.5 749.5 814.5 c 128
 748.5 835.5 741 863 727 897 c 0
 715.667 923 694.333 950.333 663 979 c 1
 663 978.333 615 945.667 519 881 c 1
 382 963 l 1
 360 979 l 1
 341.333 966.333 324.333 942.667 309 908 c 1
 301 886 l 1
 313 892.667 327.333 896 344 896 c 0
 350.667 896 359 895.333 369 894 c 0
 414.333 888.667 452 861.333 482 812 c 0
 495.333 788.667 502 760.333 502 727 c 0
 502 680.333 491 636.333 469 595 c 0
 447.667 555.667 412 529 362 515 c 0
 343.333 509.667 323.667 507 303 507 c 0
 294.333 507 285.667 507.333 277 508 c 0
 223 514.667 177.667 544 141 596 c 0
 136 604 136 604 132 611 c 0
 112 645.667 102 697 102 765 c 0
 102 779.667 102.667 792.667 104 804 c 0
 111.333 871.333 138.667 940.333 186 1011 c 0
EndSplineSet
EndChar
StartChar: uni0E04
Encoding: 3588 3588 128
Width: 1370
Flags: W
Fore
783 630 m 0
 777 634.667 770 638 762 640 c 1
 738 641 l 1
 700.667 638.333 671.333 617.667 650 579 c 0
 646 572.333 643 565.333 641 558 c 1
 638 532 l 1
 638 498 652.667 471.667 682 453 c 1
 694 446.333 706.333 443 719 443 c 0
 729.667 443 740.667 445.333 752 450 c 0
 782 463.333 803.333 487.667 816 523 c 0
 819.333 532.333 821 542.667 821 554 c 0
 821 587.333 808.333 612.667 783 630 c 0
380 256 m 1
 383.333 274 387.333 292.667 392 312 c 0
 424.667 456 463.333 559 508 621 c 0
 515.333 631 523.333 640.667 532 650 c 0
 573.333 695.333 617.667 724.667 665 738 c 0
 682.333 743.333 701.333 746 722 746 c 0
 769.333 746 808.667 733.333 840 708 c 2
 849 700 l 2
 896.333 658.667 920 609.667 920 553 c 0
 920 537.667 918 523.667 914 511 c 0
 908 490.333 899 469.667 887 449 c 0
 854.333 394.333 815.333 360.667 770 348 c 0
 753.333 344 736.667 342 720 342 c 0
 685.333 342 656 351.333 632 370 c 0
 609.333 388.667 595 406.667 589 424 c 1
 576.333 396 562.667 362.667 548 324 c 0
 496 188 465 80 455 0 c 1
 245 0 l 1
 245 108 l 2
 245 160.667 228 266 194 424 c 1
 173.333 513.333 163 596.333 163 673 c 0
 163 766.333 178.667 841 210 897 c 1
 249.333 963.667 300 1017 362 1057 c 1
 440.667 1105.67 524.333 1135.33 613 1146 c 1
 676 1149 l 1
 777.333 1148.33 863.333 1130.33 934 1095 c 1
 1009.33 1060.33 1068.67 1015 1112 959 c 0
 1114.67 956.333 1117 953.333 1119 950 c 0
 1169.67 881.333 1195 781.667 1195 651 c 2
 1195 0 l 1
 1035 0 l 1
 1035 702 l 2
 1035 708 1035 708 1035 715 c 0
 1030.33 761 1017.33 801.667 996 837 c 0
 970.667 878.333 928 915.333 868 948 c 0
 818 975.333 755.667 989 681 989 c 0
 613.667 989 554 976 502 950 c 0
 488 943.333 473.333 934.667 458 924 c 0
 409.333 889.333 374.333 850.667 353 808 c 0
 333.667 768 324 714 324 646 c 0
 324 602.667 328.333 562.333 337 525 c 1
 380 256 l 1
EndSplineSet
EndChar
StartChar: uni0E05
Encoding: 3589 3589 129
Width: 1370
Flags: W
Fore
1142 926 m 0
 1144 922 l 0
 1174.67 856.667 1190 766.333 1190 651 c 2
 1190 0 l 1
 1030 0 l 1
 1030 702 l 1
 1030 721 l 2
 1030 782.333 1018 834 994 876 c 0
 964 928 916.333 965.667 851 989 c 1
 678 873 l 1
 514 989 l 1
 510.667 988.333 507.333 987.333 504 986 c 0
 433.333 962.667 380 912 344 834 c 0
 329.333 801.333 322 744.667 322 664 c 0
 322 613.333 325.333 567 332 525 c 2
 375 256 l 1
 378.333 274 382.333 292.667 387 312 c 0
 419.667 456 458.333 559 503 621 c 0
 510.333 631 518.333 640.667 527 650 c 0
 568.333 695.333 612.667 724.667 660 738 c 0
 677.333 743.333 696.333 746 717 746 c 0
 763.667 746 803 733.333 835 708 c 0
 838.333 705.333 841.333 702.667 844 700 c 0
 891.333 658.667 915 609.667 915 553 c 0
 915 537.667 913 523.667 909 511 c 0
 903 490.333 894 469.667 882 449 c 0
 849.333 394.333 810.333 360.667 765 348 c 0
 748.333 344 731.667 342 715 342 c 0
 680.333 342 651 351.333 627 370 c 0
 604.333 388.667 590 406.667 584 424 c 1
 571.333 396 557.667 362.667 543 324 c 0
 491 188 460 80 450 0 c 1
 240 0 l 1
 240 108 l 2
 240 160.667 223 266 189 424 c 1
 166.333 521.333 155 609.667 155 689 c 0
 155 739 159.333 784.667 168 826 c 0
 179.333 877.333 198.667 924.667 226 968 c 1
 256 1009 l 1
 323.333 1091.67 409.333 1138.33 514 1149 c 1
 678 1033 l 1
 851 1149 l 1
 880.333 1142.33 908.667 1133.33 936 1122 c 0
 1030 1080.67 1098.67 1015.33 1142 926 c 0
778 630 m 0
 772 634.667 765 638 757 640 c 1
 733 641 l 1
 695.667 638.333 666.333 617.667 645 579 c 0
 641 572.333 638 565.333 636 558 c 1
 632 532 l 1
 632.667 498 647.667 471.667 677 453 c 0
 688.333 446.333 700.333 443 713 443 c 0
 724.333 443 735.667 445.333 747 450 c 0
 777 463.333 798.333 487.667 811 523 c 0
 813.667 532.333 815 542.667 815 554 c 0
 815 587.333 802.667 612.667 778 630 c 0
EndSplineSet
EndChar
StartChar: uni0E06
Encoding: 3590 3590 130
Width: 1520
Flags: W
Fore
303 603 m 1
 329 603 l 1
 357.667 607 380.333 622.333 397 649 c 0
 399 651.667 400.667 654 402 656 c 0
 410.667 674 415 693 415 713 c 0
 415 728.333 412.333 742 407 754 c 0
 398.333 775.333 384 790 364 798 c 0
 362 798.667 359.667 799.333 357 800 c 2
 329 803 l 1
 293.667 800.333 268 783.667 252 753 c 0
 249.333 747 247 740.667 245 734 c 0
 241 721.333 239 708.667 239 696 c 0
 239 674.667 244 655.667 254 639 c 0
 266.667 619 283 607 303 603 c 1
635 587 m 1
 635.667 637 672.333 697 745 767 c 0
 756.333 777.667 761.5 793.5 760.5 814.5 c 128
 759.5 835.5 752 863 738 897 c 0
 726.667 923 705.333 950.333 674 979 c 1
 674 978.333 626 945.667 530 881 c 1
 393 963 l 1
 371 979 l 1
 352.333 966.333 335.333 942.667 320 908 c 1
 312 886 l 1
 324 892.667 338.333 896 355 896 c 0
 361.667 896 370 895.333 380 894 c 0
 425.333 888.667 463 861.333 493 812 c 0
 506.333 788.667 513 760.333 513 727 c 0
 513 680.333 502 636.333 480 595 c 0
 458.667 555.667 423 529 373 515 c 0
 354.333 509.667 334.667 507 314 507 c 0
 305.333 507 296.667 507.333 288 508 c 0
 234 514.667 188.667 544 152 596 c 0
 147 604 147 604 143 611 c 0
 123 645.667 113 697 113 765 c 0
 113 779.667 113.667 792.667 115 804 c 0
 122.333 871.333 149.667 940.333 197 1011 c 0
 229 1059.67 274 1100 332 1132 c 0
 348 1140.67 361 1146.33 371 1149 c 1
 371 1148.33 424 1112.33 530 1041 c 1
 674 1149 l 1
 713.333 1138.33 756.333 1110.33 803 1065 c 0
 812.333 1055.67 821.333 1046 830 1036 c 0
 865.333 995.333 892.667 936.333 912 859 c 0
 917.333 835.667 920.667 815 922 797 c 0
 922 789 922 789 922 783 c 1
 881 743 l 1
 823.667 682.333 795 630.333 795 587 c 2
 795 409 l 1
 943 272 l 1
 1037.67 189.333 1106 147.667 1148 147 c 0
 1157.33 147 1166 149.333 1174 154 c 0
 1194.67 167.333 1205 201.333 1205 256 c 2
 1205 1139 l 1
 1365 1139 l 1
 1365 256 l 2
 1365 168.667 1355 108 1335 74 c 0
 1323 55.3333 1306.33 39 1285 25 c 0
 1254.33 5 1221.33 -5 1186 -5 c 0
 1114 -5 1026.33 39.6667 923 129 c 1
 804 235 l 1
 794 243 l 1
 791 146 l 1
 782.333 78 754 31.3333 706 6 c 0
 684.667 -4.66667 661.333 -10 636 -10 c 0
 588.667 -10 547.333 4 512 32 c 2
 499 43 l 1
 455.667 87.6667 434 141.667 434 205 c 0
 434 267 448.667 319.333 478 362 c 0
 517.333 417.333 569.667 445.333 635 446 c 1
 635 587 l 1
644 328 m 1
 604 328 574.667 306.667 556 264 c 0
 546.667 244 542 223.333 542 202 c 0
 542 162.667 551.667 133.333 571 114 c 0
 578.333 106.667 586.667 103 596 103 c 0
 627.333 103 643.333 124 644 166 c 1
 644 200 l 1
 644 328 l 1
EndSplineSet
EndChar
StartChar: uni0E07
Encoding: 3591 3591 131
Width: 1000
Flags: W
Fore
627 1042 m 2
 596.333 1042 571.333 1026.67 552 996 c 0
 541.333 979.333 536 962.333 536 945 c 1
 537 938 l 1
 540.333 892 557.333 860.667 588 844 c 0
 600 838 613 835 627 835 c 1
 663 837.667 685.333 853.333 694 882 c 0
 698.667 896.667 701 917 701 943 c 1
 698.333 994.333 685 1025.33 661 1036 c 1
 638 1041 l 1
 627 1042 l 2
855 272 m 2
 855 161.333 814 81.6667 732 33 c 0
 683.333 4.33333 623.667 -10 553 -10 c 0
 409.667 -10 311 51 257 173 c 0
 244.333 203 234.333 236 227 272 c 1
 145 719 l 1
 326 640 l 1
 358 455.333 378.667 332.667 388 272 c 0
 394.667 232 418.667 199.667 460 175 c 0
 488 158.333 519 150 553 150 c 0
 623 150 667.333 175 686 225 c 0
 691.333 239 694 254.667 694 272 c 2
 694 770 l 1
 682.667 756 661.333 747 630 743 c 0
 626 742.333 622 742 618 742 c 2
 584 744 l 1
 549.333 749.333 518.333 765.333 491 792 c 0
 441 842 427 912.667 449 1004 c 0
 460.333 1047.33 487.333 1084 530 1114 c 0
 563.333 1137.33 601 1149.33 643 1150 c 0
 651 1150 l 0
 705 1149.33 750.333 1131 787 1095 c 0
 832.333 1051.67 855 980.333 855 881 c 2
 855 272 l 2
EndSplineSet
EndChar
StartChar: uni0E08
Encoding: 3592 3592 132
Width: 1200
Flags: W
Fore
401 645 m 0
 370.333 645 345.333 629.667 326 599 c 0
 316 582.333 311 565.333 311 548 c 2
 311 541 l 1
 314.333 495 331.667 463.667 363 447 c 0
 374.333 441 387 438 401 438 c 1
 437 440.667 459.667 456.333 469 485 c 0
 473 499.667 475 520 475 546 c 1
 473 597.333 460 628.333 436 639 c 0
 426.667 643 415 645 401 645 c 0
629 283 m 2
 629 194.333 668.667 150 748 150 c 0
 824.667 150 864.667 189.333 868 268 c 0
 868 273 868 273 868 279 c 2
 868 715 l 2
 868 785.667 854.333 841.333 827 882 c 0
 823 887.333 819.333 892 816 896 c 1
 758.667 952 678.333 982.667 575 988 c 0
 565.667 988.667 556 989 546 989 c 0
 454 989 374.667 962.333 308 909 c 0
 290 894.333 274.333 878.667 261 862 c 1
 242 835 l 1
 104 929 l 1
 183.333 1048.33 297.333 1119.33 446 1142 c 0
 477.333 1146.67 510 1149 544 1149 c 0
 664.667 1149 769 1122 857 1068 c 0
 895 1044.67 926.667 1017.67 952 987 c 0
 1002.67 923.667 1028 841.333 1028 740 c 2
 1028 279 l 2
 1028 167.667 990.333 86.6667 915 36 c 0
 869.667 5.33333 814 -10 748 -10 c 0
 562 -10 469 87.6667 469 283 c 2
 469 373 l 1
 457 359 435.333 350 404 346 c 0
 400.667 345.333 397 344.667 393 344 c 1
 358 347 l 1
 324 352.333 293.333 368.333 266 395 c 0
 216 445 202 515.667 224 607 c 0
 235.333 650.333 262.333 687 305 717 c 0
 337.667 740.333 375 752.333 417 753 c 0
 421 753 421 753 426 753 c 0
 480 752.333 525.333 734 562 698 c 0
 606.667 654.667 629 583.333 629 484 c 2
 629 283 l 2
EndSplineSet
EndChar
StartChar: uni0E09
Encoding: 3593 3593 133
Width: 1395
Flags: W
Fore
944 409 m 1
 944 422 944 422 944 715 c 0
 944 799.667 926.333 860 891 896 c 1
 833.667 952 753.667 982.667 651 988 c 0
 641 988.667 631.333 989 622 989 c 0
 530 989 450.667 962.333 384 909 c 0
 366 894.333 350.333 878.667 337 862 c 1
 318 835 l 1
 179 929 l 1
 259 1048.33 373.333 1119.33 522 1142 c 0
 553.333 1146.67 585.667 1149 619 1149 c 0
 739.667 1149 844.333 1122 933 1068 c 0
 971 1044.67 1002.33 1017.67 1027 987 c 0
 1078.33 923.667 1104 841.333 1104 740 c 2
 1104 446 l 1
 1169.33 445.333 1221.67 417.333 1261 362 c 0
 1290.33 319.333 1305 267 1305 205 c 0
 1305 141.667 1283.33 87.6667 1240 43 c 0
 1210.67 13.6667 1171.67 -3.66667 1123 -9 c 0
 1116.33 -9.66667 1109.67 -10 1103 -10 c 0
 1041 -10 996 18.3333 968 75 c 0
 958 96.3333 951.333 120 948 146 c 1
 945 227 l 1
 943.667 225.667 919.667 203.667 873 161 c 1
 756.333 51.6667 657.333 -3 576 -3 c 0
 561.333 -3 547.333 -1.33333 534 2 c 0
 514.667 6 496.333 13.6667 479 25 c 0
 441 49.6667 417 86.6667 407 136 c 0
 401.667 164 399 204 399 256 c 2
 399 391 l 1
 387.667 377 366.333 368 335 364 c 0
 323 362 l 1
 289 365 l 1
 254.333 370.333 223.333 386.333 196 413 c 0
 146 463 132 533.667 154 625 c 0
 165.333 668.333 192.333 705 235 735 c 0
 267.667 758.333 305 770.333 347 771 c 0
 351 771 351 771 356 771 c 0
 410 770.333 455.333 752 492 716 c 0
 536.667 672.667 559 601.333 559 502 c 2
 559 256 l 2
 559 201.333 567 168.333 583 157 c 0
 585.667 155.667 588 154.667 590 154 c 2
 605 154 l 1
 638.333 160 716.333 216 839 322 c 0
 899.667 374.667 934.667 403.667 944 409 c 1
331 663 m 2
 300.333 663 275.333 647.667 256 617 c 0
 246 600.333 241 583.333 241 566 c 2
 241 559 l 1
 244.333 513 261.667 481.667 293 465 c 0
 304.333 459 317 456 331 456 c 1
 367 458.667 389.667 474.333 399 503 c 0
 403.667 517.667 406 538 406 564 c 1
 403.333 615.333 390 646.333 366 657 c 1
 343 662 l 1
 331 663 l 2
1095 328 m 1
 1095 200 l 2
 1095 164 1096.67 141.667 1100 133 c 0
 1106.67 113 1121 103 1143 103 c 0
 1165 103 1181 120.667 1191 156 c 0
 1195 170.667 1197 186 1197 202 c 0
 1197 242 1184.33 275 1159 301 c 0
 1141 319 1119.67 328 1095 328 c 1
EndSplineSet
EndChar
StartChar: uni0E0A
Encoding: 3594 3594 134
Width: 1390
Flags: W
Fore
841 921 m 1
 903.667 930.333 948.667 939.667 976 949 c 0
 1005.33 959.667 1031 973.333 1053 990 c 0
 1094.33 1020.67 1119.67 1055.67 1129 1095 c 0
 1133.67 1113.67 1136.33 1136.33 1137 1163 c 1
 1137 1188 l 1
 1303 1188 l 1
 1303 1164 l 2
 1303 1053.33 1248.67 968.333 1140 909 c 0
 1102.67 888.333 1060.67 872.333 1014 861 c 1
 1094 802 l 2
 1114 786.667 1128.33 774.333 1137 765 c 0
 1183.67 713.667 1207.33 656 1208 592 c 1
 1208 278 l 2
 1208 248 1205.67 220.333 1201 195 c 0
 1181 89.6667 1116.67 25 1008 1 c 1
 949 -8 l 1
 931 -9.33333 912.333 -10 893 -10 c 0
 775.667 -10 689.667 27 635 101 c 0
 599.667 148.333 582 207.333 582 278 c 2
 582 575 l 2
 582 625 618.667 685 692 755 c 0
 703.333 765.667 708.667 790.667 708 830 c 1
 704 867.333 692.667 899.667 674 927 c 0
 650 962.333 611.667 986 559 998 c 0
 544.333 1001.33 529.667 1003 515 1003 c 2
 468 1000 l 1
 418.667 992.667 372.667 967.667 330 925 c 1
 342 931 356.333 934 373 934 c 0
 380.333 934 388.667 933.667 398 933 c 0
 443.333 927.667 481 900 511 850 c 0
 524.333 826.667 531 798.333 531 765 c 0
 531 718.333 520 674.667 498 634 c 0
 476.667 594.667 441 567.667 391 553 c 0
 372.333 547.667 353 545 333 545 c 0
 323.667 545 314.667 545.667 306 547 c 0
 252 553 206.667 582.333 170 635 c 0
 166.667 639.667 163.667 644.333 161 649 c 0
 141 683.667 131 735.333 131 804 c 0
 131 818 131.667 831 133 843 c 0
 141 911 168.667 971.667 216 1025 c 0
 222 1031.67 228 1037.67 234 1043 c 0
 307.333 1109.67 394.333 1145 495 1149 c 0
 511 1149 l 0
 579 1149 645.667 1130 711 1092 c 0
 734.333 1078.67 753.667 1064.33 769 1049 c 0
 798.333 1020.33 822.333 977.667 841 921 c 1
869 771 m 1
 828 731 l 1
 770.667 670.333 742 618.333 742 575 c 2
 742 278 l 2
 742 244.667 760.333 214 797 186 c 0
 827 162.667 859 150.667 893 150 c 0
 940.333 150 980.667 167.333 1014 202 c 0
 1036.67 225.333 1048 250.667 1048 278 c 2
 1048 581 l 2
 1048 606.333 1032.33 639 1001 679 c 0
 984.333 700.333 966 718.667 946 734 c 0
 920.667 753.333 895 765.667 869 771 c 1
321 642 m 1
 347 641 l 1
 375.667 645 398.667 660.333 416 687 c 0
 420 695 l 0
 428.667 713 433 731.667 433 751 c 0
 433 766.333 430.333 780.333 425 793 c 0
 415.667 817 399 832.333 375 839 c 1
 347 841 l 1
 312.333 839 286.667 822.333 270 791 c 0
 267.333 785.667 265 779.667 263 773 c 0
 259 760.333 257 747.667 257 735 c 0
 257 723.667 258.667 713 262 703 c 1
 272 679 l 1
 284.667 657.667 301 645.333 321 642 c 1
EndSplineSet
EndChar
StartChar: uni0E0B
Encoding: 3595 3595 135
Width: 1390
Flags: W
Fore
261 603 m 1
 287 603 l 1
 315.667 607 338.333 622.333 355 649 c 0
 357 651.667 358.667 654 360 656 c 0
 368.667 674 373 693 373 713 c 0
 373 728.333 370.333 742 365 754 c 0
 356.333 775.333 342 790 322 798 c 0
 320 798.667 317.667 799.333 315 800 c 2
 287 803 l 1
 251.667 800.333 226 783.667 210 753 c 0
 207.333 747 205 740.667 203 734 c 0
 199 721.333 197 708.667 197 696 c 0
 197 674.667 202 655.667 212 639 c 0
 224.667 619 241 607 261 603 c 1
845 921 m 1
 907.667 930.333 952.667 939.667 980 949 c 0
 1009.33 959.667 1035 973.333 1057 990 c 0
 1098.33 1020.67 1123.67 1055.67 1133 1095 c 0
 1137.67 1113.67 1140.33 1136.33 1141 1163 c 1
 1141 1188 l 1
 1307 1188 l 1
 1307 1164 l 2
 1307 1053.33 1252.67 968.333 1144 909 c 0
 1106.67 888.333 1064.67 872.333 1018 861 c 1
 1098 802 l 2
 1118 786.667 1132.33 774.333 1141 765 c 0
 1187.67 713.667 1211.33 656 1212 592 c 1
 1212 278 l 2
 1212 248 1209.67 220.333 1205 195 c 0
 1185 89.6667 1120.67 25 1012 1 c 1
 953 -8 l 1
 935 -9.33333 916.333 -10 897 -10 c 0
 779.667 -10 693.667 27 639 101 c 0
 603.667 148.333 586 207.333 586 278 c 2
 586 575 l 2
 586 625 623.333 684.667 698 754 c 0
 710 765.333 716.667 772.667 718 776 c 128
 719.333 779.333 720 786 720 796 c 0
 720 826.667 712 860.333 696 897 c 0
 684.667 923 663.333 950.333 632 979 c 1
 632 978.333 584 945.667 488 881 c 1
 351 963 l 1
 329 979 l 1
 310.333 966.333 293.333 942.667 278 908 c 1
 270 886 l 1
 282 892.667 296.333 896 313 896 c 0
 319.667 896 328 895.333 338 894 c 0
 383.333 888.667 421 861.333 451 812 c 0
 464.333 788.667 471 760.333 471 727 c 0
 471 680.333 460 636.333 438 595 c 0
 416.667 555.667 381 529 331 515 c 0
 312.333 509.667 292.667 507 272 507 c 0
 263.333 507 254.667 507.333 246 508 c 0
 192 514.667 146.667 544 110 596 c 0
 105 604 105 604 101 611 c 0
 81 645.667 71 697 71 765 c 0
 71 779.667 71.6667 792.667 73 804 c 0
 80.3333 871.333 107.667 940.333 155 1011 c 0
 187 1059.67 232 1100 290 1132 c 0
 306 1140.67 319 1146.33 329 1149 c 1
 329 1148.33 382 1112.33 488 1041 c 1
 632 1149 l 1
 674 1137.67 716.333 1110.67 759 1068 c 0
 769 1058 778.667 1047.33 788 1036 c 0
 818 998.667 837 960.333 845 921 c 1
873 771 m 1
 832 731 l 1
 774.667 670.333 746 618.333 746 575 c 2
 746 278 l 2
 746 244.667 764.333 214 801 186 c 0
 831 162.667 863 150.667 897 150 c 0
 944.333 150 984.667 167.333 1018 202 c 0
 1040.67 225.333 1052 250.667 1052 278 c 2
 1052 581 l 2
 1052 606.333 1036.33 639 1005 679 c 0
 988.333 700.333 970 718.667 950 734 c 0
 924.667 753.333 899 765.667 873 771 c 1
EndSplineSet
EndChar
StartChar: uni0E0C
Encoding: 3596 3596 136
Width: 1750
Flags: W
Fore
925 657 m 2
 925 761 905.667 837.667 867 887 c 0
 854.333 903 839.333 917.333 822 930 c 0
 787.333 956 739 974.333 677 985 c 0
 659 987.667 642.667 989 628 989 c 0
 530 989 442 956.667 364 892 c 0
 340 872 318.667 849.667 300 825 c 1
 329.333 817.667 367.333 794.333 414 755 c 0
 456 719.667 481 689 489 663 c 1
 441.667 614.333 412 581 400 563 c 0
 374 525.667 358.667 491 354 459 c 0
 352 443.667 351 425 351 403 c 2
 351 369 l 1
 363 383 384.667 392 416 396 c 0
 419.333 396.667 423 397 427 397 c 2
 462 395 l 1
 496 389.667 526.667 373.667 554 347 c 0
 604 297 618 226.333 596 135 c 1
 584.667 92.3333 557.667 55.6667 515 25 c 0
 482.333 1.66667 445 -10.3333 403 -11 c 2
 394 -11 l 2
 340 -10.3333 294.667 8 258 44 c 0
 213.333 87.3333 191 158.667 191 258 c 2
 191 403 l 2
 191 459.667 200.667 507.333 220 546 c 0
 234.667 576 268 617.667 320 671 c 1
 294.667 701 252.333 731.333 193 762 c 0
 165.667 776 142 786 122 792 c 1
 135.333 854.667 171 917 229 979 c 0
 334.333 1092.33 467.333 1149 628 1149 c 0
 773.333 1149 889.667 1102 977 1008 c 1
 1048.33 922.667 1084.33 811 1085 673 c 0
 1085 670 1085 670 1085 409 c 1
 1233 272 l 1
 1327.67 189.333 1396 147.667 1438 147 c 0
 1447.33 147 1456 149.333 1464 154 c 0
 1484.67 167.333 1495 201.333 1495 256 c 2
 1495 1139 l 1
 1655 1139 l 1
 1655 256 l 2
 1655 168.667 1645 108 1625 74 c 0
 1613 55.3333 1596.33 39 1575 25 c 0
 1544.33 5 1511.33 -5 1476 -5 c 0
 1404 -5 1316.33 39.6667 1213 129 c 1
 1094 235 l 2
 1084 243 l 1
 1081 146 l 1
 1072.33 78 1044 31.3333 996 6 c 0
 974.667 -4.66667 951.333 -10 926 -10 c 0
 879.333 -10 838.333 3.66667 803 31 c 2
 789 43 l 1
 745.667 87.6667 724 141.667 724 205 c 0
 724 267 738.667 319.333 768 362 c 0
 807.333 417.333 859.667 445.333 925 446 c 1
 925 657 l 2
934 328 m 1
 894 328 864.667 306.667 846 264 c 0
 836.667 244 832 223.333 832 202 c 0
 832 162.667 841.667 133.333 861 114 c 0
 868.333 106.667 876.667 103 886 103 c 0
 917.333 103 933.333 124 934 166 c 1
 934 200 l 1
 934 328 l 1
419 97 m 0
 449.667 97 474.667 112.333 494 143 c 0
 504 159.667 509 176.667 509 194 c 0
 509 198 509 198 509 201 c 0
 505.667 247 488.333 278 457 294 c 0
 445.667 300.667 433 304 419 304 c 1
 383 301.333 360.333 285.667 351 257 c 1
 346 222 l 1
 345.333 214.667 345 206 345 196 c 0
 347 144.667 360 113.667 384 103 c 0
 393.333 99 405 97 419 97 c 0
EndSplineSet
EndChar
StartChar: uni0E0D
Encoding: 3597 3597 137
Width: 1745
Flags: W
Fore
900 -203 m 1
 902 -162 l 1
 910 -104.667 937.333 -61.6667 984 -33 c 0
 1004.67 -20.3333 1027.33 -12.3333 1052 -9 c 1
 1089 -8 l 1
 1127 -10 1160 -25 1188 -53 c 0
 1212.67 -77.6667 1227.67 -107 1233 -141 c 1
 1234 -174 l 1
 1230.67 -222.667 1210.67 -260.667 1174 -288 c 2
 1167 -293 l 1
 1175.67 -296.333 1189.67 -298 1209 -298 c 0
 1239 -298 1268.33 -293.667 1297 -285 c 0
 1391 -255.667 1451.33 -205 1478 -133 c 0
 1490.67 -100.333 1497.67 -60.3333 1499 -13 c 1
 1615 -13 l 1
 1615 -145.667 1569 -249 1477 -323 c 0
 1445 -348.333 1409 -368.667 1369 -384 c 0
 1319 -404 1264.67 -414 1206 -414 c 0
 1112 -414 1035.33 -390.333 976 -343 c 0
 929.333 -305.667 904 -259 900 -203 c 1
1056 -84 m 1
 1026 -88.6667 1005 -104.333 993 -131 c 0
 988.333 -141 986 -152 986 -164 c 0
 986 -169.333 986.667 -175 988 -181 c 0
 994 -209 1010.67 -227.333 1038 -236 c 0
 1046 -239.333 1054.67 -241 1064 -241 c 0
 1068 -241 1072 -240.667 1076 -240 c 0
 1111.33 -234.667 1135.33 -217.667 1148 -189 c 0
 1152 -179.667 1154 -170 1154 -160 c 0
 1154 -156.667 1153.67 -153 1153 -149 c 0
 1148.33 -121 1132.67 -101 1106 -89 c 0
 1095.33 -85 1084 -83 1072 -83 c 2
 1056 -84 l 1
419 97 m 0
 449.667 97 474.667 112.333 494 143 c 0
 504 159.667 509 176.667 509 194 c 0
 509 198 509 198 509 201 c 0
 505.667 247 488.333 278 457 294 c 0
 445.667 300.667 433 304 419 304 c 1
 383 301.333 360.333 285.667 351 257 c 1
 346 222 l 1
 345.333 214.667 345 206 345 196 c 0
 347 144.667 360 113.667 384 103 c 0
 393.333 99 405 97 419 97 c 0
1085 673 m 2
 1085 310 l 2
 1085 236.667 1117 187.667 1181 163 c 0
 1203 154.333 1226 150 1250 150 c 0
 1254 150 l 0
 1318 151.333 1362 165.667 1386 193 c 0
 1408.67 219 1420 258 1420 310 c 2
 1420 1139 l 1
 1580 1139 l 1
 1580 241 l 2
 1580 172.333 1548.33 113.667 1485 65 c 0
 1419.67 15.6667 1339.33 -9.33333 1244 -10 c 1
 1188 -6 l 1
 1102 5.33333 1033.67 40 983 98 c 0
 944.333 142.667 925 193 925 249 c 2
 925 657 l 2
 925 761.667 905.333 838.667 866 888 c 0
 856 900.667 844.333 912.667 831 924 c 1
 822 930 l 2
 787.333 956 739 974.333 677 985 c 0
 659 987.667 642.667 989 628 989 c 0
 530 989 442 956.667 364 892 c 0
 340 872 318.667 849.667 300 825 c 1
 329.333 817.667 367.333 794.333 414 755 c 0
 456 719.667 481 689 489 663 c 1
 441.667 614.333 412 581 400 563 c 0
 374 525.667 358.667 491 354 459 c 0
 352 443.667 351 425 351 403 c 2
 351 369 l 1
 363 383 384.667 392 416 396 c 0
 419.333 396.667 423 397 427 397 c 2
 462 395 l 1
 496 389.667 526.667 373.667 554 347 c 0
 604 297 618 226.333 596 135 c 1
 584.667 92.3333 557.667 55.6667 515 25 c 0
 482.333 1.66667 445 -10.3333 403 -11 c 2
 394 -11 l 2
 340 -10.3333 294.667 8 258 44 c 0
 213.333 87.3333 191 158.667 191 258 c 2
 191 403 l 2
 191 459.667 200.667 507.333 220 546 c 0
 234.667 576 268 617.667 320 671 c 1
 294.667 701 252.333 731.333 193 762 c 0
 165.667 776 142 786 122 792 c 1
 135.333 854.667 171 917 229 979 c 0
 334.333 1092.33 467.333 1149 628 1149 c 0
 773.333 1149 889.667 1102 977 1008 c 1
 1049 922 1085 810.333 1085 673 c 2
EndSplineSet
EndChar
StartChar: uni0E0E
Encoding: 3598 3598 138
Width: 1375
Flags: W
Fore
262 98 m 0
 296.667 98 318.667 112.667 328 142 c 0
 332.667 155.333 335.333 173.667 336 197 c 0
 336 249.667 324.333 282.333 301 295 c 1
 278 303 l 1
 273.333 303.667 268 304.333 262 305 c 0
 224 305 197 285 181 245 c 0
 176.333 231.667 173.333 217.333 172 202 c 1
 174 177 l 1
 180.667 146.333 197.333 123.667 224 109 c 0
 236 101.667 248.667 98 262 98 c 0
1063 -209 m 1
 1064 658 l 1
 1064 740 1052.67 803.667 1030 849 c 0
 1014 881.667 991.333 909 962 931 c 0
 926.667 957 878 975.333 816 986 c 0
 798 988.667 781.667 990 767 990 c 0
 669 990 581 957.667 503 893 c 0
 479 873 457.667 850.667 439 826 c 1
 468.333 818.667 506.333 795.333 553 756 c 0
 595 720.667 620 690 628 664 c 1
 580.667 615.333 551 582 539 564 c 0
 513 526.667 497.667 491.667 493 459 c 0
 491 443.667 490 425.333 490 404 c 2
 490 259 l 2
 490 160.333 467.667 89 423 45 c 0
 386.333 9 341 -9.33333 287 -10 c 1
 242 -7 l 1
 216 -2.33333 190.667 8.66667 166 26 c 0
 123.333 56 96.3333 92.6667 85 136 c 0
 63 227.333 77 298 127 348 c 0
 161.667 382 201.333 399 246 399 c 0
 248.667 399 251.333 398.667 254 398 c 0
 287.333 396.667 312.667 387.333 330 370 c 1
 330 404 l 1
 330.667 461.333 340.333 509 359 547 c 0
 373.667 577 407 618.667 459 672 c 1
 433.667 702 391.333 732.333 332 763 c 0
 304.667 777 281 787 261 793 c 1
 274.333 855.667 310 918 368 980 c 0
 473.333 1093.33 606.333 1150 767 1150 c 0
 912.333 1150 1028.67 1103 1116 1009 c 1
 1188 923 1224 811.333 1224 674 c 2
 1224 -410 l 1
 1064 -410 l 1
 1010 -338.667 949.333 -277.667 882 -227 c 1
 867.333 -215 853 -204.667 839 -196 c 1
 818.333 -239.333 784 -283.333 736 -328 c 1
 715 -346 l 2
 665 -386 603.333 -408.333 530 -413 c 1
 502 -413 l 2
 443.333 -412.333 399.333 -393.667 370 -357 c 0
 352.667 -336.333 344 -304 344 -260 c 0
 344 -230 348.667 -203.333 358 -180 c 0
 374.667 -135.333 407.333 -94 456 -56 c 0
 489.333 -29.3333 539 -13 605 -7 c 1
 656 -7 l 1
 696.667 -9.66667 736 -18.6667 774 -34 c 1
 867 140 l 1
 973 105 l 1
 882 -76 l 1
 925.333 -97.3333 976 -132.667 1034 -182 c 0
 1046.67 -192.667 1056.33 -201.667 1063 -209 c 1
474 -210 m 0
 466.667 -234 467.333 -252 476 -264 c 0
 487.333 -280.667 505 -289 529 -289 c 0
 537.667 -289 547.333 -288 558 -286 c 0
 580 -282 606.333 -271 637 -253 c 1
 663 -239.667 686.667 -219 708 -191 c 0
 718.667 -176.333 727 -161.667 733 -147 c 1
 717 -129.667 685.667 -121 639 -121 c 2
 616 -121 l 2
 580 -121.667 544.333 -134.333 509 -159 c 1
 493 -171.667 481.333 -188.667 474 -210 c 0
EndSplineSet
EndChar
StartChar: uni0E0F
Encoding: 3599 3599 139
Width: 1375
Flags: W
Fore
262 98 m 0
 296.667 98 318.667 112.667 328 142 c 0
 332.667 155.333 335.333 173.667 336 197 c 0
 336 249.667 324.333 282.333 301 295 c 1
 278 303 l 1
 273.333 303.667 268 304.333 262 305 c 0
 224 305 197 285 181 245 c 0
 176.333 231.667 173.333 217.333 172 202 c 1
 174 177 l 1
 180.667 146.333 197.333 123.667 224 109 c 0
 236 101.667 248.667 98 262 98 c 0
1064 -209 m 1
 1064 658 l 2
 1064 740 1052.67 803.667 1030 849 c 0
 1014 881.667 991.333 909 962 931 c 0
 926.667 957 878 975.333 816 986 c 0
 798 988.667 781.667 990 767 990 c 0
 669 990 581 957.667 503 893 c 0
 479 873 457.667 850.667 439 826 c 1
 468.333 818.667 506.333 795.333 553 756 c 0
 595 720.667 620 690 628 664 c 1
 580.667 615.333 551 582 539 564 c 0
 513 526.667 497.667 491.667 493 459 c 0
 491 443.667 490 425.333 490 404 c 2
 490 259 l 2
 490 160.333 467.667 89 423 45 c 0
 386.333 9 341 -9.33333 287 -10 c 1
 242 -7 l 1
 216 -2.33333 190.667 8.66667 166 26 c 0
 123.333 56 96.3333 92.6667 85 136 c 0
 63 227.333 77 298 127 348 c 0
 161.667 382 201.333 399 246 399 c 0
 248.667 399 251.333 398.667 254 398 c 0
 287.333 396.667 312.667 387.333 330 370 c 1
 330 404 l 1
 330.667 461.333 340.333 509 359 547 c 0
 373.667 577 407 618.667 459 672 c 1
 433.667 702 391.333 732.333 332 763 c 0
 304.667 777 281 787 261 793 c 1
 274.333 855.667 310 918 368 980 c 0
 473.333 1093.33 606.333 1150 767 1150 c 0
 912.333 1150 1028.67 1103 1116 1009 c 1
 1188 923 1224 811.333 1224 674 c 2
 1224 -410 l 1
 1064 -410 l 1
 1026 -360 984.333 -311 939 -263 c 0
 933 -257 933 -257 928 -252 c 1
 924 -256 900.333 -277.667 857 -317 c 0
 839.667 -333 824.667 -348 812 -362 c 1
 790 -313.333 763 -271.333 731 -236 c 0
 715 -218 701 -207 689 -203 c 1
 667 -249 630.667 -294 580 -338 c 0
 570 -346 l 0
 520 -386 458.333 -408.333 385 -413 c 1
 357 -413 l 2
 298.333 -412.333 254.333 -393.667 225 -357 c 0
 207.667 -336.333 199 -304 199 -260 c 0
 199 -230 203.667 -203.333 213 -180 c 0
 229.667 -135.333 262.333 -94 311 -56 c 0
 344.333 -29.3333 394 -13 460 -7 c 1
 511 -7 l 1
 551.667 -9.66667 591 -18.6667 629 -34 c 1
 722 140 l 1
 828 105 l 1
 737 -76 l 1
 769.667 -104 791 -124.333 801 -137 c 0
 805.667 -143.667 809.333 -150 812 -156 c 1
 896 -64 l 1
 907.333 -53.3333 918 -44.6667 928 -38 c 1
 952 -57.3333 991 -105.667 1045 -183 c 2
 1064 -209 l 1
329 -210 m 0
 321.667 -234 322.333 -252 331 -264 c 0
 342.333 -280.667 360 -289 384 -289 c 0
 392.667 -289 402.333 -288 413 -286 c 0
 435 -282 461.333 -271 492 -253 c 1
 518 -239.667 541.667 -219 563 -191 c 0
 573.667 -176.333 582 -161.667 588 -147 c 1
 572 -129.667 540.667 -121 494 -121 c 2
 471 -121 l 2
 435 -121.667 399.333 -134.333 364 -159 c 1
 348 -171.667 336.333 -188.667 329 -210 c 0
EndSplineSet
EndChar
StartChar: uni0E10
Encoding: 3600 3600 140
Width: 1130
Flags: W
Fore
289 589 m 0
 258.333 589 233.333 573.667 214 543 c 0
 204 526.333 199 509.333 199 492 c 2
 199 485 l 1
 202.333 439 219.667 407.667 251 391 c 0
 262.333 385 275 382 289 382 c 1
 325 384.667 347.667 400.333 357 429 c 0
 361.667 443.667 364 464 364 490 c 1
 361.333 541.333 348 572.333 324 583 c 1
 301 588 l 2
 297 588.667 293 589 289 589 c 0
757 529 m 2
 757 583 706.333 625.333 605 656 c 0
 476.333 694.667 301.333 730 80 762 c 1
 94 829.333 121 894.333 161 957 c 0
 198.333 1015.67 250 1063 316 1099 c 0
 376.667 1132.33 454.333 1149 549 1149 c 0
 625.667 1149 697.333 1133.67 764 1103 c 0
 818.667 1077.67 880 1065 948 1065 c 0
 974 1065 997 1067.33 1017 1072 c 1
 978 917 l 1
 961.333 913 942 911.333 920 912 c 0
 858 912 804 921.667 758 941 c 0
 755.333 941.667 753 942.667 751 944 c 0
 675.667 980 604 998 536 998 c 0
 526.667 998 517.333 997.667 508 997 c 0
 448 993 396.667 966.667 354 918 c 0
 341.333 902.667 331.333 887.333 324 872 c 1
 463 849 l 1
 611.667 815 719.667 780 787 744 c 0
 873.667 698 917 641.333 917 574 c 2
 917 279 l 2
 917 167.667 879.333 86.6667 804 36 c 0
 758 5.33333 702.333 -10 637 -10 c 0
 450.333 -10 357 87.6667 357 283 c 2
 357 317 l 1
 345.667 303 324.333 294 293 290 c 0
 281 288 l 1
 247 291 l 1
 212.333 296.333 181.333 312.333 154 339 c 0
 104 389 90 459.667 112 551 c 0
 123.333 594.333 150.333 631 193 661 c 0
 225.667 684.333 263 696.333 305 697 c 0
 309 697 309 697 314 697 c 0
 368 696.333 413.333 678 450 642 c 0
 494.667 598.667 517 527.333 517 428 c 2
 517 283 l 2
 517 194.333 557 150 637 150 c 0
 713 150 752.667 189.333 756 268 c 0
 756.667 271.333 757 275 757 279 c 2
 757 529 l 2
772 -329 m 1
 772 -262 l 1
 762 -271.333 744 -276 718 -276 c 0
 712 -276 712 -276 707 -276 c 0
 680.333 -273.333 656.333 -263.333 635 -246 c 0
 609.667 -226.667 597 -201.333 597 -170 c 0
 597 -160 598.333 -149.333 601 -138 c 0
 601.667 -133.333 603 -128.667 605 -124 c 0
 612.333 -96.6667 632.667 -73.6667 666 -55 c 0
 690.667 -41 716.333 -34 743 -34 c 0
 794.333 -34 836 -44.6667 868 -66 c 0
 898.667 -86 916.667 -118.333 922 -163 c 0
 924 -178.333 925 -198.333 925 -223 c 2
 925 -530 l 1
 775 -530 l 1
 762.333 -478 741 -442.667 711 -424 c 0
 699.667 -416.667 687.333 -413 674 -413 c 0
 648 -413 620 -433.667 590 -475 c 0
 578 -491.667 568 -509.667 560 -529 c 1
 532 -474 l 1
 518 -449.333 496 -426.667 466 -406 c 1
 432.667 -448 401.333 -478.333 372 -497 c 1
 335.333 -517 293.333 -529 246 -533 c 1
 205 -534 l 1
 157 -530.667 117.667 -512 87 -478 c 0
 73.6667 -462.667 67 -441 67 -413 c 0
 67 -399.667 68.6667 -387.333 72 -376 c 0
 76 -366 l 0
 90 -336.667 111.667 -314.333 141 -299 c 0
 147 -296.333 153 -294 159 -292 c 1
 191 -276.667 231.667 -269 281 -269 c 0
 327 -269 372.667 -277.333 418 -294 c 1
 421 -291 l 2
 427.667 -281.667 444 -254 470 -208 c 1
 558 -230 l 1
 502 -324 l 1
 525.333 -338 543 -351.333 555 -364 c 0
 556.333 -365.333 557.333 -366.667 558 -368 c 1
 602.667 -312 641.333 -284 674 -284 c 0
 715.333 -284 748 -299 772 -329 c 1
732 -95 m 0
 714 -95 697.667 -104.667 683 -124 c 0
 675 -134 671 -144 671 -154 c 1
 674 -177 l 1
 681.333 -200.333 696.333 -214.667 719 -220 c 0
 723 -221.333 727.333 -222 732 -222 c 0
 763.333 -218.667 781 -202 785 -172 c 0
 785 -165 785 -165 785 -157 c 0
 785 -121 770.667 -100.667 742 -96 c 0
 738.667 -95.3333 735.333 -95 732 -95 c 0
148 -399 m 0
 145.333 -405.667 144 -412 144 -418 c 0
 143.333 -426.667 146 -434.667 152 -442 c 1
 167.333 -454.667 182.333 -461 197 -461 c 0
 201 -461 201 -461 204 -461 c 0
 239.333 -461 274.667 -453 310 -437 c 1
 324 -431.667 344.667 -412.667 372 -380 c 0
 378 -373.333 382.667 -367.333 386 -362 c 1
 367.333 -350 334 -344 286 -344 c 0
 248.667 -344 214.667 -350.667 184 -364 c 1
 164.667 -376 152.667 -387.667 148 -399 c 0
EndSplineSet
EndChar
StartChar: uni0E11
Encoding: 3601 3601 141
Width: 1700
Flags: W
Fore
303 603 m 1
 329 603 l 1
 357.667 607 380.333 622.333 397 649 c 0
 399 651.667 400.667 654 402 656 c 0
 410.667 674 415 693 415 713 c 0
 415 728.333 412.333 742 407 754 c 0
 398.333 775.333 384 790 364 798 c 0
 362 798.667 359.667 799.333 357 800 c 2
 329 803 l 1
 293.667 800.333 268 783.667 252 753 c 0
 249.333 747 247 740.667 245 734 c 0
 241 721.333 239 708.667 239 696 c 0
 239 674.667 244 655.667 254 639 c 0
 266.667 619 283 607 303 603 c 1
636 0 m 1
 636 128.667 635.667 324.333 635 587 c 0
 635 637 671.667 697 745 767 c 0
 756.333 777.667 761.5 793.5 760.5 814.5 c 128
 759.5 835.5 752 863 738 897 c 0
 726.667 923 705.333 950.333 674 979 c 1
 674 978.333 626 945.667 530 881 c 1
 393 963 l 1
 371 979 l 1
 352.333 966.333 335.333 942.667 320 908 c 1
 312 886 l 1
 324 892.667 338.333 896 355 896 c 0
 361.667 896 370 895.333 380 894 c 0
 425.333 888.667 463 861.333 493 812 c 0
 506.333 788.667 513 760.333 513 727 c 0
 513 680.333 502 636.333 480 595 c 0
 458.667 555.667 423 529 373 515 c 0
 354.333 509.667 334.667 507 314 507 c 0
 305.333 507 296.667 507.333 288 508 c 0
 234 514.667 188.667 544 152 596 c 0
 147 604 147 604 143 611 c 0
 123 645.667 113 697 113 765 c 0
 113 779.667 113.667 792.667 115 804 c 0
 122.333 871.333 149.667 940.333 197 1011 c 0
 229 1059.67 274 1100 332 1132 c 0
 348 1140.67 361 1146.33 371 1149 c 1
 371 1148.33 424 1112.33 530 1041 c 1
 674 1149 l 1
 713.333 1138.33 756.333 1110.33 803 1065 c 0
 812.333 1055.67 821.333 1046 830 1036 c 0
 865.333 995.333 892.667 936.333 912 859 c 0
 917.333 835.667 920.667 815 922 797 c 0
 922 789 922 789 922 783 c 1
 881 743 l 1
 823.667 682.333 795 630.333 795 587 c 1
 796 263 l 1
 1132 990 l 1
 1166 1068 1219.67 1115 1293 1131 c 0
 1307.67 1134.33 1322.67 1136 1338 1136 c 0
 1357.33 1135.33 1375.67 1132.67 1393 1128 c 0
 1457 1110 1499.67 1067.33 1521 1000 c 0
 1529.67 973.333 1534 943.333 1534 910 c 2
 1534 0 l 1
 1374 0 l 1
 1374 719 l 2
 1374 809 1366.33 864.333 1351 885 c 1
 1341 894 l 1
 1331 898 l 1
 1310 899 l 1
 1280.67 895 1254.33 869 1231 821 c 2
 1219 796 l 1
 838 0 l 1
 636 0 l 1
EndSplineSet
EndChar
StartChar: uni0E12
Encoding: 3602 3602 142
Width: 1850
Flags: W
Fore
993 734 m 2
 993 793.333 968 850.667 918 906 c 0
 885.333 942 851.333 966.333 816 979 c 1
 643 863 l 1
 479 979 l 1
 428.333 965 384 937 346 895 c 0
 331.333 879 320 862.333 312 845 c 0
 293.333 804.333 284 748 284 676 c 0
 284 630.667 288 589 296 551 c 1
 361 266 l 1
 365.667 241.333 369.667 218.333 373 197 c 1
 414.333 212.333 453.667 239.667 491 279 c 0
 518.333 308.333 535.333 337 542 365 c 1
 535.333 363 527.333 362 518 362 c 0
 458 362 414 386 386 434 c 1
 368 461.333 359 495.333 359 536 c 0
 359 574 366.333 609 381 641 c 1
 415 707 472.333 741.667 553 745 c 1
 587 743 l 1
 634.333 734.333 672 710 700 670 c 0
 705.333 662.667 710 655 714 647 c 0
 730.667 612.333 739 571 739 523 c 0
 739 508.333 738 493 736 477 c 0
 719.333 332.333 649 205 525 95 c 0
 477 52.3333 431.667 20.6667 389 0 c 1
 204 0 l 1
 204 108 l 2
 204 178 187 292 153 450 c 1
 131.667 541.333 121 625.333 121 702 c 0
 121 747.333 125 788.667 133 826 c 0
 159 938.667 215 1024.67 301 1084 c 0
 353.667 1120.67 413 1142.33 479 1149 c 1
 643 1033 l 1
 816 1149 l 1
 1040.67 1099 1153 941.667 1153 677 c 2
 1153 409 l 1
 1158.33 405.667 1193.33 374 1258 314 c 0
 1374.67 205.333 1450.67 151 1486 151 c 0
 1490.67 151 1495 152 1499 154 c 0
 1519.67 165.333 1530 199.333 1530 256 c 2
 1530 1139 l 1
 1690 1139 l 1
 1690 256 l 2
 1690 168.667 1680 108 1660 74 c 0
 1648 55.3333 1631.33 39 1610 25 c 0
 1580 5.66667 1548 -4 1514 -4 c 0
 1437.33 -4 1346.33 48.6667 1241 154 c 2
 1153 242 l 1
 1152 243 l 1
 1149 146 l 1
 1140.33 78 1112 31.3333 1064 6 c 0
 1042.67 -4.66667 1019.33 -10 994 -10 c 0
 947.333 -10 906.333 3.66667 871 31 c 2
 857 43 l 1
 813.667 87.6667 792 141.667 792 205 c 0
 792 267 806.667 319.333 836 362 c 0
 875.333 417.333 927.667 445.333 993 446 c 1
 993 734 l 2
1002 328 m 1
 962 328 932.667 306.667 914 264 c 0
 904.667 244 900 223.333 900 202 c 0
 900 162.667 909.667 133.333 929 114 c 0
 936.333 106.667 944.667 103 954 103 c 0
 985.333 103 1001.33 124 1002 166 c 1
 1002 200 l 1
 1002 328 l 1
544 647 m 1
 526 646 l 1
 500.667 639.333 480.667 622.333 466 595 c 0
 459.333 581.667 455.333 567.333 454 552 c 1
 454 516 l 1
 459.333 473.333 479.333 449.333 514 444 c 0
 516.667 443.333 519.333 443 522 443 c 2
 544 445 l 1
 574 453 593 477 601 517 c 0
 603 525 604 533.333 604 542 c 1
 603 585 l 1
 597.667 620.333 578 641 544 647 c 1
EndSplineSet
EndChar
StartChar: uni0E13
Encoding: 3603 3603 143
Width: 1900
Flags: W
Fore
928 657 m 2
 928 700.333 925.333 737.333 920 768 c 0
 907.333 838.667 876 892.667 826 930 c 0
 790.667 956 742 974.333 680 985 c 0
 662.667 987.667 646.333 989 631 989 c 0
 533 989 445.333 956.667 368 892 c 0
 343.333 872 321.667 849.667 303 825 c 1
 332.333 817.667 370.333 794.333 417 755 c 0
 459 719.667 484 689 492 663 c 1
 444.667 614.333 415 581 403 563 c 0
 377.667 525.667 362.667 491 358 459 c 0
 355.333 443.667 354 425 354 403 c 1
 355 369 l 1
 366.333 383 387.667 392 419 396 c 0
 423 396.667 426.667 397 430 397 c 2
 465 395 l 1
 499.667 389.667 530.667 373.667 558 347 c 0
 608 297 622 226.333 600 135 c 1
 588.667 92.3333 561.667 55.6667 519 25 c 0
 485.667 1.66667 448 -10.3333 406 -11 c 2
 398 -11 l 2
 344 -10.3333 298.667 8 262 44 c 0
 216.667 87.3333 194 158.667 194 258 c 2
 194 403 l 2
 194 459.667 203.667 507.333 223 546 c 0
 237.667 576 271 617.667 323 671 c 1
 297.667 701 255.333 731.333 196 762 c 0
 168.667 776 145 786 125 792 c 1
 138.333 854.667 174 917 232 979 c 0
 338 1092.33 471 1149 631 1149 c 0
 776.333 1149 892.667 1102 980 1008 c 1
 1052 922 1088 810.333 1088 673 c 2
 1088 256 l 2
 1088 209.333 1095.33 177.667 1110 161 c 0
 1112.67 158.333 1115.67 156 1119 154 c 0
 1126.33 149.333 1134.67 147 1144 147 c 0
 1188 147 1262.33 202.333 1367 313 c 0
 1423.67 372.333 1455 404.333 1461 409 c 1
 1461 459.667 1460.67 703 1460 1139 c 1
 1620 1139 l 1
 1620 446 l 1
 1686 445.333 1738.67 417.333 1778 362 c 0
 1807.33 319.333 1822 267 1822 205 c 0
 1822 141.667 1800.33 87.6667 1757 43 c 0
 1727.67 13.6667 1688.33 -3.66667 1639 -9 c 0
 1632.33 -9.66667 1626 -10 1620 -10 c 0
 1558 -10 1513 18.3333 1485 75 c 0
 1475 96.3333 1468 120 1464 146 c 1
 1462 243 l 1
 1448.67 233 1414.67 201.333 1360 148 c 1
 1286 74 1223.67 27.6667 1173 9 c 0
 1149.67 -0.333333 1126.67 -5 1104 -5 c 0
 1070.67 -5 1038.67 5 1008 25 c 0
 969.333 49.6667 945.333 86.6667 936 136 c 0
 930.667 164 928 204 928 256 c 2
 928 657 l 2
1612 328 m 1
 1612 200 l 2
 1612 164 1613.33 141.667 1616 133 c 0
 1622.67 113 1637.33 103 1660 103 c 0
 1681.33 103 1697 120.667 1707 156 c 0
 1711.67 170.667 1714 186 1714 202 c 0
 1714 242 1701.33 275 1676 301 c 0
 1658 319 1636.67 328 1612 328 c 1
422 97 m 0
 452.667 97 477.667 112.333 497 143 c 0
 507.667 159.667 513 176.667 513 194 c 0
 513 196.667 512.667 199 512 201 c 0
 508.667 247 491.667 278 461 294 c 0
 449 300.667 436 304 422 304 c 1
 386 301.333 363.667 285.667 355 257 c 1
 349 222 l 1
 348.333 214.667 348 206 348 196 c 0
 350.667 144.667 364 113.667 388 103 c 0
 396.667 99 408 97 422 97 c 0
EndSplineSet
EndChar
StartChar: uni0E14
Encoding: 3604 3604 144
Width: 1330
Flags: W
Fore
562 647 m 1
 544 646 l 1
 518.667 639.333 499 622.333 485 595 c 0
 477.667 581.667 473.333 567.333 472 552 c 1
 472 516 l 1
 477.333 473.333 497.333 449.333 532 444 c 0
 534.667 443.333 537.333 443 540 443 c 2
 562 445 l 1
 592 453 611 477 619 517 c 0
 621 525 622 533.333 622 542 c 1
 621 585 l 1
 615.667 620.333 596 641 562 647 c 1
407 0 m 1
 222 0 l 1
 222 108 l 2
 222 178 205 292 171 450 c 1
 149.667 541.333 139 619 139 683 c 0
 139 724.333 143 763.667 151 801 c 0
 178.333 919.667 250.333 1011 367 1075 c 0
 455.667 1123.67 553.333 1148.33 660 1149 c 1
 732 1145 l 1
 870 1131 978.333 1078.67 1057 988 c 0
 1133 901.333 1171 789.333 1171 652 c 2
 1171 0 l 1
 1011 0 l 1
 1011 708 l 2
 1011 786 974 852.667 900 908 c 0
 834.667 957.333 762 984.333 682 989 c 0
 664 989 l 0
 594 989 523.333 970 452 932 c 0
 390.667 900 350 862.667 330 820 c 0
 311.333 780 302 729.333 302 668 c 0
 302 628.667 306 589.667 314 551 c 1
 379 266 l 1
 383.667 241.333 387.667 218.333 391 197 c 1
 432.333 212.333 471.667 239.667 509 279 c 0
 536.333 308.333 553.333 337 560 365 c 1
 553.333 363 545.333 362 536 362 c 0
 476.667 362 432.667 386 404 434 c 1
 386 461.333 377 495.333 377 536 c 0
 377 574 384.333 609 399 641 c 1
 433 707 490.333 741.667 571 745 c 1
 605 743 l 1
 652.333 734.333 690 710 718 670 c 0
 723.333 662.667 728 655 732 647 c 0
 748.667 612.333 757 571 757 523 c 0
 757 508.333 756 493 754 477 c 0
 737.333 332.333 667 205 543 95 c 0
 495 52.3333 449.667 20.6667 407 0 c 1
EndSplineSet
EndChar
StartChar: uni0E15
Encoding: 3605 3605 145
Width: 1330
Flags: W
Fore
562 647 m 1
 544 646 l 1
 518.667 639.333 499 622.333 485 595 c 0
 477.667 581.667 473.333 567.333 472 552 c 1
 472 516 l 1
 477.333 473.333 497.333 449.333 532 444 c 0
 534.667 443.333 537.333 443 540 443 c 2
 562 445 l 1
 592 453 611 477 619 517 c 0
 621 525 622 533.333 622 542 c 1
 621 585 l 1
 615.667 620.333 596 641 562 647 c 1
407 0 m 1
 222 0 l 1
 222 108 l 2
 222 178 205 292 171 450 c 1
 149.667 541.333 139 625.333 139 702 c 0
 139 747.333 143 788.667 151 826 c 0
 177 938.667 233 1024.67 319 1084 c 0
 371.667 1120.67 431 1142.33 497 1149 c 1
 661 1033 l 1
 834 1149 l 1
 1058.67 1099 1171 941.667 1171 677 c 2
 1171 0 l 1
 1011 0 l 1
 1011 734 l 2
 1011 793.333 986 850.667 936 906 c 0
 903.333 942 869.333 966.333 834 979 c 1
 661 863 l 1
 497 979 l 1
 446.333 965 402 937 364 895 c 0
 349.333 879 338 862.333 330 845 c 0
 311.333 804.333 302 748 302 676 c 0
 302 630.667 306 589 314 551 c 1
 379 266 l 1
 383.667 241.333 387.667 218.333 391 197 c 1
 432.333 212.333 471.667 239.667 509 279 c 0
 536.333 308.333 553.333 337 560 365 c 1
 553.333 363 545.333 362 536 362 c 0
 476.667 362 432.667 386 404 434 c 1
 386 461.333 377 495.333 377 536 c 0
 377 574 384.333 609 399 641 c 1
 433 707 490.333 741.667 571 745 c 1
 605 743 l 1
 652.333 734.333 690 710 718 670 c 0
 723.333 662.667 728 655 732 647 c 0
 748.667 612.333 757 571 757 523 c 0
 757 508.333 756 493 754 477 c 0
 737.333 332.333 667 205 543 95 c 0
 495 52.3333 449.667 20.6667 407 0 c 1
EndSplineSet
EndChar
StartChar: uni0E16
Encoding: 3606 3606 146
Width: 1240
Flags: W
Fore
1085 0 m 1
 925 0 l 1
 925 657 l 2
 925 761 905.667 837.667 867 887 c 0
 854.333 903 839.333 917.333 822 930 c 0
 787.333 956 739 974.333 677 985 c 0
 659 987.667 642.667 989 628 989 c 0
 530 989 442 956.667 364 892 c 0
 340 872 318.667 849.667 300 825 c 1
 329.333 817.667 367.333 794.333 414 755 c 0
 456 719.667 481 689 489 663 c 1
 441.667 614.333 412 581 400 563 c 0
 374 525.667 358.667 491 354 459 c 0
 352 443.667 351 425 351 403 c 2
 351 369 l 1
 363 383 384.667 392 416 396 c 0
 419.333 396.667 423 397 427 397 c 2
 462 395 l 1
 496 389.667 526.667 373.667 554 347 c 0
 604 297 618 226.333 596 135 c 1
 584.667 92.3333 557.667 55.6667 515 25 c 0
 482.333 1.66667 445 -10.3333 403 -11 c 2
 394 -11 l 2
 340 -10.3333 294.667 8 258 44 c 0
 213.333 87.3333 191 158.667 191 258 c 2
 191 403 l 2
 191 459.667 200.667 507.333 220 546 c 0
 234.667 576 268 617.667 320 671 c 1
 294.667 701 252.333 731.333 193 762 c 0
 165.667 776 142 786 122 792 c 1
 135.333 854.667 171 917 229 979 c 0
 334.333 1092.33 467.333 1149 628 1149 c 0
 773.333 1149 889.667 1102 977 1008 c 1
 1049 922 1085 810.333 1085 673 c 2
 1085 0 l 1
419 97 m 0
 449.667 97 474.667 112.333 494 143 c 0
 504 159.667 509 176.667 509 194 c 0
 509 198 509 198 509 201 c 0
 505.667 247 488.333 278 457 294 c 0
 445.667 300.667 433 304 419 304 c 1
 383 301.333 360.333 285.667 351 257 c 1
 346 222 l 1
 345.333 214.667 345 206 345 196 c 0
 347 144.667 360 113.667 384 103 c 0
 393.333 99 405 97 419 97 c 0
EndSplineSet
EndChar
StartChar: uni0E17
Encoding: 3607 3607 147
Width: 1350
Flags: W
Fore
249 1042 m 0
 218.333 1042 193.333 1026.67 174 996 c 0
 164 979.333 159 962.333 159 945 c 2
 159 938 l 1
 162.333 892 179.667 860.667 211 844 c 0
 222.333 838 235 835 249 835 c 1
 285 837.667 307.667 853.333 317 882 c 0
 321.667 896.667 324 917 324 943 c 1
 321.333 994.333 308 1025.33 284 1036 c 0
 274.667 1040 263 1042 249 1042 c 0
318 0 m 1
 317 770 l 1
 305.667 756 284.333 747 253 743 c 0
 249 742.333 245 742 241 742 c 2
 207 744 l 1
 172.333 749.333 141.333 765.333 114 792 c 0
 64 842 50 912.667 72 1004 c 0
 83.3333 1047.33 110.333 1084 153 1114 c 0
 185.667 1137.33 223 1149.33 265 1150 c 0
 269 1150 269 1150 274 1150 c 0
 328 1149.33 373.333 1131 410 1095 c 0
 454.667 1051.67 477 980.333 477 881 c 1
 478 263 l 1
 814 990 l 1
 848 1068 901.667 1115 975 1131 c 0
 989.667 1134.33 1004.67 1136 1020 1136 c 0
 1039.33 1135.33 1057.67 1132.67 1075 1128 c 0
 1139 1110 1181.67 1067.33 1203 1000 c 0
 1211.67 973.333 1216 943.333 1216 910 c 2
 1216 0 l 1
 1056 0 l 1
 1056 719 l 1
 1056 824 l 1
 1053.33 866.667 1039 891.333 1013 898 c 1
 992 900 l 1
 961.333 896.667 932.667 866 906 808 c 1
 901 796 l 1
 520 0 l 1
 318 0 l 1
EndSplineSet
EndChar
StartChar: uni0E18
Encoding: 3608 3608 148
Width: 1250
Flags: W
Fore
864 480 m 2
 864 488.667 863.333 497 862 505 c 0
 852.667 560.333 811.667 600.667 739 626 c 0
 736.333 627.333 710 634.667 660 648 c 0
 454 703.333 281.667 741 143 761 c 1
 157 828.333 184 893.333 224 956 c 0
 261.333 1014.67 313 1062 379 1098 c 0
 413.667 1117.33 452.667 1131 496 1139 c 0
 530.667 1145 569.333 1148 612 1148 c 0
 688.667 1148 760.333 1132.67 827 1102 c 0
 881.667 1076.67 942.667 1064 1010 1064 c 0
 1036.67 1064 1060 1066.33 1080 1071 c 1
 1041 916 l 1
 1035 914.667 1028.33 913.667 1021 913 c 2
 970 911 l 1
 906.667 913 854.667 923.667 814 943 c 0
 748.667 974.333 686.333 992 627 996 c 1
 571 996 l 1
 541 994 511.667 985.333 483 970 c 0
 438.333 945.333 406.333 912.333 387 871 c 1
 425 863 l 2
 682.333 812.333 843.667 767.667 909 729 c 0
 920.333 722.333 930.667 715.333 940 708 c 1
 968 683 l 1
 1005.33 644.333 1024 589.333 1024 518 c 2
 1024 314 l 2
 1024 195.333 990.667 110.333 924 59 c 0
 863.333 13 763.333 -10 624 -10 c 0
 596.667 -10 571 -8.66667 547 -6 c 0
 349 13.3333 250 120 250 314 c 2
 250 650 l 1
 410 650 l 1
 410 314 l 2
 410 269.333 426.333 233 459 205 c 0
 499 170.333 554 152 624 150 c 0
 632 150 l 0
 668 150 703 155.333 737 166 c 0
 821.667 192 864 241.333 864 314 c 2
 864 480 l 2
EndSplineSet
EndChar
StartChar: uni0E19
Encoding: 3609 3609 149
Width: 1400
Flags: W
Fore
296 1042 m 0
 265.333 1042 240.333 1026.67 221 996 c 0
 211 979.333 206 962.333 206 945 c 2
 206 938 l 1
 209.333 892 226.667 860.667 258 844 c 0
 269.333 838 282 835 296 835 c 1
 332 837.667 354.667 853.333 364 882 c 0
 368.667 896.667 371 917 371 943 c 1
 368.333 994.333 355 1025.33 331 1036 c 1
 308 1041 l 2
 304 1041.67 300 1042 296 1042 c 0
364 256 m 2
 364 770 l 1
 352.667 756 331.333 747 300 743 c 0
 296 742.333 292 742 288 742 c 2
 254 744 l 1
 219.333 749.333 188.333 765.333 161 792 c 0
 111 842 97 912.667 119 1004 c 0
 130.333 1047.33 157.333 1084 200 1114 c 0
 232.667 1137.33 270 1149.33 312 1150 c 0
 316 1150 316 1150 321 1150 c 0
 375 1149.33 420.333 1131 457 1095 c 0
 501.667 1051.67 524 980.333 524 881 c 2
 524 256 l 2
 524 201.333 534.333 167.333 555 154 c 0
 562.333 149.333 571.333 147 582 147 c 0
 644.667 147.667 771.333 229 962 391 c 0
 978 404 978 404 984 409 c 1
 984 1139 l 1
 1144 1139 l 1
 1144 475 l 1
 1209.33 474.333 1261.67 446.333 1301 391 c 0
 1329.67 349.667 1344.33 295.667 1345 229 c 1
 1343 169 l 1
 1337.67 127.667 1324.67 93.3333 1304 66 c 0
 1270.67 22 1227.67 -2.66667 1175 -8 c 0
 1165 -9.33333 1154.33 -10 1143 -10 c 0
 1081 -10 1036 18.3333 1008 75 c 0
 998 96.3333 991.333 120 988 146 c 1
 985 243 l 1
 837 125 l 1
 722.333 39 626 -4.33333 548 -5 c 0
 522.667 -5 498.667 -0.333333 476 9 c 0
 465.333 13 454.667 18.3333 444 25 c 0
 406 49.6667 382 86.6667 372 136 c 0
 366.667 164 364 204 364 256 c 2
1135 328 m 1
 1135 200 l 2
 1135 164 1136.67 141.667 1140 133 c 0
 1146.67 113 1161 103 1183 103 c 0
 1205 103 1221 120.667 1231 156 c 0
 1235 170.667 1237 186 1237 202 c 0
 1237 242 1224.33 275 1199 301 c 0
 1181 319 1159.67 328 1135 328 c 1
EndSplineSet
EndChar
StartChar: uni0E1A
Encoding: 3610 3610 150
Width: 1300
Flags: W
Fore
260 1042 m 0
 229.333 1042 204.333 1026.67 185 996 c 0
 175 979.333 170 962.333 170 945 c 2
 170 938 l 1
 173.333 892 190.667 860.667 222 844 c 0
 233.333 838 246 835 260 835 c 1
 296 837.667 318.667 853.333 328 882 c 0
 332.667 896.667 335 917 335 943 c 1
 332.333 994.333 319 1025.33 295 1036 c 1
 272 1041 l 2
 268 1041.67 264 1042 260 1042 c 0
488 339 m 2
 488 241.667 535 182 629 160 c 0
 655.667 154 687 150.667 723 150 c 1
 789 152 l 1
 911 164 978.333 216 991 308 c 0
 992.333 318 993 328.333 993 339 c 2
 993 1139 l 1
 1153 1139 l 1
 1153 273 l 2
 1153 141.667 1090 56.6667 964 18 c 0
 902.667 -0.666667 820.667 -10 718 -10 c 0
 564.667 -10 455 27 389 101 c 0
 348.333 146.333 328 203.667 328 273 c 2
 328 770 l 1
 316.667 756 295.333 747 264 743 c 0
 260 742.333 256 742 252 742 c 2
 218 744 l 1
 183.333 749.333 152.333 765.333 125 792 c 0
 75 842 61 912.667 83 1004 c 0
 94.3333 1047.33 121.333 1084 164 1114 c 0
 196.667 1137.33 234 1149.33 276 1150 c 0
 280 1150 280 1150 285 1150 c 0
 339 1149.33 384.333 1131 421 1095 c 0
 465.667 1051.67 488 980.333 488 881 c 2
 488 339 l 2
EndSplineSet
EndChar
StartChar: uni0E1B
Encoding: 3611 3611 151
Width: 1300
Flags: W
Fore
267 1042 m 0
 236.333 1042 211.333 1026.67 192 996 c 0
 182 979.333 177 962.333 177 945 c 2
 177 938 l 1
 180.333 892 197.667 860.667 229 844 c 0
 240.333 838 253 835 267 835 c 1
 303 837.667 325.667 853.333 335 882 c 0
 339.667 896.667 342 917 342 943 c 1
 339.333 994.333 326 1025.33 302 1036 c 1
 279 1041 l 2
 275 1041.67 271 1042 267 1042 c 0
495 339 m 2
 495 241.667 542 182 636 160 c 0
 662.667 154 694 150.667 730 150 c 1
 796 152 l 1
 918 164 985.333 216 998 308 c 0
 999.333 318 1000 328.333 1000 339 c 2
 1000 1480 l 1
 1160 1480 l 1
 1160 273 l 2
 1160 141.667 1097 56.6667 971 18 c 0
 909.667 -0.666667 827.667 -10 725 -10 c 0
 571.667 -10 462 27 396 101 c 0
 355.333 146.333 335 203.667 335 273 c 2
 335 770 l 1
 323.667 756 302.333 747 271 743 c 0
 267 742.333 263 742 259 742 c 2
 225 744 l 1
 190.333 749.333 159.333 765.333 132 792 c 0
 82 842 68 912.667 90 1004 c 0
 101.333 1047.33 128.333 1084 171 1114 c 0
 203.667 1137.33 241 1149.33 283 1150 c 0
 287 1150 287 1150 292 1150 c 0
 346 1149.33 391.333 1131 428 1095 c 0
 472.667 1051.67 495 980.333 495 881 c 2
 495 339 l 2
EndSplineSet
EndChar
StartChar: uni0E1C
Encoding: 3612 3612 152
Width: 1200
Flags: W
Fore
362 1042 m 0
 327.333 1042 305.333 1027.33 296 998 c 0
 291.333 984.667 288.667 966.333 288 943 c 0
 288 890.333 299.667 857.667 323 845 c 0
 333 839.667 346 836.333 362 835 c 1
 400 835 427 855 443 895 c 0
 447.667 908.333 450.667 922.667 452 938 c 1
 450 963 l 1
 443.333 993.667 426.667 1016.33 400 1031 c 0
 388 1038.33 375.333 1042 362 1042 c 0
134 248 m 2
 134 881 l 2
 134 980.333 156.333 1051.67 201 1095 c 0
 237.667 1131 283 1149.33 337 1150 c 1
 382 1147 l 1
 408 1142.33 433.333 1131.33 458 1114 c 0
 500.667 1084 527.667 1047.33 539 1004 c 0
 561 912.667 547 842 497 792 c 0
 462.333 758 422.667 741 378 741 c 0
 375.333 741 372.667 741.333 370 742 c 0
 336.667 743.333 311.333 752.667 294 770 c 1
 294 248 l 2
 294 217.333 307.667 190.333 335 167 c 0
 354.333 150.333 374.333 142 395 142 c 0
 433.667 142 464.667 157.667 488 189 c 0
 500.667 207 507 226.667 507 248 c 2
 507 698 l 1
 667 698 l 1
 667 248 l 2
 667 215.333 683.667 187.667 717 165 c 0
 739 149.667 762.333 142 787 142 c 0
 821 142 847.333 159 866 193 c 0
 875.333 210.333 880 228.667 880 248 c 2
 880 1139 l 1
 1040 1139 l 1
 1040 248 l 2
 1040 150.667 1011.33 78.6667 954 32 c 0
 918.667 3.33333 875.667 -11.3333 825 -12 c 1
 755 -9 l 1
 692.333 -2.33333 641.667 20.3333 603 59 c 0
 600.333 62.3333 597.333 65.6667 594 69 c 1
 560.667 24.3333 508.667 -1.66667 438 -9 c 1
 378 -12 l 1
 327 -9 l 1
 229 5 168 60.3333 144 157 c 0
 137.333 185 134 215.333 134 248 c 2
EndSplineSet
EndChar
StartChar: uni0E1D
Encoding: 3613 3613 153
Width: 1200
Flags: W
Fore
361 1042 m 0
 326.333 1042 304.333 1027.33 295 998 c 0
 290.333 984.667 287.667 966.333 287 943 c 0
 287 890.333 298.667 857.667 322 845 c 0
 332 839.667 345 836.333 361 835 c 1
 399 835 426 855 442 895 c 0
 446.667 908.333 449.667 922.667 451 938 c 1
 449 963 l 1
 442.333 993.667 425.667 1016.33 399 1031 c 0
 387 1038.33 374.333 1042 361 1042 c 0
133 248 m 2
 133 881 l 2
 133 980.333 155.333 1051.67 200 1095 c 0
 236.667 1131 282 1149.33 336 1150 c 1
 381 1147 l 1
 407 1142.33 432.333 1131.33 457 1114 c 0
 499.667 1084 526.667 1047.33 538 1004 c 0
 560 912.667 546 842 496 792 c 0
 461.333 758 421.667 741 377 741 c 0
 374.333 741 371.667 741.333 369 742 c 0
 335.667 743.333 310.333 752.667 293 770 c 1
 293 248 l 2
 293 217.333 306.667 190.333 334 167 c 0
 353.333 150.333 373.333 142 394 142 c 0
 432.667 142 463.667 157.667 487 189 c 0
 499.667 207 506 226.667 506 248 c 2
 506 698 l 1
 666 698 l 1
 666 248 l 2
 666 215.333 682.667 187.667 716 165 c 0
 738 149.667 761.333 142 786 142 c 0
 820 142 846.333 159 865 193 c 0
 874.333 210.333 879 228.667 879 248 c 2
 879 1480 l 1
 1039 1480 l 1
 1039 248 l 2
 1039 150.667 1010.33 78.6667 953 32 c 0
 917.667 3.33333 874.667 -11.3333 824 -12 c 1
 754 -9 l 1
 691.333 -2.33333 640.667 20.3333 602 59 c 0
 599.333 62.3333 596.333 65.6667 593 69 c 1
 559.667 24.3333 507.667 -1.66667 437 -9 c 1
 377 -12 l 1
 326 -9 l 1
 228 5 167 60.3333 143 157 c 0
 136.333 185 133 215.333 133 248 c 2
EndSplineSet
EndChar
StartChar: uni0E1E
Encoding: 3614 3614 154
Width: 1350
Flags: W
Fore
301 248 m 2
 301 776 l 1
 281 756.667 255.333 747 224 747 c 0
 186 747 151 763 119 795 c 0
 69 844.333 55 914.333 77 1005 c 0
 88.3333 1049 115 1086 157 1116 c 0
 181.667 1133.33 207 1144 233 1148 c 1
 277 1151 l 1
 317 1150.33 356.667 1132.33 396 1097 c 0
 432 1063.67 453 1009 459 933 c 0
 460.333 909.667 461 877 461 835 c 2
 461 248 l 2
 461 217.333 474.667 190.333 502 167 c 0
 521.333 150.333 541.333 142 562 142 c 0
 600.667 142 631.667 157.667 655 189 c 0
 667.667 207 674 226.667 674 248 c 2
 674 1039 l 1
 834 1039 l 1
 834 248 l 2
 834 215.333 850.667 187.667 884 165 c 0
 906 149.667 929.333 142 954 142 c 0
 988 142 1014.33 159 1033 193 c 0
 1042.33 210.333 1047 228.667 1047 248 c 2
 1047 1139 l 1
 1207 1139 l 1
 1207 248 l 2
 1207 150.667 1178.33 78.6667 1121 32 c 1
 1092 12 l 1
 1058 -2 l 1
 1019 -10 l 2
 1010.33 -11.3333 1001.33 -12 992 -12 c 2
 922 -9 l 1
 859.333 -2.33333 808.667 20.3333 770 59 c 0
 767.333 62.3333 764.333 65.6667 761 69 c 1
 727.667 24.3333 675.667 -1.66667 605 -9 c 1
 545 -12 l 1
 494 -9 l 1
 396 5 335 60.3333 311 157 c 0
 304.333 185 301 215.333 301 248 c 2
246 1043 m 0
 219.333 1043 197.667 1028.67 181 1000 c 1
 171 976 l 1
 168 949 l 1
 168 946 168 946 168 944 c 0
 171.333 903.333 185.667 874.667 211 858 c 0
 221 850.667 232.667 847 246 847 c 0
 288 849.667 309 879.333 309 936 c 0
 309 950 l 0
 309 1012 288 1043 246 1043 c 0
EndSplineSet
EndChar
StartChar: uni0E1F
Encoding: 3615 3615 155
Width: 1450
Flags: W
Fore
365 248 m 2
 365 776 l 1
 345 756.667 319.333 747 288 747 c 0
 250 747 215 763 183 795 c 0
 133 844.333 119 914.333 141 1005 c 0
 152.333 1049 179 1086 221 1116 c 0
 245.667 1133.33 271 1144 297 1148 c 1
 341 1151 l 1
 381 1150.33 420.667 1132.33 460 1097 c 0
 496 1063.67 517 1009 523 933 c 0
 524.333 909.667 525 877 525 835 c 2
 525 248 l 2
 525 217.333 538.667 190.333 566 167 c 0
 585.333 150.333 605.333 142 626 142 c 0
 664.667 142 695.667 157.667 719 189 c 0
 731.667 207 738 226.667 738 248 c 2
 738 1039 l 1
 898 1039 l 1
 898 248 l 2
 898 215.333 914.667 187.667 948 165 c 0
 970 149.667 993.333 142 1018 142 c 0
 1052 142 1078.33 159 1097 193 c 0
 1106.33 210.333 1111 228.667 1111 248 c 2
 1111 1480 l 1
 1271 1480 l 1
 1271 248 l 2
 1271 150.667 1242.33 78.6667 1185 32 c 1
 1156 12 l 1
 1122 -2 l 1
 1083 -10 l 2
 1074.33 -11.3333 1065.33 -12 1056 -12 c 2
 986 -9 l 1
 923.333 -2.33333 872.667 20.3333 834 59 c 0
 831.333 62.3333 828.333 65.6667 825 69 c 1
 791.667 24.3333 739.667 -1.66667 669 -9 c 1
 609 -12 l 1
 558 -9 l 1
 460 5 399 60.3333 375 157 c 0
 368.333 185 365 215.333 365 248 c 2
310 1043 m 0
 283.333 1043 261.667 1028.67 245 1000 c 1
 235 976 l 1
 232 949 l 1
 232 946 232 946 232 944 c 0
 235.333 903.333 249.667 874.667 275 858 c 0
 285 850.667 296.667 847 310 847 c 0
 352 849.667 373 879.333 373 936 c 0
 373 950 l 0
 373 1012 352 1043 310 1043 c 0
EndSplineSet
EndChar
StartChar: uni0E20
Encoding: 3616 3616 156
Width: 1350
Flags: W
Fore
250 97 m 0
 284.667 97 306.667 111.667 316 141 c 0
 320.667 154.333 323.333 172.667 324 196 c 0
 324 248.667 312.333 281.333 289 294 c 0
 279 299.333 266 302.667 250 304 c 1
 212 304 185 284 169 244 c 0
 164.333 230.667 161.333 216.333 160 201 c 1
 162 176 l 1
 168.667 145.333 185.333 122.667 212 108 c 0
 224 100.667 236.667 97 250 97 c 0
478 403 m 2
 478 258 l 2
 478 159.333 455.667 88 411 44 c 0
 374.333 8 329 -10.3333 275 -11 c 1
 230 -8 l 1
 204 -3.33333 178.667 7.66667 154 25 c 0
 111.333 55 84.3333 91.6667 73 135 c 0
 51 226.333 65 297 115 347 c 0
 149.667 381 189.333 398 234 398 c 0
 236.667 398 239.333 397.667 242 397 c 0
 275.333 395.667 300.667 386.333 318 369 c 1
 318 391.667 318.167 417.333 318.5 446 c 128
 318.833 474.667 328.333 508 347 546 c 0
 361.667 576 395 617.667 447 671 c 1
 421.667 701 379.333 731.333 320 762 c 0
 292.667 776 269 786 249 792 c 1
 262.333 854.667 298 917 356 979 c 0
 461.333 1092.33 594.333 1149 755 1149 c 0
 900.333 1149 1016.67 1102 1104 1008 c 1
 1176 922 1212 810.333 1212 673 c 2
 1212 0 l 1
 1052 0 l 1
 1052 657 l 2
 1052 761 1032.67 837.667 994 887 c 0
 981.333 903 966.667 917.333 950 930 c 0
 914.667 956 866 974.333 804 985 c 0
 786 987.667 769.667 989 755 989 c 0
 657 989 569 956.667 491 892 c 0
 467 872 445.667 849.667 427 825 c 1
 456.333 817.667 494.333 794.333 541 755 c 0
 583 719.667 608 689 616 663 c 1
 568.667 614.333 539 581 527 563 c 0
 501 525.667 485.667 490.667 481 458 c 0
 479 442.667 478 424.333 478 403 c 2
EndSplineSet
EndChar
StartChar: uni0E21
Encoding: 3617 3617 157
Width: 1350
Flags: W
Fore
303 1042 m 0
 272.333 1042 247.333 1026.67 228 996 c 0
 218 979.333 213 962.333 213 945 c 2
 213 938 l 1
 216.333 892 233.667 860.667 265 844 c 0
 276.333 838 289 835 303 835 c 1
 339 837.667 361.667 853.333 371 882 c 0
 375.667 896.667 378 917 378 943 c 1
 375.333 994.333 362 1025.33 338 1036 c 0
 328.667 1040 317 1042 303 1042 c 0
371 446 m 1
 371 770 l 1
 363.667 758.667 346.667 749.333 320 742 c 0
 312.667 740.667 306 739.667 300 739 c 1
 266 741 l 1
 228.667 747.667 196 764.667 168 792 c 0
 118 842 104 912.667 126 1004 c 0
 137.333 1047.33 164.333 1084 207 1114 c 0
 239.667 1137.33 277 1149.33 319 1150 c 0
 323 1150 323 1150 328 1150 c 0
 382 1149.33 427.333 1131 464 1095 c 0
 508.667 1051.67 531 980.333 531 881 c 2
 531 409 l 1
 661 301 l 1
 791 198.333 881.667 147 933 147 c 0
 943.667 147 952.667 149.333 960 154 c 0
 980.667 167.333 991 201.333 991 256 c 2
 991 1139 l 1
 1151 1139 l 1
 1151 256 l 2
 1151 168.667 1141 108 1121 74 c 0
 1109 55.3333 1092.33 39 1071 25 c 0
 1040.33 5 1005.67 -5 967 -5 c 0
 903.667 -5 829 23 743 79 c 0
 715.667 97 685.667 118.667 653 144 c 1
 530 243 l 1
 527 146 l 1
 518.333 78 490 31.3333 442 6 c 0
 420.667 -4.66667 397.333 -10 372 -10 c 0
 324.667 -10 283.333 4 248 32 c 0
 243.333 35.3333 239 39 235 43 c 0
 191.667 87.6667 170 141.667 170 205 c 0
 170 267 184.667 319.333 214 362 c 0
 253.333 417.333 305.667 445.333 371 446 c 1
380 328 m 1
 340 328 310.667 306.667 292 264 c 0
 282.667 244 278 223.333 278 202 c 0
 278 162.667 287.667 133.333 307 114 c 0
 314.333 106.667 322.667 103 332 103 c 0
 363.333 103 379.333 124 380 166 c 1
 380 200 l 1
 380 328 l 1
EndSplineSet
EndChar
StartChar: uni0E22
Encoding: 3618 3618 158
Width: 1200
Flags: W
Fore
416 1046 m 0
 381.333 1046 359.333 1031.33 350 1002 c 0
 345.333 988.667 342.667 970.333 342 947 c 0
 342 894.333 353.667 861.667 377 849 c 0
 387 843.667 400 840.333 416 839 c 1
 454.667 839 481.667 859 497 899 c 0
 501.667 912.333 504.667 926.667 506 942 c 1
 504 967 l 1
 498 997.667 481.333 1020.33 454 1035 c 0
 442 1042.33 429.333 1046 416 1046 c 0
219 451 m 0
 241 493 284.667 530 350 562 c 1
 318 568 284 587.333 248 620 c 0
 215.333 648.667 195 701 187 777 c 0
 185 795 184 813 184 831 c 0
 184 905 187.333 955.667 194 983 c 0
 204.667 1023.67 227 1060.33 261 1093 c 0
 293.667 1125.67 337 1144.33 391 1149 c 1
 436 1149 l 1
 484 1145 526 1122 562 1080 c 0
 565 1076 565 1076 569 1071 c 0
 598.333 1034.33 613 986 613 926 c 0
 613 873.333 596.333 829.667 563 795 c 0
 529 761 485 743.667 431 743 c 1
 393 746 l 1
 371.667 750.667 353.667 758.667 339 770 c 1
 341 741 l 1
 343 729 346.667 718 352 708 c 0
 362.667 687.333 378 671.333 398 660 c 0
 438 637.333 484.333 624 537 620 c 0
 559.667 618.667 588.667 618 624 618 c 1
 624 505 l 1
 527.333 505 460.333 497 423 481 c 0
 371 457.667 345 413 345 347 c 0
 345.667 250.333 388.667 189.667 474 165 c 0
 510 155 556 150 612 150 c 0
 618 150 l 0
 711.333 150.667 775.667 164.667 811 192 c 0
 848.333 220.667 867 270.333 867 341 c 2
 867 1139 l 1
 1027 1139 l 1
 1027 269 l 2
 1027 143.667 971 61.3333 859 22 c 0
 798.333 0.666667 716.667 -10 614 -10 c 0
 456 -10 345.333 19.3333 282 78 c 0
 234.667 121.333 207.667 183.333 201 264 c 1
 199 349 l 1
 201 395.667 207.667 429.667 219 451 c 0
EndSplineSet
EndChar
StartChar: uni0E23
Encoding: 3619 3619 159
Width: 1100
Flags: W
Fore
883 303 m 2
 883 207 876.667 142.333 864 109 c 0
 854.667 83.6667 839.333 61.3333 818 42 c 0
 780 7.33333 741 -10.3333 701 -11 c 1
 657 -8 l 2
 655 -8 l 0
 609 -1.33333 569 22.6667 535 64 c 0
 504.333 101.333 489 150.333 489 211 c 0
 489 265.667 506.333 310 541 344 c 0
 583.667 386.667 631.667 400.667 685 386 c 0
 700.333 381.333 713 373.667 723 363 c 1
 723 529 l 2
 723 583.667 691.667 626 629 656 c 1
 520.333 692 345.333 727.333 104 762 c 1
 118 829.333 145 894.333 185 957 c 0
 222.333 1015.67 274 1063 340 1099 c 0
 400.667 1132.33 478.333 1149 573 1149 c 0
 649.667 1149 721.333 1133.67 788 1103 c 0
 843.333 1077.67 904.667 1065 972 1065 c 0
 998 1065 1021 1067.33 1041 1072 c 1
 1002 917 l 1
 986 913 966.667 911.333 944 912 c 0
 882 912 828 921.667 782 941 c 0
 779.333 941.667 777 942.667 775 944 c 0
 699.667 980 628.333 998 561 998 c 0
 551 998 541.333 997.667 532 997 c 0
 472.667 993 421.667 966.667 379 918 c 0
 365.667 902.667 355.333 887.333 348 872 c 1
 487 849 l 1
 610.333 821 705.333 786.333 772 745 c 0
 835.333 706.333 871.333 659 880 603 c 0
 882 593.667 883 584 883 574 c 2
 883 573 l 1
 883 303 l 2
741 189 m 0
 741 258.333 717.667 293 671 293 c 0
 635 293 609.667 273.667 595 235 c 0
 589.667 221.667 586.667 207.667 586 193 c 1
 588 166 l 1
 595.333 135.333 611.667 113 637 99 c 0
 646.333 94.3333 655.667 92 665 92 c 0
 711.667 92 736.667 119 740 173 c 0
 740.667 178.333 741 183.667 741 189 c 0
EndSplineSet
EndChar
StartChar: uni0E24
Encoding: 3620 3620 160
Width: 1240
Flags: W
Fore
1085 -380 m 1
 925 -380 l 1
 925 657 l 2
 925 761 905.667 837.667 867 887 c 0
 854.333 903 839.333 917.333 822 930 c 0
 787.333 956 739 974.333 677 985 c 0
 659 987.667 642.667 989 628 989 c 0
 530 989 442 956.667 364 892 c 0
 340 872 318.667 849.667 300 825 c 1
 329.333 817.667 367.333 794.333 414 755 c 0
 456 719.667 481 689 489 663 c 1
 441.667 614.333 412 581 400 563 c 0
 374 525.667 358.667 491 354 459 c 0
 352 443.667 351 425 351 403 c 2
 351 369 l 1
 363 383 384.667 392 416 396 c 0
 419.333 396.667 423 397 427 397 c 2
 462 395 l 1
 496 389.667 526.667 373.667 554 347 c 0
 604 297 618 226.333 596 135 c 1
 584.667 92.3333 557.667 55.6667 515 25 c 0
 482.333 1.66667 445 -10.3333 403 -11 c 2
 394 -11 l 2
 340 -10.3333 294.667 8 258 44 c 0
 213.333 87.3333 191 158.667 191 258 c 2
 191 403 l 2
 191 459.667 200.667 507.333 220 546 c 0
 234.667 576 268 617.667 320 671 c 1
 294.667 701 252.333 731.333 193 762 c 0
 165.667 776 142 786 122 792 c 1
 135.333 854.667 171 917 229 979 c 0
 334.333 1092.33 467.333 1149 628 1149 c 0
 773.333 1149 889.667 1102 977 1008 c 1
 1049 922 1085 810.333 1085 673 c 2
 1085 -380 l 1
419 97 m 0
 449.667 97 474.667 112.333 494 143 c 0
 504 159.667 509 176.667 509 194 c 0
 509 198 509 198 509 201 c 0
 505.667 247 488.333 278 457 294 c 0
 445.667 300.667 433 304 419 304 c 1
 383 301.333 360.333 285.667 351 257 c 1
 346 222 l 1
 345.333 214.667 345 206 345 196 c 0
 347 144.667 360 113.667 384 103 c 0
 393.333 99 405 97 419 97 c 0
EndSplineSet
EndChar
StartChar: uni0E25
Encoding: 3621 3621 161
Width: 1255
Flags: W
Fore
221 435 m 2
 221 515.667 248.333 578.667 303 624 c 0
 321 639.333 343.333 654 370 668 c 0
 434 702.667 509.667 720 597 720 c 0
 677.667 720 754 705.667 826 677 c 0
 876 657.667 908.667 635 924 609 c 1
 924 714 l 2
 924 796.667 907.667 854.667 875 888 c 1
 823 938.667 754 970.667 668 984 c 0
 646 987.333 623.667 989 601 989 c 0
 510.333 989 431 962.333 363 909 c 0
 335.667 887 313.667 862.333 297 835 c 1
 157 929 l 1
 196.333 995.667 260.667 1050 350 1092 c 0
 430 1130 512.667 1149 598 1149 c 0
 787.333 1149 922.667 1096 1004 990 c 0
 1057.33 921.333 1084 829 1084 713 c 2
 1084 0 l 1
 924 0 l 1
 924 263 l 2
 924 376.333 882 459 798 511 c 0
 744.667 543.667 679 560 601 560 c 0
 491.667 560 422.667 530.333 394 471 c 0
 385.333 453 381 431.667 381 407 c 2
 381 369 l 1
 392.333 383 414 392 446 396 c 0
 450 396.667 453.667 397 457 397 c 2
 492 395 l 1
 526 389.667 556.667 373.667 584 347 c 0
 634 297 648 226.333 626 135 c 0
 615.333 92.3333 588.333 55.6667 545 25 c 0
 512.333 1.66667 475 -10.3333 433 -11 c 2
 424 -11 l 2
 370 -10.3333 324.667 8 288 44 c 0
 243.333 87.3333 221 158.667 221 258 c 2
 221 435 l 2
449 97 m 0
 479.667 97 504.667 112.333 524 143 c 0
 534 159.667 539 176.667 539 194 c 0
 539 198 539 198 539 201 c 0
 535.667 247 518.333 278 487 294 c 0
 475.667 300.667 463 304 449 304 c 1
 413 301.333 390.667 285.667 382 257 c 1
 376 222 l 1
 375.333 214.667 375 206 375 196 c 0
 377 144.667 390 113.667 414 103 c 0
 423.333 99 435 97 449 97 c 0
EndSplineSet
EndChar
StartChar: uni0E26
Encoding: 3622 3622 162
Width: 1350
Flags: W
Fore
250 97 m 0
 284.667 97 306.667 111.667 316 141 c 0
 320.667 154.333 323.333 172.667 324 196 c 0
 324 248.667 312.333 281.333 289 294 c 0
 279 299.333 266 302.667 250 304 c 1
 212 304 185 284 169 244 c 0
 164.333 230.667 161.333 216.333 160 201 c 1
 162 176 l 1
 168.667 145.333 185.333 122.667 212 108 c 0
 224 100.667 236.667 97 250 97 c 0
478 403 m 2
 478 258 l 2
 478 159.333 455.667 88 411 44 c 0
 374.333 8 329 -10.3333 275 -11 c 1
 230 -8 l 1
 204 -3.33333 178.667 7.66667 154 25 c 0
 111.333 55 84.3333 91.6667 73 135 c 0
 51 226.333 65 297 115 347 c 0
 149.667 381 189.333 398 234 398 c 0
 236.667 398 239.333 397.667 242 397 c 0
 275.333 395.667 300.667 386.333 318 369 c 1
 318 403 l 1
 318.667 460.333 328.333 508 347 546 c 0
 361.667 576 395 617.667 447 671 c 1
 421.667 701 379.333 731.333 320 762 c 0
 292.667 776 269 786 249 792 c 1
 262.333 854.667 298 917 356 979 c 0
 461.333 1092.33 594.333 1149 755 1149 c 0
 900.333 1149 1016.67 1102 1104 1008 c 1
 1176 922 1212 810.333 1212 673 c 2
 1212 -380 l 1
 1052 -380 l 1
 1052 657 l 2
 1052 761 1032.67 837.667 994 887 c 0
 981.333 903 966.667 917.333 950 930 c 0
 914.667 956 866 974.333 804 985 c 0
 786 987.667 769.667 989 755 989 c 0
 657 989 569 956.667 491 892 c 0
 467 872 445.667 849.667 427 825 c 1
 456.333 817.667 494.333 794.333 541 755 c 0
 583 719.667 608 689 616 663 c 1
 568.667 614.333 539 581 527 563 c 0
 501 525.667 485.667 490.667 481 458 c 0
 479 442.667 478 424.333 478 403 c 2
EndSplineSet
EndChar
StartChar: uni0E27
Encoding: 3623 3623 163
Width: 1150
Flags: W
Fore
765 97 m 0
 799.667 97 821.667 111.667 831 141 c 0
 835.667 154.333 838.333 172.667 839 196 c 0
 839 248.667 827.333 281.333 804 294 c 0
 794 299.333 781 302.667 765 304 c 1
 727 304 700 284 684 244 c 0
 679.333 230.667 676.333 216.333 675 201 c 1
 677 176 l 1
 683.667 145.333 700.333 122.667 727 108 c 0
 739 100.667 751.667 97 765 97 c 0
994 714 m 2
 994 258 l 2
 994 159.333 971.333 88 926 44 c 0
 889.333 8 844 -10.3333 790 -11 c 1
 745 -8 l 1
 719 -3.33333 693.667 7.66667 669 25 c 0
 626.333 55 599.333 91.6667 588 135 c 0
 566 226.333 580 297 630 347 c 0
 664.667 381 704.333 398 749 398 c 0
 751.667 398 754.333 397.667 757 397 c 0
 791 395.667 816.667 386.333 834 369 c 1
 834 715 834 715 834 773 c 128
 834 811.667 819.667 848.333 791 883 c 1
 777 897 l 0
 711 958.333 622.667 989 512 989 c 0
 402.667 989 308 948 228 866 c 0
 219.333 857.333 210.667 848 202 838 c 1
 68 929 l 1
 108.667 996.333 173.667 1051 263 1093 c 0
 342.333 1130.33 424.667 1149 510 1149 c 0
 623.333 1149 729.333 1119 828 1059 c 0
 899.333 1015.67 946.667 959.667 970 891 c 1
 983 839 l 1
 990.333 803 994 761.333 994 714 c 2
EndSplineSet
EndChar
StartChar: uni0E28
Encoding: 3624 3624 164
Width: 1300
Flags: W
Fore
718 630 m 0
 707.333 638 694.333 642 679 642 c 0
 643 642 613.333 624 590 588 c 1
 585 579 l 2
 577 564.333 572.667 549 572 533 c 0
 572 521 574.333 509.667 579 499 c 0
 586.333 479.667 599 464.333 617 453 c 0
 628.333 446.333 640.333 443 653 443 c 0
 664.333 443 675.667 445.333 687 450 c 0
 717 463.333 738.333 487.667 751 523 c 0
 754.333 532.333 755.667 542.667 755 554 c 0
 755 587.333 742.667 612.667 718 630 c 0
936 1059 m 1
 985.333 1093 1027.33 1148 1062 1224 c 1
 1280 1224 l 1
 1243.33 1108 1171.67 1011.33 1065 934 c 1
 1108.33 867.333 1130 773 1130 651 c 2
 1130 0 l 1
 970 0 l 1
 970 702 l 2
 970 739.333 960 778.333 940 819 c 0
 937.333 825.667 934.333 831.667 931 837 c 0
 905.667 878.333 863 915.333 803 948 c 0
 753 975.333 690.667 989 616 989 c 0
 548.667 989 489 976 437 950 c 1
 391.667 928.667 351.333 895.333 316 850 c 1
 304 836 294.667 822 288 808 c 0
 268.667 768 259 714 259 646 c 0
 259 602.667 263.333 562.333 272 525 c 1
 315 256 l 1
 336.333 374.667 367 475.667 407 559 c 0
 419 584.333 431 605 443 621 c 0
 479 671 523.667 707.333 577 730 c 0
 585 733.333 592.667 736 600 738 c 0
 617.333 743.333 636.667 746 658 746 c 0
 704.667 746 743.667 733.333 775 708 c 0
 825 668 851.667 619.333 855 562 c 1
 853 527 l 1
 849 511 l 1
 833 458.333 805 415 765 381 c 0
 745.667 365 725.667 354 705 348 c 0
 688.333 344 671.667 342 655 342 c 0
 620.333 342 591 351.333 567 370 c 0
 544.333 388.667 530 406.667 524 424 c 1
 480 328.667 442.333 222 411 104 c 0
 400.333 62 393.333 27.3333 390 0 c 1
 180 0 l 1
 180 108 l 2
 180 160.667 163 266 129 424 c 1
 108.333 513.333 98 596.333 98 673 c 0
 98 766.333 113.667 841 145 897 c 1
 184.333 963.667 235 1017 297 1057 c 1
 389.667 1114.33 487 1145 589 1149 c 0
 611 1149 l 0
 712.333 1148.33 798.333 1130.33 869 1095 c 1
 893 1084.33 915.333 1072.33 936 1059 c 1
EndSplineSet
EndChar
StartChar: uni0E29
Encoding: 3625 3625 165
Width: 1350
Flags: W
Fore
227 1039 m 0
 196.333 1039 171.333 1023.67 152 993 c 0
 142 976.333 137 959.333 137 942 c 2
 137 935 l 1
 140.333 889 157.667 857.667 189 841 c 0
 200.333 835 213 832 227 832 c 1
 263 834.667 285.667 850.333 295 879 c 0
 299.667 893.667 302 914 302 940 c 1
 299.333 991.333 286 1022.33 262 1033 c 0
 252.667 1037 241 1039 227 1039 c 0
960 433 m 1
 942 425.667 920 422 894 422 c 0
 840.667 422 794 433.667 754 457 c 0
 717.333 479 690.333 512.333 673 557 c 0
 663.667 579.667 659.333 602.333 660 625 c 0
 660 641.667 662.333 657.667 667 673 c 1
 675 706.333 697 731.667 733 749 c 0
 751.667 758.333 772 763 794 763 c 0
 811.333 763 828.667 760 846 754 c 0
 873.333 744 893.667 726.667 907 702 c 0
 919.667 680 925 655.333 923 628 c 1
 918.333 598 903.667 574.333 879 557 c 0
 870.333 551.667 862 548 854 546 c 1
 862 535.333 879.667 529.667 907 529 c 1
 937 532 l 1
 945.667 534 953.333 537 960 541 c 1
 960 1136 l 1
 1120 1136 l 1
 1120 652 l 1
 1147.33 679.333 1161 719 1161 771 c 1
 1268 767 l 1
 1268 724 l 1
 1263.33 672.667 1248.33 626.667 1223 586 c 0
 1201 552 1166.67 520.333 1120 491 c 1
 1120 273 l 2
 1120 153 1073.67 72.3333 981 31 c 0
 918.333 3.66667 824 -10 698 -10 c 0
 540.667 -10 427.667 26.3333 359 99 c 0
 316.333 143.667 295 200.667 295 270 c 2
 295 767 l 1
 283.667 753 262.333 744 231 740 c 0
 219 738 l 1
 185 741 l 1
 150.333 746.333 119.333 762.333 92 789 c 0
 42 839 28 909.667 50 1001 c 0
 61.3333 1044.33 88.3333 1081 131 1111 c 0
 163.667 1134.33 201 1146.33 243 1147 c 0
 247 1147 247 1147 252 1147 c 0
 306 1146.33 351.333 1128 388 1092 c 0
 432.667 1048.67 455 977.333 455 878 c 2
 455 336 l 2
 455 243.333 497.667 185.667 583 163 c 0
 612.333 155 648 150.667 690 150 c 1
 757 152 l 1
 891.667 165.333 959.333 226.667 960 336 c 1
 960 433 l 1
837 595 m 1
 851 611 857.667 626 857 640 c 0
 857 654 850.333 668.667 837 684 c 1
 823.667 697.333 808.667 704 792 704 c 0
 784.667 704 777.333 702.667 770 700 c 0
 761.333 696.667 753.333 691.333 746 684 c 0
 732.667 670.667 726 656.333 726 641 c 0
 726 625.667 732.667 610.333 746 595 c 1
 758.667 583 774 577 792 577 c 0
 810 577 825 583 837 595 c 1
EndSplineSet
EndChar
StartChar: uni0E2A
Encoding: 3626 3626 166
Width: 1250
Flags: W
Fore
421 97 m 0
 451.667 97 476.667 112.333 496 143 c 0
 506 159.667 511 176.667 511 194 c 0
 511 198 511 198 511 201 c 0
 507.667 247 490.333 278 459 294 c 0
 447.667 300.667 435 304 421 304 c 1
 385 301.333 362.667 285.667 354 257 c 1
 348 222 l 1
 347.333 214.667 347 206 347 196 c 0
 349 144.667 362 113.667 386 103 c 0
 395.333 99 407 97 421 97 c 0
1009 938 m 1
 1040.33 876.667 1056 801.667 1056 713 c 2
 1056 0 l 1
 896 0 l 1
 896 263 l 2
 896 376.333 854 459 770 511 c 0
 716.667 543.667 651 560 573 560 c 0
 463.667 560 394.667 530.333 366 471 c 0
 357.333 453 353 431.667 353 407 c 2
 353 369 l 1
 364.333 383 386 392 418 396 c 0
 422 396.667 425.667 397 429 397 c 2
 464 395 l 1
 498 389.667 528.667 373.667 556 347 c 0
 606 297 620 226.333 598 135 c 0
 587.333 92.3333 560.333 55.6667 517 25 c 0
 484.333 1.66667 447 -10.3333 405 -11 c 2
 396 -11 l 2
 342 -10.3333 296.667 8 260 44 c 0
 215.333 87.3333 193 158.667 193 258 c 2
 193 435 l 2
 193 515.667 220.333 578.667 275 624 c 0
 293 639.333 315.333 654 342 668 c 0
 406 702.667 481.667 720 569 720 c 0
 649.667 720 726 705.667 798 677 c 0
 848 657.667 880.667 635 896 609 c 1
 896 714 l 2
 896 796.667 879.667 854.667 847 888 c 1
 795 938.667 726 970.667 640 984 c 0
 618 987.333 595.667 989 573 989 c 0
 482.333 989 403 962.333 335 909 c 0
 307.667 887 285.667 862.333 269 835 c 1
 129 929 l 1
 168.333 995.667 232.667 1050 322 1092 c 0
 402 1130 484.667 1149 570 1149 c 0
 724.667 1149 843.333 1113.33 926 1042 c 1
 970.667 1078 1010.67 1133.67 1046 1209 c 1
 1212 1209 l 1
 1193.33 1130.33 1151 1060.67 1085 1000 c 0
 1063.67 980.667 1038.33 960 1009 938 c 1
EndSplineSet
EndChar
StartChar: uni0E2B
Encoding: 3627 3627 167
Width: 1350
Flags: W
Fore
492 190 m 1
 525.333 288 583.667 400.333 667 527 c 0
 738.333 635.667 804.333 715.667 865 767 c 1
 811.667 792.333 782 840.333 776 911 c 0
 775.333 922.333 775 935.333 775 950 c 0
 775 997.333 791 1040.33 823 1079 c 0
 851.667 1114.33 892.667 1135.33 946 1142 c 0
 954.667 1143.33 963.333 1144 972 1144 c 0
 1046.67 1144 1104 1118.67 1144 1068 c 0
 1168.67 1037.33 1182.33 1000 1185 956 c 1
 1184 904 l 1
 1177 862 l 1
 1165.67 820 1142.33 787.333 1107 764 c 1
 1138.33 747.333 1163.33 718.667 1182 678 c 0
 1192.67 654.667 1198 632 1198 610 c 2
 1198 0 l 1
 1038 0 l 1
 1038 594 l 2
 1038 633.333 1017.33 665.333 976 690 c 1
 906.667 638 830 546.333 746 415 c 0
 651.333 266.333 589.333 134 560 18 c 0
 556 0 l 1
 332 0 l 1
 332 776 l 1
 313.333 757.333 287.667 748 255 748 c 0
 217 748 182 763.333 150 794 c 1
 100 844 86 914.667 108 1006 c 0
 119.333 1050 146 1086.67 188 1116 c 0
 212 1133.33 237.333 1144 264 1148 c 1
 310 1152 l 1
 392.667 1151.33 447.667 1111.33 475 1032 c 0
 486.333 1000.67 492 964.667 492 924 c 2
 492 190 l 1
275 1049 m 0
 244.333 1049 219.333 1033.67 200 1003 c 0
 190 986.333 185 969.333 185 952 c 2
 185 945 l 1
 188.333 899 205.667 868 237 852 c 0
 248.333 845.333 261 842 275 842 c 1
 311 844.667 333.667 860.333 343 889 c 0
 347.667 903.667 350 924 350 950 c 1
 347.333 1001.33 334 1032.33 310 1043 c 1
 287 1048 l 2
 283 1048.67 279 1049 275 1049 c 0
976 830 m 1
 1003 832 l 1
 1035.67 839.333 1058 859.667 1070 893 c 0
 1074 905 1076 917.667 1076 931 c 0
 1076 939.667 1075 948.333 1073 957 c 0
 1067 989 1049.67 1012.67 1021 1028 c 1
 997 1037 l 1
 981 1039 l 1
 957 1036 l 1
 932.333 1029.33 912.667 1015 898 993 c 0
 889.333 979.667 885 959 885 931 c 2
 885 911 l 1
 888 895 l 1
 894 881 904.667 868 920 856 c 0
 939.333 840 958 831.333 976 830 c 1
EndSplineSet
EndChar
StartChar: uni0E2C
Encoding: 3628 3628 168
Width: 1400
Flags: W
Fore
1221 1159 m 1
 1221 248 l 2
 1221 150.667 1192.33 78.6667 1135 32 c 1
 1106 12 l 1
 1072 -2 l 1
 1033 -10 l 2
 1024.33 -11.3333 1015.33 -12 1006 -12 c 2
 936 -9 l 1
 873.333 -2.33333 822.667 20.3333 784 59 c 0
 781.333 62.3333 778.333 65.6667 775 69 c 1
 741.667 24.3333 689.667 -1.66667 619 -9 c 1
 559 -12 l 1
 508 -9 l 1
 410 5 349 60.3333 325 157 c 0
 318.333 185 315 215.333 315 248 c 2
 315 776 l 1
 295 756.667 269.333 747 238 747 c 0
 200 747 165 763 133 795 c 0
 83 844.333 69 914.333 91 1005 c 0
 102.333 1049 129 1086 171 1116 c 0
 195.667 1133.33 221 1144 247 1148 c 1
 291 1151 l 1
 331 1150.33 370.667 1132.33 410 1097 c 0
 446 1063.67 467 1009 473 933 c 0
 474.333 909.667 475 877 475 835 c 2
 475 248 l 2
 475 217.333 488.667 190.333 516 167 c 0
 535.333 150.333 555.333 142 576 142 c 0
 614.667 142 645.667 157.667 669 189 c 0
 681.667 207 688 226.667 688 248 c 2
 688 1039 l 1
 848 1039 l 1
 848 248 l 2
 848 215.333 864.667 187.667 898 165 c 0
 920 149.667 943.333 142 968 142 c 0
 1002 142 1028.33 159 1047 193 c 0
 1056.33 210.333 1061 228.667 1061 248 c 2
 1061 1167 l 1
 1010.33 1171 969 1190.33 937 1225 c 0
 909 1255 895 1296 895 1348 c 0
 895 1370 898 1391 904 1411 c 0
 916.667 1453.67 945.667 1485 991 1505 c 0
 1013.67 1514.33 1037.33 1519 1062 1519 c 0
 1091.33 1519 1119 1512 1145 1498 c 0
 1187 1474.67 1211.67 1437.67 1219 1387 c 0
 1221 1370.33 1222 1343 1222 1305 c 2
 1222 1281 l 1
 1258.67 1284.33 1288.33 1296.67 1311 1318 c 0
 1343 1349.33 1359 1399 1359 1467 c 1
 1459 1467 l 1
 1459 1406.33 1455.33 1364 1448 1340 c 0
 1444.67 1328.67 1440.33 1317.33 1435 1306 c 0
 1419 1269.33 1392 1236.33 1354 1207 c 1
 1314.67 1175 1270.33 1159 1221 1159 c 1
260 1043 m 0
 233.333 1043 211.667 1028.67 195 1000 c 1
 185 976 l 1
 182 949 l 1
 182 946 182 946 182 944 c 0
 185.333 903.333 199.667 874.667 225 858 c 0
 235 850.667 246.667 847 260 847 c 0
 302 849.667 323 879.333 323 936 c 0
 323 950 l 0
 323 1012 302 1043 260 1043 c 0
1062 1263 m 0
 1100 1263 1126.33 1278.67 1141 1310 c 0
 1146.33 1322.67 1149 1337 1149 1353 c 0
 1149 1395.67 1131 1423 1095 1435 c 0
 1085 1438.33 1074 1440 1062 1440 c 0
 1024.67 1440 998.667 1424.67 984 1394 c 0
 978 1381.33 975 1367 975 1351 c 0
 975 1320.33 987.667 1296 1013 1278 c 0
 1027.67 1268 1044 1263 1062 1263 c 0
EndSplineSet
EndChar
StartChar: uni0E2D
Encoding: 3629 3629 169
Width: 1230
Flags: W
Fore
452 642 m 0
 417.333 642 395.333 627.333 386 598 c 1
 379 563 l 1
 378 543 l 1
 378 490.333 390 457.667 414 445 c 0
 423.333 439.667 436 436.333 452 435 c 1
 490.667 435 517.667 455 533 495 c 0
 538.333 508.333 541.333 522.667 542 538 c 1
 541 563 l 1
 534.333 593.667 517.667 616.333 491 631 c 0
 478.333 638.333 465.333 642 452 642 c 0
223 270 m 2
 223 434 l 2
 223 529.333 230.333 595 245 631 c 0
 255 654.333 270 675.333 290 694 c 0
 340 739.333 400.667 756.333 472 745 c 0
 518.667 737.667 559 713.333 593 672 c 0
 623 634 638 585 638 525 c 0
 638 470.333 620.667 426 586 392 c 0
 543.333 349.333 495.333 335.333 442 350 c 1
 407.333 360.667 387.667 368.333 383 373 c 1
 383 304 383 304 383 261.5 c 128
 383 233.167 417.667 204.667 487 176 c 0
 527 160 571 151.333 619 150 c 1
 675 153 l 1
 755.667 163 815.667 192 855 240 c 0
 878.333 268.667 890 301.667 890 339 c 2
 890 715 l 2
 890 796.333 875 852 845 882 c 0
 797 930 733.333 962.667 654 980 c 0
 625.333 986 596.667 989 568 989 c 0
 450.667 989 361 957.667 299 895 c 1
 269 862 l 1
 256 843 l 1
 124 929 l 1
 164.667 996.333 229.667 1051 319 1093 c 0
 398.333 1130.33 480.333 1149 565 1149 c 0
 662.333 1149 757.333 1125.67 850 1079 c 0
 903.333 1051.67 944.667 1021 974 987 c 0
 1022 933 1047.33 854.333 1050 751 c 1
 1050 273 l 2
 1050 183.667 1005.33 112.667 916 60 c 0
 836 13.3333 735.667 -10 615 -10 c 0
 505 -10 411.667 17.6667 335 73 c 0
 260.333 127 223 192.667 223 270 c 2
EndSplineSet
EndChar
StartChar: uni0E2E
Encoding: 3630 3630 170
Width: 1250
Flags: W
Fore
459 642 m 0
 424.333 642 402.333 627.333 393 598 c 1
 386 563 l 1
 385 543 l 1
 385 490.333 397 457.667 421 445 c 0
 430.333 439.667 443 436.333 459 435 c 1
 497.667 435 524.667 455 540 495 c 0
 545.333 508.333 548.333 522.667 549 538 c 1
 548 563 l 1
 541.333 593.667 524.667 616.333 498 631 c 0
 485.333 638.333 472.333 642 459 642 c 0
897 718 m 2
 897 752 895.667 770 893 772 c 1
 892.333 773.333 891.333 776.667 890 782 c 1
 890 784 l 1
 885.333 807.333 878 826.667 868 842 c 1
 804 790 710.667 764 588 764 c 1
 510 767 l 1
 390 777 303.333 806.667 250 856 c 0
 218 885.333 202 919.333 202 958 c 0
 202 1006 239.667 1048.67 315 1086 c 0
 394.333 1126 484.333 1147 585 1149 c 0
 590 1149 590 1149 596 1149 c 0
 695.333 1149 787 1126 871 1080 c 0
 885 1072 885 1072 898 1064 c 1
 926 1100 943.333 1131.33 950 1158 c 1
 1072 1116 l 1
 1048.67 1060.67 1022.67 1013.67 994 975 c 1
 1030 922.333 1050.33 859.333 1055 786 c 1
 1057 669 l 1
 1057 639 1057 639 1057 625 c 2
 1057 273 l 2
 1057 183.667 1012.33 112.667 923 60 c 0
 843 13.3333 742.667 -10 622 -10 c 0
 512 -10 418.667 17.6667 342 73 c 0
 267.333 127 230 192.667 230 270 c 2
 230 434 l 2
 230 529.333 237.333 595 252 631 c 0
 262 654.333 277 675.333 297 694 c 0
 347 739.333 407.667 756.333 479 745 c 0
 525.667 737.667 566 713.333 600 672 c 0
 630 634 645 585 645 525 c 0
 645 470.333 627.667 426 593 392 c 0
 550.333 349.333 502.333 335.333 449 350 c 1
 414.333 360.667 394.667 368.333 390 373 c 1
 390 304 390 304 390 261.5 c 128
 390 233.167 424.667 204.667 494 176 c 0
 534 160 578 151.333 626 150 c 1
 682 153 l 1
 762.667 163 822.667 192 862 240 c 0
 885.333 268.667 897 301.667 897 339 c 2
 897 718 l 2
824 952 m 1
 754 1004 678 1032.67 596 1038 c 0
 584 1038 l 2
 531 1035 l 1
 475 1027.67 428.667 1014.33 392 995 c 0
 368 982.333 355.333 970 354 958 c 1
 357 945 l 1
 369 921 409.667 901.333 479 886 c 0
 515.667 878.667 550.333 875 583 875 c 0
 673 875 753.333 900.667 824 952 c 1
EndSplineSet
EndChar
StartChar: uni0E2F
Encoding: 3631 3631 171
Width: 1150
Flags: W
Fore
1025 1149 m 1
 1025 0 l 1
 865 0 l 1
 865 830 l 1
 799.667 764 721.667 721.333 631 702 c 0
 584.333 691.333 536.333 686 487 686 c 0
 392.333 686 314.667 703.333 254 738 c 1
 200.667 764.667 163 802.667 141 852 c 0
 131.667 872 126.333 892.667 125 914 c 0
 121.667 979.333 143.667 1034 191 1078 c 0
 223 1108 261.333 1126 306 1132 c 0
 366 1140.67 418.333 1125.67 463 1087 c 0
 495 1059 514.667 1024 522 982 c 0
 531.333 924 511.333 874 462 832 c 1
 483.333 822.667 520.333 824.667 573 838 c 0
 683.667 866 764.667 921 816 1003 c 0
 843.333 1046.33 859.667 1095 865 1149 c 1
 1025 1149 l 1
309 1042 m 0
 273 1036 247.667 1016.33 233 983 c 0
 227 969.667 224 955.333 224 940 c 0
 224 932 224.667 924.333 226 917 c 0
 232.667 885.667 251 863.333 281 850 c 0
 293.667 844.667 306.667 842 320 842 c 0
 324 842 328.333 842.333 333 843 c 0
 372.333 849 400 868.333 416 901 c 0
 422.667 915 426 930 426 946 c 0
 426 950 425.667 954 425 958 c 0
 420.333 990 403.333 1014.67 374 1032 c 0
 359.333 1040 344 1044 328 1044 c 0
 322 1044 315.667 1043.33 309 1042 c 0
EndSplineSet
EndChar
StartChar: uni0E30
Encoding: 3632 3632 172
Width: 1100
Flags: W
Fore
171 289 m 1
 173 330 l 1
 181 387.333 208.333 430.333 255 459 c 0
 275.667 471.667 298.333 479.667 323 483 c 1
 360 484 l 1
 398 482 431 467 459 439 c 0
 483.667 414.333 498.667 385 504 351 c 1
 505 318 l 1
 501.667 269.333 481.667 231.333 445 204 c 2
 438 199 l 1
 446.667 195.667 461.667 194 483 194 c 0
 516.333 194 547.333 198.333 576 207 c 0
 668.667 235.667 731.333 283 764 349 c 0
 780.667 383.667 792 427 798 479 c 1
 914 479 l 1
 914 357 867.667 257.667 775 181 c 0
 737.667 150.333 695.333 126 648 108 c 0
 598 88 543.333 78 484 78 c 0
 388.667 78 310.667 101.333 250 148 c 0
 201.333 185.333 175 232.333 171 289 c 1
327 408 m 0
 297 403.333 276 387.667 264 361 c 0
 259.333 351 257 340 257 328 c 0
 257 322.667 257.667 317 259 311 c 0
 265 283 281.667 264.667 309 256 c 0
 317 252.667 325.667 251 335 251 c 0
 339 251 343 251.333 347 252 c 0
 382.333 257.333 406.333 274.333 419 303 c 0
 423 312.333 425 322 425 332 c 0
 425 335.333 424.667 339 424 343 c 0
 419.333 371 403.667 391 377 403 c 0
 366.333 407 355 409 343 409 c 0
 337.667 409 332.333 408.667 327 408 c 0
179 814 m 1
 181 855 l 1
 189 912.333 216.333 955.333 263 984 c 0
 283.667 996.667 306.333 1004.67 331 1008 c 1
 369 1009 l 1
 406.333 1007 439 992 467 964 c 0
 491.667 939.333 506.667 910 512 876 c 1
 513 843 l 1
 511 817.667 504 794 492 772 c 1
 474 748 l 1
 465.333 738.667 456 730.667 446 724 c 1
 454.667 720.667 469.667 719 491 719 c 0
 524.333 719 555.333 723.333 584 732 c 0
 676.667 760.667 739.333 808 772 874 c 0
 789.333 908.667 800.667 952 806 1004 c 1
 922 1004 l 1
 922 882 876 782.667 784 706 c 1
 746 675.333 703.333 651 656 633 c 0
 606 613 551.333 603 492 603 c 0
 396.667 603 318.667 626.333 258 673 c 0
 209.333 710.333 183 757.333 179 814 c 1
335 933 m 1
 305.667 928.333 284.667 912.667 272 886 c 0
 268 876 265.667 865 265 853 c 0
 265 847.667 265.667 842 267 836 c 0
 273 808 289.667 789.667 317 781 c 0
 325 777.667 333.667 776 343 776 c 0
 347 776 351.333 776.333 356 777 c 0
 390.667 782.333 414.333 799.333 427 828 c 0
 431 837.333 433 847 433 857 c 0
 433 860.333 432.667 864 432 868 c 0
 428 896 412.333 916 385 928 c 0
 375.667 932 365.667 934 355 934 c 2
 335 933 l 1
EndSplineSet
EndChar
StartChar: uni0E31
Encoding: 3633 3633 173
Width: 0
Flags: W
Fore
-726 1444 m 1
 -724 1485 l 1
 -716 1542.33 -688.667 1585.33 -642 1614 c 0
 -621.333 1626.67 -598.667 1634.67 -574 1638 c 1
 -537 1639 l 1
 -499 1637 -466 1622 -438 1594 c 0
 -413.333 1569.33 -398.333 1540 -393 1506 c 1
 -392 1473 l 1
 -395.333 1424.33 -415.333 1386.33 -452 1359 c 2
 -459 1354 l 1
 -450.333 1350.67 -435.333 1349 -414 1349 c 0
 -380.667 1349 -349.667 1353.33 -321 1362 c 0
 -228.333 1390.67 -165.667 1438 -133 1504 c 0
 -116.333 1538.67 -105 1582 -99 1634 c 1
 17 1634 l 1
 17 1512 -29.3333 1412.67 -122 1336 c 0
 -159.333 1305.33 -201.667 1281 -249 1263 c 0
 -299 1243 -353.667 1233 -413 1233 c 0
 -508.333 1233 -586.333 1256.33 -647 1303 c 0
 -695.667 1340.33 -722 1387.33 -726 1444 c 1
-570 1563 m 0
 -600 1558.33 -621 1542.67 -633 1516 c 0
 -637.667 1506 -640 1495 -640 1483 c 0
 -640 1477.67 -639.333 1472 -638 1466 c 0
 -632 1438 -615.333 1419.67 -588 1411 c 0
 -580 1407.67 -571.333 1406 -562 1406 c 0
 -558 1406 -554 1406.33 -550 1407 c 0
 -514.667 1412.33 -490.667 1429.33 -478 1458 c 0
 -474 1467.33 -472 1477 -472 1487 c 0
 -472 1490.33 -472.333 1494 -473 1498 c 0
 -477.667 1526 -493.333 1546 -520 1558 c 0
 -530.667 1562 -542 1564 -554 1564 c 0
 -559.333 1564 -564.667 1563.67 -570 1563 c 0
EndSplineSet
EndChar
StartChar: uni0E32
Encoding: 3634 3634 174
Width: 1150
Flags: W
Fore
956 753 m 2
 956 0 l 1
 796 0 l 1
 796 729 l 2
 796 887 719 973 565 987 c 0
 554.333 988.333 543.667 989 533 989 c 2
 500 986 l 1
 446.667 975.333 398.667 943.667 356 891 c 0
 335.333 865 320.333 838.333 311 811 c 1
 138 837 l 1
 157.333 917.667 201.333 988.333 270 1049 c 0
 346 1115.67 430 1149 522 1149 c 0
 650 1149 753.667 1115 833 1047 c 0
 901.667 989 941.667 908.667 953 806 c 0
 955 788.667 956 771 956 753 c 2
EndSplineSet
EndChar
StartChar: uni0E33
Encoding: 3635 3635 175
Width: 1050
Flags: W
Fore
905 753 m 2
 905 0 l 1
 745 0 l 1
 745 729 l 2
 745 887 668 973 514 987 c 0
 503.333 988.333 492.667 989 482 989 c 2
 449 986 l 1
 395.667 975.333 347.667 943.667 305 891 c 0
 284.333 865 269.333 838.333 260 811 c 1
 87 837 l 1
 106.333 917.667 150.333 988.333 219 1049 c 0
 295 1115.67 379 1149 471 1149 c 0
 599 1149 702.667 1115 782 1047 c 0
 850.667 989 890.667 908.667 902 806 c 0
 904 788.667 905 771 905 753 c 2
-299 1668 m 0
 -229 1668 -170.333 1642.33 -123 1591 c 0
 -85 1549.67 -66 1499.67 -66 1441 c 0
 -66 1367.67 -94.6667 1308.33 -152 1263 c 0
 -194.667 1229 -243.667 1212 -299 1212 c 0
 -363.667 1212 -419.333 1237.33 -466 1288 c 0
 -506.667 1332 -527 1383 -527 1441 c 0
 -527 1507 -501 1563.33 -449 1610 c 0
 -405.667 1648.67 -355.667 1668 -299 1668 c 0
-297 1540 m 0
 -336.333 1540 -366.333 1524 -387 1492 c 1
 -398 1468 l 1
 -400.667 1458 -402 1447.67 -402 1437 c 0
 -402 1399.67 -387 1370.67 -357 1350 c 0
 -339 1338 -319 1332 -297 1332 c 0
 -251 1332 -218.667 1349.67 -200 1385 c 0
 -191.333 1401 -187 1418.33 -187 1437 c 0
 -187 1477 -204 1506.33 -238 1525 c 0
 -255.333 1535 -275 1540 -297 1540 c 0
EndSplineSet
EndChar
StartChar: uni0E34
Encoding: 3636 3636 176
Width: 0
Flags: W
Fore
-180 1227 m 1
 -323.333 1257.67 -533.333 1284.33 -810 1307 c 0
 -941.333 1317 -1046 1322 -1124 1322 c 1
 -1103.33 1391.33 -1055.67 1458.33 -981 1523 c 0
 -953 1547 -925 1567 -897 1583 c 0
 -829 1621.67 -749.333 1641 -658 1641 c 0
 -638 1641 -618 1640 -598 1638 c 0
 -507.333 1628 -424 1592.67 -348 1532 c 0
 -340.667 1526.67 -333.667 1521 -327 1515 c 0
 -253.667 1450.33 -204.667 1354.33 -180 1227 c 1
-365 1359 m 1
 -370.333 1391 -394.667 1424.33 -438 1459 c 0
 -491.333 1501.67 -550.667 1525.33 -616 1530 c 1
 -672 1530 l 1
 -756 1524.67 -822.333 1497.33 -871 1448 c 1
 -893 1421 l 1
 -894.333 1418.33 -896 1415.67 -898 1413 c 1
 -810 1412 l 1
 -666.667 1404 -535.333 1389.67 -416 1369 c 0
 -395.333 1365.67 -378.333 1362.33 -365 1359 c 1
EndSplineSet
EndChar
StartChar: uni0E35
Encoding: 3637 3637 177
Width: 0
Flags: W
Fore
-187 1260 m 1
 -184.333 1248.67 -182 1238 -180 1228 c 1
 -323.333 1258.67 -533.333 1285.33 -810 1308 c 0
 -941.333 1318 -1046 1323 -1124 1323 c 1
 -1103.33 1392.33 -1055.67 1459.33 -981 1524 c 0
 -953 1548 -925 1568 -897 1584 c 0
 -829 1622.67 -749.333 1642 -658 1642 c 0
 -638 1642 -618 1641 -598 1639 c 0
 -508 1629 -424.667 1593.67 -348 1533 c 0
 -344 1530.33 -340.333 1527.67 -337 1525 c 1
 -337 1735 l 1
 -187 1735 l 1
 -187 1260 l 1
-379 1370 m 1
 -393.667 1401.33 -424.667 1431.67 -472 1461 c 0
 -518.667 1489.67 -566.667 1506.33 -616 1511 c 1
 -664 1512 l 1
 -730.667 1508 -789 1488.67 -839 1454 c 1
 -864 1434 l 2
 -867.333 1430.67 -870.333 1427.33 -873 1424 c 1
 -775 1424 -651 1413.33 -501 1392 c 0
 -448.333 1384.67 -407.667 1377.33 -379 1370 c 1
EndSplineSet
EndChar
StartChar: uni0E36
Encoding: 3638 3638 178
Width: 0
Flags: W
Fore
-367 1548 m 1
 -357 1584.67 -340 1613.67 -316 1635 c 0
 -282 1665.67 -242.667 1681 -198 1681 c 0
 -143.333 1681 -97.3333 1660.67 -60 1620 c 0
 -29.3333 1587.33 -14 1548 -14 1502 c 0
 -14 1444.67 -36.6667 1398 -82 1362 c 0
 -116 1334.67 -156 1321 -202 1321 c 1
 -196 1304.33 -188.667 1273.33 -180 1228 c 1
 -323.333 1258.67 -533.333 1285.33 -810 1308 c 0
 -941.333 1318 -1046 1323 -1124 1323 c 1
 -1103.33 1392.33 -1055.67 1459.33 -981 1524 c 0
 -953 1548 -925 1568 -897 1584 c 0
 -829 1622.67 -749.333 1642 -658 1642 c 0
 -638 1642 -618 1641 -598 1639 c 0
 -516.667 1629.67 -439.667 1599.33 -367 1548 c 1
-198 1568 m 0
 -226 1568 -246.667 1556.33 -260 1533 c 1
 -266.667 1523 -270 1512 -270 1500 c 0
 -270 1472.67 -257.667 1452 -233 1438 c 0
 -222.333 1432 -210.667 1429 -198 1429 c 0
 -166 1429 -143.667 1442 -131 1468 c 0
 -126.333 1478 -124 1488.67 -124 1500 c 0
 -124 1528 -137.333 1548.33 -164 1561 c 0
 -174.667 1565.67 -186 1568 -198 1568 c 0
-374 1358 m 1
 -389.333 1389.33 -420 1421.33 -466 1454 c 0
 -516 1488.67 -566 1508.33 -616 1513 c 1
 -660 1514 l 1
 -723.333 1508.67 -782.667 1486.67 -838 1448 c 1
 -867 1423 l 2
 -871 1419.67 -874.333 1416 -877 1412 c 1
 -778.333 1412 -653 1401.33 -501 1380 c 0
 -445 1372.67 -402.667 1365.33 -374 1358 c 1
EndSplineSet
EndChar
StartChar: uni0E37
Encoding: 3639 3639 179
Width: 0
Flags: W
Fore
-416 1544 m 1
 -401.333 1544 -376.333 1528.33 -341 1497 c 0
 -338 1494 -338 1494 -337 1493 c 1
 -337 1695 l 1
 -187 1695 l 1
 -187 1258 l 1
 -185 1201 l 1
 -327 1231.67 -542 1258.33 -830 1281 c 0
 -949.333 1291 -1041 1296 -1105 1296 c 1
 -1074.33 1388.67 -1009 1468 -909 1534 c 0
 -853 1570.67 -783.667 1594 -701 1604 c 1
 -641 1607 l 1
 -613.667 1606.33 -588.667 1603.33 -566 1598 c 1
 -566 1696 l 1
 -416 1696 l 1
 -416 1544 l 1
-399 1343 m 1
 -417.667 1382.33 -449.667 1415.33 -495 1442 c 0
 -532.333 1464 -572.667 1476.33 -616 1479 c 1
 -671 1479 l 1
 -753.667 1472.33 -816 1442.67 -858 1390 c 2
 -860 1387 l 1
 -737 1382 l 1
 -567.667 1370.67 -455 1357.67 -399 1343 c 1
EndSplineSet
EndChar
StartChar: uni0E38
Encoding: 3640 3640 180
Width: 0
Flags: W
Fore
-341 -534 m 1
 -341 -360 l 1
 -351 -368.667 -362 -373.667 -374 -375 c 2
 -408 -376 l 1
 -437.333 -374 -463.333 -362.333 -486 -341 c 0
 -512 -317.667 -525 -285.333 -525 -244 c 0
 -525 -228 -522.667 -210.667 -518 -192 c 0
 -508.667 -157.333 -485.667 -129 -449 -107 c 0
 -424.333 -92.3333 -398.667 -85 -372 -85 c 1
 -335 -88 l 1
 -293 -96 -262.333 -115 -243 -145 c 0
 -222.333 -178.333 -211.333 -229.667 -210 -299 c 0
 -210 -313 l 2
 -210 -534 l 1
 -341 -534 l 1
-383 -163 m 0
 -390.333 -163 -397.333 -164.667 -404 -168 c 0
 -419.333 -174.667 -431.333 -186.333 -440 -203 c 0
 -445.333 -213.667 -448 -224.667 -448 -236 c 0
 -448 -279.333 -429.333 -303 -392 -307 c 0
 -388.667 -307.667 -385.667 -308 -383 -308 c 0
 -375.667 -308 -368.667 -305.333 -362 -300 c 0
 -342.667 -286 -333 -265 -333 -237 c 0
 -333 -234 -333 -234 -333 -232 c 0
 -335 -186.667 -351.667 -163.667 -383 -163 c 0
EndSplineSet
EndChar
StartChar: uni0E39
Encoding: 3641 3641 181
Width: 0
Flags: W
Fore
-351 -96 m 1
 -217 -96 l 1
 -217 -534 l 1
 -627 -534 l 1
 -627 -360 l 1
 -637 -368.667 -648 -373.667 -660 -375 c 2
 -694 -376 l 1
 -723.333 -374 -749.333 -362.333 -772 -341 c 0
 -798 -317.667 -811 -285.333 -811 -244 c 0
 -811 -228 -808.667 -210.667 -804 -192 c 0
 -794.667 -157.333 -771.667 -129 -735 -107 c 0
 -710.333 -92.3333 -684.667 -85 -658 -85 c 1
 -621 -88 l 1
 -579 -96 -548.333 -115 -529 -145 c 0
 -508.333 -178.333 -497.333 -229.667 -496 -299 c 0
 -496 -313 l 2
 -496 -435 l 1
 -351 -435 l 1
 -351 -96 l 1
-669 -163 m 0
 -676.333 -163 -683.333 -164.667 -690 -168 c 0
 -705.333 -174.667 -717.333 -186.333 -726 -203 c 0
 -731.333 -213.667 -734 -224.667 -734 -236 c 0
 -734 -279.333 -715.333 -303 -678 -307 c 0
 -674.667 -307.667 -671.667 -308 -669 -308 c 0
 -661.667 -308 -654.667 -305.333 -648 -300 c 0
 -628.667 -286 -619 -265 -619 -237 c 0
 -619 -234 -619 -234 -619 -232 c 0
 -621 -186.667 -637.667 -163.667 -669 -163 c 0
EndSplineSet
EndChar
StartChar: uni0E3A
Encoding: 3642 3642 182
Width: 0
Flags: W
Fore
-246 -60 m 0
 -209.333 -60 -178 -73 -152 -99 c 0
 -124.667 -127.667 -111 -159.667 -111 -195 c 0
 -111 -231.667 -124.667 -263 -152 -289 c 1
 -178 -316.333 -209.333 -330 -246 -330 c 0
 -281.333 -330 -312.667 -316.333 -340 -289 c 0
 -366.667 -262.333 -380 -231 -380 -195 c 0
 -380 -159.667 -366.667 -127.667 -340 -99 c 1
 -313.333 -73 -282 -60 -246 -60 c 0
EndSplineSet
EndChar
StartChar: uni0E3F
Encoding: 3647 3647 183
Width: 1250
Flags: W
Fore
883 827 m 1
 972.333 801.667 1041 757 1089 693 c 1
 1137 627 1161 548.333 1161 457 c 0
 1161 324.333 1114 216.333 1020 133 c 0
 926 49.6667 803.667 6 653 2 c 1
 653 -133 l 1
 541 -133 l 1
 541 0 l 1
 152 0 l 1
 152 1489 l 1
 541 1489 l 1
 541 1595 l 1
 653 1595 l 1
 653 1489 l 1
 798.333 1487 908 1458 982 1402 c 0
 1055.33 1346.67 1092 1260.67 1092 1144 c 0
 1092 1082 1073.33 1022.33 1036 965 c 0
 998 908.333 947 865.333 883 836 c 1
 883 827 l 1
541 885 m 1
 541 1321 l 1
 348 1321 l 1
 348 885 l 1
 541 885 l 1
653 887 m 1
 711.667 887.667 765.333 905.667 814 941 c 0
 861.333 975.667 885 1036.67 885 1124 c 0
 885 1188.67 867.667 1235.33 833 1264 c 0
 797.667 1293.33 754 1310.33 702 1315 c 1
 690.667 1315 674.333 1316.33 653 1319 c 1
 653 887 l 1
541 170 m 1
 541 719 l 1
 348 719 l 1
 348 170 l 1
 541 170 l 1
653 174 m 1
 741 178 813 202 869 246 c 0
 925.667 291.333 954 359 954 449 c 0
 954 518.333 944.333 569.333 925 602 c 0
 905 634.667 872.333 661.667 827 683 c 1
 782.333 705.667 724.333 717 653 717 c 1
 653 174 l 1
EndSplineSet
EndChar
StartChar: uni0E40
Encoding: 3648 3648 184
Width: 700
Flags: W
Fore
167 1149 m 1
 327 1149 l 1
 327 403 l 1
 327 369 l 1
 339 383 360.667 392 392 396 c 0
 395.333 396.667 399 397 403 397 c 2
 438 395 l 1
 472 389.667 502.667 373.667 530 347 c 0
 580 297 594 226.333 572 135 c 0
 560.667 91.6667 533.667 55 491 25 c 0
 458.333 1.66667 421 -10.3333 379 -11 c 0
 375 -11 375 -11 370 -11 c 0
 316 -10.3333 270.667 8 234 44 c 0
 189.333 87.3333 167 158.667 167 258 c 2
 167 403 l 1
 167 1149 l 1
395 97 m 0
 425.667 97 450.667 112.333 470 143 c 0
 480 159.667 485 176.667 485 194 c 0
 485 198 485 198 485 201 c 0
 481.667 247 464.333 278 433 294 c 0
 421.667 300.667 409 304 395 304 c 1
 359 301.333 336.333 285.667 327 257 c 0
 323 242.333 321 222 321 196 c 1
 323 144.667 336 113.667 360 103 c 0
 369.333 99 381 97 395 97 c 0
EndSplineSet
EndChar
StartChar: uni0E41
Encoding: 3649 3649 185
Width: 1320
Flags: W
Fore
804 1149 m 1
 964 1149 l 1
 964 403 l 1
 964 369 l 1
 976 383 997.667 392 1029 396 c 0
 1032.33 396.667 1036 397 1040 397 c 2
 1075 395 l 1
 1109 389.667 1139.67 373.667 1167 347 c 0
 1217 297 1231 226.333 1209 135 c 0
 1197.67 91.6667 1170.67 55 1128 25 c 0
 1095.33 1.66667 1058 -10.3333 1016 -11 c 0
 1012 -11 1012 -11 1007 -11 c 0
 953 -10.3333 907.667 8 871 44 c 0
 826.333 87.3333 804 158.667 804 258 c 2
 804 403 l 1
 804 1149 l 1
1032 97 m 0
 1062.67 97 1087.67 112.333 1107 143 c 0
 1117 159.667 1122 176.667 1122 194 c 0
 1122 198 1122 198 1122 201 c 0
 1118.67 247 1101.33 278 1070 294 c 0
 1058.67 300.667 1046 304 1032 304 c 1
 996 301.333 973.333 285.667 964 257 c 0
 960 242.333 958 222 958 196 c 1
 960 144.667 973 113.667 997 103 c 0
 1006.33 99 1018 97 1032 97 c 0
191 1149 m 1
 351 1149 l 1
 351 403 l 1
 351 369 l 1
 363 383 384.667 392 416 396 c 0
 419.333 396.667 423 397 427 397 c 2
 462 395 l 1
 496 389.667 526.667 373.667 554 347 c 0
 604 297 618 226.333 596 135 c 0
 584.667 91.6667 557.667 55 515 25 c 0
 482.333 1.66667 445 -10.3333 403 -11 c 0
 399 -11 399 -11 394 -11 c 0
 340 -10.3333 294.667 8 258 44 c 0
 213.333 87.3333 191 158.667 191 258 c 2
 191 403 l 1
 191 1149 l 1
419 97 m 0
 449.667 97 474.667 112.333 494 143 c 0
 504 159.667 509 176.667 509 194 c 0
 509 198 509 198 509 201 c 0
 505.667 247 488.333 278 457 294 c 0
 445.667 300.667 433 304 419 304 c 1
 383 301.333 360.333 285.667 351 257 c 0
 347 242.333 345 222 345 196 c 1
 347 144.667 360 113.667 384 103 c 0
 393.333 99 405 97 419 97 c 0
EndSplineSet
EndChar
StartChar: uni0E42
Encoding: 3650 3650 186
Width: 1100
Flags: W
Fore
561 850 m 2
 561 931.333 551 987 531 1017 c 0
 517 1037.67 491 1057.33 453 1076 c 0
 363.667 1120 219.667 1153 21 1175 c 1
 21 1204.33 41.3333 1256.33 82 1331 c 0
 90 1345.67 97.6667 1358.67 105 1370 c 0
 156.333 1450.67 222.333 1507 303 1539 c 0
 344.333 1555.67 387 1564 431 1564 c 0
 438.333 1564 445.333 1563.67 452 1563 c 0
 491.333 1561 549 1545.67 625 1517 c 0
 669 1499.67 702 1488.33 724 1483 c 0
 777.333 1469.67 826.667 1463 872 1463 c 0
 950 1463 1011.33 1483.33 1056 1524 c 1
 1034 1370 l 1
 974.667 1338.67 909.667 1323 839 1323 c 0
 795.667 1323 752.667 1328.67 710 1340 c 0
 694 1344.67 650.667 1360.67 580 1388 c 1
 528 1409.33 484.667 1421.33 450 1424 c 1
 415 1423 l 1
 356.333 1415.67 303.333 1381 256 1319 c 0
 245.333 1305.67 236.667 1292.67 230 1280 c 1
 374.667 1255.33 486.333 1220 565 1174 c 0
 577.667 1166.67 588.667 1159.33 598 1152 c 0
 646 1114 678 1077 694 1041 c 0
 712 999 721 936 721 852 c 2
 721 403 l 1
 721 369 l 1
 733 383 754.667 392 786 396 c 0
 790 396.667 794 397 798 397 c 2
 832 395 l 1
 866.667 389.667 897.667 373.667 925 347 c 0
 975 297 989 226.333 967 135 c 0
 955.667 91.6667 928.667 55 886 25 c 0
 852.667 1.66667 815 -10.3333 773 -11 c 0
 765 -11 l 0
 711 -10.3333 665.667 8 629 44 c 0
 583.667 87.3333 561 158.667 561 258 c 2
 561 403 l 1
 561 850 l 2
789 97 m 0
 819.667 97 844.667 112.333 864 143 c 0
 874.667 159.667 880 176.667 880 194 c 0
 880 196.667 879.667 199 879 201 c 0
 875.667 247 858.667 278 828 294 c 0
 816 300.667 803 304 789 304 c 1
 753 301.333 730.667 285.667 722 257 c 0
 717.333 242.333 715 222 715 196 c 1
 717.667 144.667 731 113.667 755 103 c 0
 763.667 99 775 97 789 97 c 0
EndSplineSet
EndChar
StartChar: uni0E43
Encoding: 3651 3651 187
Width: 1000
Flags: W
Fore
694 632 m 2
 694 403 l 1
 694 369 l 1
 705.333 383 727 392 759 396 c 0
 762.333 396.667 766 397 770 397 c 2
 805 395 l 1
 839 389.667 869.667 373.667 897 347 c 0
 947 297 961 226.333 939 135 c 0
 927.667 91.6667 900.667 55 858 25 c 0
 825.333 1.66667 788 -10.3333 746 -11 c 0
 742 -11 742 -11 737 -11 c 0
 683 -10.3333 637.667 8 601 44 c 0
 556.333 87.3333 534 158.667 534 258 c 2
 534 403 l 1
 534 634 l 2
 534 720.667 544.333 786 565 830 c 0
 569.667 841.333 575.667 853 583 865 c 0
 589.667 877 614.667 909 658 961 c 0
 718 1034.33 752 1095.33 760 1144 c 1
 762 1180 l 1
 762 1186.67 761.333 1193.33 760 1200 c 0
 746 1278 704 1336 634 1374 c 0
 596 1394 557.333 1404 518 1404 c 1
 560 1373.33 581.667 1322 583 1250 c 1
 579 1200 l 1
 572.333 1153.33 558 1116 536 1088 c 0
 482 1021.33 411.667 987.667 325 987 c 0
 306.333 987 286.667 988.667 266 992 c 0
 193.333 1003.33 138.667 1037.67 102 1095 c 0
 89.3333 1113.67 80 1134.33 74 1157 c 0
 68.6667 1175 66 1195 66 1217 c 0
 66.6667 1275.67 82 1330 112 1380 c 0
 117.333 1388.67 122.667 1396.33 128 1403 c 0
 203.333 1491.67 304 1543 430 1557 c 0
 448.667 1559 467.333 1560 486 1560 c 2
 547 1557 l 1
 657.667 1543.67 745.667 1499.33 811 1424 c 0
 857 1370.67 886.333 1304.67 899 1226 c 0
 902.333 1206.67 904 1187.67 904 1169 c 0
 903.333 1081.67 873.333 1006 814 942 c 0
 767.333 891.333 737 849.333 723 816 c 0
 703.667 772 694 710.667 694 632 c 2
762 97 m 0
 792.667 97 817.667 112.333 837 143 c 0
 847 159.667 852 176.667 852 194 c 0
 852 198 852 198 852 201 c 0
 848.667 247 831.333 278 800 294 c 0
 788.667 300.667 776 304 762 304 c 1
 726 301.333 703.333 285.667 694 257 c 0
 690 242.333 688 222 688 196 c 1
 690 144.667 703 113.667 727 103 c 0
 736.333 99 748 97 762 97 c 0
320 1350 m 0
 278.667 1347.33 245.333 1330 220 1298 c 0
 204.667 1277.33 197 1255 197 1231 c 0
 197 1229 197 1229 197 1226 c 0
 199.667 1172.67 222 1135 264 1113 c 0
 282.667 1103.67 304 1099 328 1099 c 1
 362 1102 l 1
 407.333 1111.33 439.333 1134.67 458 1172 c 0
 466 1188.67 470 1206.67 470 1226 c 0
 470 1230 l 0
 468 1274 447.333 1307.33 408 1330 c 0
 385.333 1343.33 359.667 1350 331 1350 c 0
 326 1350 326 1350 320 1350 c 0
EndSplineSet
EndChar
StartChar: uni0E44
Encoding: 3652 3652 188
Width: 1140
Flags: W
Fore
829 1341 m 2
 829 403 l 1
 829 369 l 1
 841 383 862.667 392 894 396 c 0
 898 396.667 901.667 397 905 397 c 2
 940 395 l 1
 974 389.667 1004.67 373.667 1032 347 c 0
 1082 297 1096 226.333 1074 135 c 0
 1062.67 91.6667 1035.67 55 993 25 c 0
 960.333 1.66667 923 -10.3333 881 -11 c 0
 877 -11 877 -11 872 -11 c 0
 818 -10.3333 772.667 8 736 44 c 0
 691.333 87.3333 669 158.667 669 258 c 2
 669 403 l 1
 669 1327 l 2
 669 1393.67 653.333 1427 622 1427 c 0
 598 1427 579.667 1405.67 567 1363 c 1
 532 1221 l 1
 528 1207.67 523.667 1195.33 519 1184 c 0
 493 1122 455.667 1083.67 407 1069 c 0
 385 1062.33 358 1059 326 1059 c 0
 258 1059 205.667 1083.67 169 1133 c 0
 133 1181 86.6667 1302.67 30 1498 c 0
 27.3333 1506 25 1513.67 23 1521 c 1
 172 1521 l 1
 230 1306 l 1
 246 1240.67 271.333 1198.67 306 1180 c 0
 314.667 1175.33 323.333 1173 332 1173 c 0
 366 1173 392 1197.33 410 1246 c 0
 413.333 1256 420.333 1281.33 431 1322 c 0
 458.333 1422 481 1482.67 499 1504 c 1
 519 1530.67 551.667 1550.67 597 1564 c 0
 614.333 1569.33 630 1572 644 1572 c 0
 733.333 1568 790 1529.67 814 1457 c 1
 824 1411 l 1
 829 1352 l 1
 829 1346 829 1346 829 1341 c 2
897 97 m 0
 927.667 97 952.667 112.333 972 143 c 0
 982 159.667 987 176.667 987 194 c 0
 987 198 987 198 987 201 c 0
 983.667 247 966.333 278 935 294 c 0
 923.667 300.667 911 304 897 304 c 1
 861 301.333 838.667 285.667 830 257 c 0
 825.333 242.333 823 222 823 196 c 1
 825 144.667 838 113.667 862 103 c 0
 871.333 99 883 97 897 97 c 0
EndSplineSet
EndChar
StartChar: uni0E45
Encoding: 3653 3653 189
Width: 1000
Flags: W
Fore
883 753 m 2
 883 -380 l 1
 723 -380 l 1
 723 729 l 2
 723 887 646 973 492 987 c 0
 481.333 988.333 470.667 989 460 989 c 2
 427 986 l 1
 373.667 975.333 325.667 943.667 283 891 c 0
 262.333 865 247.333 838.333 238 811 c 1
 65 837 l 1
 84.3333 917.667 128.333 988.333 197 1049 c 0
 273 1115.67 357 1149 449 1149 c 0
 577 1149 680.667 1115 760 1047 c 0
 828.667 989 868.667 908.667 880 806 c 0
 882 788.667 883 771 883 753 c 2
EndSplineSet
EndChar
StartChar: uni0E46
Encoding: 3654 3654 190
Width: 1100
Flags: W
Fore
328 609 m 1
 354 608 l 1
 382.667 612 405.667 627.333 423 654 c 0
 427 662 l 0
 435.667 680 440 698.667 440 718 c 0
 440 733.333 437.667 747.333 433 760 c 0
 424.333 781.333 409.667 796 389 804 c 0
 387 804.667 384.667 805.333 382 806 c 2
 354 808 l 1
 319.333 806 294 789.333 278 758 c 0
 274.667 752.667 272 746.667 270 740 c 0
 266.667 727.333 265 714.667 265 702 c 1
 268 673 l 1
 278 647 l 1
 290.667 625.667 307.333 613 328 609 c 1
788 -374 m 1
 788 789 788 789 788 817 c 128
 788 835.667 779.667 864.333 763 903 c 0
 752.333 929 731 956.333 699 985 c 1
 699 984.333 651 951.667 555 887 c 1
 419 968 l 2
 405.667 976.667 398 982.333 396 985 c 1
 378 972.333 361 948.333 345 913 c 1
 337 892 l 1
 349 898 363.333 901 380 901 c 0
 387.333 901 395.667 900.667 405 900 c 0
 451 894.667 489 867 519 817 c 1
 531.667 793.667 538 765.333 538 732 c 0
 538 685.333 527 641.667 505 601 c 0
 483.667 561.667 448 534.667 398 520 c 0
 379.333 514.667 360 512 340 512 c 0
 331.333 512 322.333 512.667 313 514 c 0
 259 520 214 549.333 178 602 c 0
 168 616 l 0
 148 650.667 138 702.333 138 771 c 0
 138 785 138.667 798 140 810 c 0
 148 876.667 175.333 945.667 222 1017 c 1
 254.667 1065 300 1105 358 1137 c 1
 373.333 1146.33 386 1152.33 396 1155 c 1
 396 1154.33 449 1118.33 555 1047 c 1
 699 1155 l 1
 738.333 1144.33 781.333 1116.33 828 1071 c 0
 837.333 1061.67 846.333 1052 855 1042 c 0
 891 1000.67 918.333 941.333 937 864 c 0
 944.333 834 948 809 948 789 c 2
 948 -374 l 1
 788 -374 l 1
EndSplineSet
EndChar
StartChar: uni0E47
Encoding: 3655 3655 191
Width: 0
Flags: W
Fore
-453 1583 m 0
 -477.667 1581.67 -495.667 1570 -507 1548 c 1
 -513 1528 l 1
 -513 1517 l 1
 -511.667 1491 -498.333 1473.67 -473 1465 c 0
 -465 1461.67 -455.667 1460 -445 1460 c 0
 -419 1461.33 -400.667 1473 -390 1495 c 0
 -386.667 1502.33 -385 1510.33 -385 1519 c 0
 -385 1545.67 -397.333 1564.67 -422 1576 c 0
 -430.667 1580.67 -441 1583 -453 1583 c 0
-526 1434 m 0
 -558 1454 -574.333 1483.33 -575 1522 c 0
 -575 1533.33 -573.333 1543.67 -570 1553 c 0
 -554.667 1596.33 -523 1623 -475 1633 c 0
 -467.667 1634.33 -460 1635.33 -452 1636 c 1
 -414 1634 l 1
 -365.333 1627.33 -331.333 1604.67 -312 1566 c 0
 -298.667 1539.33 -292 1509.33 -292 1476 c 0
 -292 1446.67 -297 1419.67 -307 1395 c 0
 -332.333 1333.67 -375 1297.67 -435 1287 c 0
 -445.667 1285 -456.667 1284 -468 1284 c 0
 -543.333 1284 -607.333 1300.33 -660 1333 c 2
 -709 1362 l 1
 -723.667 1368.67 -738.667 1372 -754 1372 c 0
 -774.667 1372 -786 1354 -788 1318 c 0
 -789.333 1296 -791.667 1284.67 -795 1284 c 0
 -893.667 1284 -963.667 1320.33 -1005 1393 c 0
 -1025 1428.33 -1035 1467.33 -1035 1510 c 0
 -1035 1528.67 -1033 1546.33 -1029 1563 c 0
 -1005.67 1654.33 -948 1716.33 -856 1749 c 0
 -854 1749.67 -851.667 1750.33 -849 1751 c 0
 -799 1767.67 -729.667 1776.67 -641 1778 c 0
 -581 1778.67 -539.667 1782.33 -517 1789 c 0
 -470.333 1803 -435.667 1827.33 -413 1862 c 0
 -405.667 1872 -400.333 1882.67 -397 1894 c 1
 -255 1894 l 1
 -259.667 1840.67 -288.333 1790 -341 1742 c 0
 -378.333 1708 -417.667 1685.67 -459 1675 c 0
 -491 1666.33 -547.333 1661.33 -628 1660 c 0
 -708 1659.33 -767.667 1649.67 -807 1631 c 0
 -851 1609.67 -877 1578.33 -885 1537 c 1
 -887 1505 l 1
 -881 1472 l 1
 -873 1444 -859 1430 -839 1430 c 1
 -834 1461 l 1
 -822 1503 -795.333 1524 -754 1524 c 0
 -732 1524 -705 1511.33 -673 1486 c 0
 -633.667 1455.33 -602.667 1435.33 -580 1426 c 0
 -551.333 1414.67 -519.667 1409 -485 1409 c 0
 -471.667 1409 -461.667 1411.67 -455 1417 c 1
 -488 1418 l 1
 -500 1420.67 -512.667 1426 -526 1434 c 0
EndSplineSet
EndChar
StartChar: uni0E48
Encoding: 3656 3656 192
Width: 0
Flags: W
Fore
-333 2106 m 1
 -191 2106 l 1
 -191 1826 l 1
 -333 1826 l 1
 -333 2106 l 1
EndSplineSet
EndChar
StartChar: uni0E49
Encoding: 3657 3657 193
Width: 0
Flags: W
Fore
67 2156 m 1
 33.6667 2020.67 -51 1910.33 -187 1825 c 0
 -293.667 1757.67 -408.333 1718 -531 1706 c 1
 -591 1703 l 1
 -591 1783 l 1
 -559 1791 -532.333 1810 -511 1840 c 0
 -503 1851.33 -495.667 1869 -489 1893 c 1
 -505.667 1885.67 -523.667 1882 -543 1882 c 0
 -577 1882 -608.667 1894.67 -638 1920 c 0
 -665.333 1943.33 -679 1976.67 -679 2020 c 0
 -679 2030 l 0
 -677 2068.67 -663 2101 -637 2127 c 0
 -611 2153 -578.333 2167.33 -539 2170 c 1
 -517 2170 l 1
 -475.667 2166.67 -444 2157.67 -422 2143 c 0
 -410.667 2135 -399.333 2125 -388 2113 c 0
 -362 2083.67 -349 2049 -349 2009 c 0
 -349 2004 -349 2004 -349 1998 c 0
 -353 1942.67 -365.667 1897.33 -387 1862 c 1
 -397 1848 l 1
 -282.333 1890.67 -193.667 1956.67 -131 2046 c 0
 -106.333 2080.67 -87.6667 2117.33 -75 2156 c 1
 67 2156 l 1
-525 1945 m 0
 -499.667 1945 -478.667 1957 -462 1981 c 0
 -452.667 1994.33 -448 2008.67 -448 2024 c 0
 -448 2048.67 -460 2069.67 -484 2087 c 0
 -497.333 2097 -511 2102 -525 2102 c 0
 -552.333 2102 -574.667 2090 -592 2066 c 0
 -601.333 2053.33 -606 2039.33 -606 2024 c 0
 -606 1994 -592.333 1971.33 -565 1956 c 0
 -552.333 1948.67 -539 1945 -525 1945 c 0
EndSplineSet
EndChar
StartChar: uni0E4A
Encoding: 3658 3658 194
Width: 0
Flags: W
Fore
-579 1799 m 0
 -580.333 1822.33 -591.667 1839.33 -613 1850 c 0
 -621 1854 -629.333 1856 -638 1856 c 0
 -641 1856 -641 1856 -643 1856 c 0
 -667.667 1854 -684.333 1841 -693 1817 c 1
 -696 1794 l 1
 -696 1792 l 0
 -695.333 1767.33 -684.667 1750.33 -664 1741 c 0
 -656.667 1737.67 -648.667 1736 -640 1736 c 0
 -614.667 1736 -596.333 1747.67 -585 1771 c 0
 -581 1779 -579 1788.33 -579 1799 c 0
-155 1839 m 1
 -10 2169 l 1
 125 2169 l 2
 124.333 2169 81.3333 2056.67 -4 1832 c 0
 -36.6667 1746.67 -120 1695 -254 1677 c 0
 -277.333 1673.67 -301 1672 -325 1672 c 1
 -290.333 1725.33 -273 1781.33 -273 1840 c 0
 -273 1876.67 -280.333 1910.33 -295 1941 c 0
 -311 1974.33 -334.333 2000.67 -365 2020 c 1
 -507 1902 l 1
 -605 1988 l 1
 -624.333 2004 -638.333 2014.67 -647 2020 c 1
 -694.333 2000.67 -725 1965.67 -739 1915 c 0
 -743 1900.33 -745 1885.67 -745 1871 c 0
 -745 1859 -743.667 1847.67 -741 1837 c 1
 -739.667 1846.33 -733.333 1859 -722 1875 c 0
 -704 1901 -675 1914 -635 1914 c 0
 -623 1914 -612.667 1912.67 -604 1910 c 0
 -562 1896.67 -536.667 1868.67 -528 1826 c 0
 -526.667 1820 -525.667 1813.67 -525 1807 c 1
 -527 1774 l 1
 -533.667 1732 -555.333 1702.67 -592 1686 c 0
 -616.667 1674 -644.667 1668 -676 1668 c 0
 -704 1668 -730 1672.33 -754 1681 c 0
 -803.333 1699.67 -838 1737.67 -858 1795 c 0
 -867.333 1822.33 -872 1852.67 -872 1886 c 0
 -872 1893.33 -871.667 1900.67 -871 1908 c 0
 -866.333 1980 -825 2044.33 -747 2101 c 0
 -713.667 2124.33 -680.333 2142 -647 2154 c 1
 -507 2036 l 1
 -365 2154 l 1
 -307.667 2134.67 -257.667 2097.33 -215 2042 c 1
 -172.333 1988.67 -151 1933.33 -151 1876 c 0
 -151 1863.33 -152.333 1851 -155 1839 c 1
EndSplineSet
EndChar
StartChar: uni0E4B
Encoding: 3659 3659 195
Width: 0
Flags: W
Fore
-164 1812 m 1
 -306 1812 l 1
 -306 1670 l 1
 -448 1670 l 1
 -448 1812 l 1
 -590 1812 l 1
 -590 1954 l 1
 -448 1954 l 1
 -448 2096 l 1
 -306 2096 l 1
 -306 1954 l 1
 -164 1954 l 1
 -164 1812 l 1
EndSplineSet
EndChar
StartChar: uni0E4C
Encoding: 3660 3660 196
Width: 0
Flags: W
Fore
28 2169 m 1
 11.3333 2122.33 -32.3333 2076 -103 2030 c 0
 -130 2012 -130 2012 -133 2010 c 0
 -162.333 1989.33 -209.333 1970 -274 1952 c 1
 -321 1942 l 1
 -273.667 1932 -241.667 1906 -225 1864 c 1
 -211 1817 l 1
 -209 1789 l 1
 -209.667 1764.33 -219.667 1734.33 -239 1699 c 0
 -259 1661.67 -297.333 1637 -354 1625 c 0
 -366 1623 -377.667 1621.67 -389 1621 c 1
 -432 1624 l 1
 -488.667 1632.67 -532 1651.33 -562 1680 c 0
 -563 1681 -563 1681 -565 1683 c 0
 -595.667 1715.67 -613 1756.33 -617 1805 c 1
 -617 1831 l 1
 -611.667 1891 -590.333 1937 -553 1969 c 0
 -519 1998.33 -453.667 2023.33 -357 2044 c 0
 -315 2053.33 -289 2059.67 -279 2063 c 0
 -231 2079 -190 2102.33 -156 2133 c 0
 -142.667 2145.67 -133 2157.67 -127 2169 c 1
 28 2169 l 1
-409 1885 m 0
 -444.333 1885 -471 1871.33 -489 1844 c 1
 -499 1821 l 1
 -502.333 1812.33 -504 1802.67 -504 1792 c 0
 -504 1774.67 -497.667 1758 -485 1742 c 1
 -463.667 1717.33 -436.667 1705 -404 1705 c 1
 -364 1710.33 -336.667 1728 -322 1758 c 0
 -316.667 1769.33 -314 1781.67 -314 1795 c 0
 -314 1834.33 -330.667 1861.33 -364 1876 c 0
 -377.333 1882 -392.333 1885 -409 1885 c 0
EndSplineSet
EndChar
StartChar: uni0E4D
Encoding: 3661 3661 197
Width: 0
Flags: W
Fore
-262 1514 m 0
 -220.667 1514 -185.333 1499.33 -156 1470 c 0
 -127.333 1440 -113 1404 -113 1362 c 0
 -113 1321.33 -127.333 1286.33 -156 1257 c 0
 -185.333 1227.67 -220.667 1213 -262 1213 c 0
 -302.667 1213 -338 1227.67 -368 1257 c 0
 -397.333 1286.33 -412 1321.33 -412 1362 c 0
 -412 1404 -397.333 1440 -368 1470 c 0
 -338.667 1499.33 -303.333 1514 -262 1514 c 0
-263 1285 m 0
 -241 1285 -222.333 1292.33 -207 1307 c 0
 -191 1322.33 -183 1340.67 -183 1362 c 0
 -183 1383.33 -191 1402 -207 1418 c 0
 -222.333 1433.33 -241 1441 -263 1441 c 0
 -284.333 1441 -303 1433.33 -319 1418 c 0
 -335 1402 -343 1383.33 -343 1362 c 0
 -343 1340.67 -335 1322.33 -319 1307 c 0
 -303 1292.33 -284.333 1285 -263 1285 c 0
EndSplineSet
EndChar
StartChar: uni0E4E
Encoding: 3662 3662 198
Width: 0
Flags: W
Fore
-102 1901 m 1
 -165.333 1917 -221.333 1925 -270 1925 c 0
 -354.667 1925 -397 1905.33 -397 1866 c 0
 -397 1820.67 -344 1798 -238 1798 c 2
 -168 1798 l 1
 -168 1686 l 1
 -233 1686 l 2
 -357.667 1686 -420 1666 -420 1626 c 0
 -420 1606 -401.333 1589 -364 1575 c 0
 -326.667 1561 -276.333 1554 -213 1554 c 2
 -135 1554 l 1
 -135 1444 l 1
 -219 1444 l 2
 -319 1444 -398 1461 -456 1495 c 128
 -514 1529 -543 1569.33 -543 1616 c 0
 -543 1644 -533 1669.83 -513 1693.5 c 128
 -493 1717.17 -466.667 1733.67 -434 1743 c 1
 -491.333 1772.33 -520 1815.33 -520 1872 c 0
 -520 1921.33 -498.667 1961 -456 1991 c 0
 -413.333 2021 -354.333 2036 -279 2036 c 0
 -223 2036 -164 2028.33 -102 2013 c 1
 -102 1901 l 1
EndSplineSet
EndChar
StartChar: uni0E4F
Encoding: 3663 3663 199
Width: 1250
Flags: HW
Fore
616.666 917.253 m 0
 503.546 917.253 406.898 877.151 326.725 796.947 c 1
 246.002 717.288 205.641 620.988 205.641 508.047 c 0
 205.641 395.652 246.002 299.353 326.725 219.148 c 0
 406.898 139.489 503.546 99.6602 616.666 99.6602 c 0
 730.339 99.6602 827.534 139.489 908.256 219.148 c 1
 988.427 299.353 1028.52 395.652 1028.52 508.047 c 0
 1028.52 620.988 988.427 717.288 908.256 796.947 c 0
 827.534 877.151 730.339 917.253 616.666 917.253 c 0
617.093 361.029 m 0
 661.902 361.029 698.665 375.021 727.383 403.003 c 0
 756.098 430.986 770.456 466.48 770.456 509.484 c 0
 770.456 552.488 756.098 587.983 727.383 615.966 c 0
 698.665 643.947 661.902 657.938 617.093 657.938 c 0
 572.598 657.938 535.992 643.947 507.277 615.966 c 0
 478.56 587.983 464.202 552.488 464.202 509.484 c 0
 464.202 466.48 478.56 430.986 507.277 403.003 c 0
 535.992 375.021 572.598 361.029 617.093 361.029 c 0
616.054 1040.03 m 0
 759.704 1040.03 882.537 987.973 984.549 883.854 c 0
 1085.87 780.442 1136.53 655.429 1136.53 508.812 c 0
 1136.53 362.905 1085.87 237.891 984.549 133.772 c 1
 882.537 30.3623 759.704 -21.3428 616.054 -21.3428 c 0
 473.097 -21.3428 350.958 30.3623 249.639 133.772 c 0
 147.626 237.891 96.6191 362.905 96.6191 508.812 c 0
 96.6191 655.429 147.626 780.442 249.639 883.854 c 1
 350.958 987.973 473.097 1040.03 616.054 1040.03 c 0
615.796 258.114 m 0
 542.164 258.114 481.589 281.918 434.067 329.523 c 0
 386.546 377.13 362.784 437.515 362.784 510.678 c 0
 362.784 583.84 386.546 644.225 434.067 691.831 c 0
 481.589 739.438 542.164 763.239 615.796 763.239 c 0
 689.949 763.239 750.787 739.438 798.309 691.831 c 0
 845.829 644.225 869.589 583.84 869.589 510.678 c 0
 869.589 437.515 845.83 377.13 798.309 329.523 c 0
 750.787 281.918 689.949 258.114 615.796 258.114 c 0
EndSplineSet
EndChar
StartChar: uni0E50
Encoding: 3664 3664 200
Width: 1250
Flags: W
Fore
625 163 m 0
 711.667 163 785.667 192 847 250 c 0
 908.333 308 939 377 939 457 c 0
 939 540.333 907.333 610.667 844 668 c 0
 783.333 723.333 710.333 751 625 751 c 0
 540.333 750.333 468.333 721 409 663 c 0
 351 605.667 322 537 322 457 c 0
 322 369.667 354 297.333 418 240 c 0
 475.333 188.667 544.333 163 625 163 c 0
622 -10 m 0
 502.667 -10 398.667 28.3333 310 105 c 0
 222.667 180.333 170.667 275.333 154 390 c 0
 151.333 412 150 434.667 150 458 c 0
 150 576 189.667 679 269 767 c 0
 345 850.333 439.333 900.667 552 918 c 0
 575.333 922 598.667 924 622 924 c 1
 685 921 l 1
 800.333 907 898 859.667 978 779 c 0
 1061.33 695 1105.67 595 1111 479 c 0
 1111.67 471.667 1112 464.667 1112 458 c 0
 1112 346.667 1073.33 247 996 159 c 0
 921.333 73.6667 828 20.3333 716 -1 c 0
 685.333 -7 654 -10 622 -10 c 0
EndSplineSet
EndChar
